<svg xmlns="http://www.w3.org/2000/svg" width="124" height="34" viewBox="0 0 124 34">
  <g id="Group_70" data-name="Group 70" transform="translate(-708 -1261)">
    <g id="Path_326" data-name="Path 326" transform="translate(708 1261)" fill="none">
      <path d="M5,0H119a5,5,0,0,1,5,5V29a5,5,0,0,1-5,5H5a5,5,0,0,1-5-5V5A5,5,0,0,1,5,0Z" stroke="none"/>
      <path d="M 5 1 C 2.794403076171875 1 1 2.794399261474609 1 5 L 1 29 C 1 31.20560073852539 2.794403076171875 33 5 33 L 119 33 C 121.2055969238281 33 123 31.20560073852539 123 29 L 123 5 C 123 2.794399261474609 121.2055969238281 1 119 1 L 5 1 M 5 0 L 119 0 C 121.7614135742188 0 124 2.238582611083984 124 5 L 124 29 C 124 31.76141738891602 121.7614135742188 34 119 34 L 5 34 C 2.23858642578125 34 0 31.76141738891602 0 29 L 0 5 C 0 2.238582611083984 2.23858642578125 0 5 0 Z" stroke="none" fill="#e8055d"/>
    </g>
    <text id="Read_more" data-name="Read more" transform="translate(721 1269)" fill="#e8055d" font-size="14" font-family="Inter" font-weight="600"><tspan x="0" y="14">READ MORE</tspan></text>
    <g id="arrow_forward-24px" transform="translate(812 1272)">
      <path id="Path_278" data-name="Path 278" d="M0,0H12V12H0Z" fill="none"/>
      <path id="Path_279" data-name="Path 279" d="M8,4l-.7.7,2.79,2.8H4v1h6.085L7.3,11.3,8,12l4-4Z" transform="translate(-2 -2)" fill="#e8055d"/>
    </g>
  </g>
</svg>
