<svg id="group_work-24px" xmlns="http://www.w3.org/2000/svg" width="54.455" height="54.455" viewBox="0 0 54.455 54.455">
  <path id="Path_209" data-name="Path 209" d="M0,0H54.455V54.455H0Z" fill="none"/>
  <path id="Path_210" data-name="Path 210" d="M24.689,2A22.689,22.689,0,1,0,47.379,24.689,22.7,22.7,0,0,0,24.689,2ZM15.614,37.169A5.672,5.672,0,1,1,21.286,31.5,5.674,5.674,0,0,1,15.614,37.169Zm3.4-21.555a5.672,5.672,0,1,1,5.672,5.672A5.674,5.674,0,0,1,19.017,15.614ZM33.765,37.169A5.672,5.672,0,1,1,39.438,31.5,5.674,5.674,0,0,1,33.765,37.169Z" transform="translate(2.538 2.538)" fill="#005dba"/>
</svg>
