<svg id="autorenew-24px" xmlns="http://www.w3.org/2000/svg" width="62.192" height="62.192" viewBox="0 0 62.192 62.192">
  <path id="Path_295" data-name="Path 295" d="M0,0H62.192V62.192H0Z" fill="none"/>
  <path id="Path_296" data-name="Path 296" d="M24.731,13.957v7.774L35.1,11.365,24.731,1V8.774A20.694,20.694,0,0,0,7.213,40.544L11,36.761A15.212,15.212,0,0,1,9.183,29.5,15.56,15.56,0,0,1,24.731,13.957Zm17.518,4.509-3.783,3.783a15.522,15.522,0,0,1-13.734,22.8V37.279L14.365,47.644,24.731,58.01V50.236a20.694,20.694,0,0,0,17.518-31.77Z" transform="translate(6.365 1.591)" fill="#005dba"/>
</svg>
