<svg id="people_outline-24px" xmlns="http://www.w3.org/2000/svg" width="44.252" height="44.252" viewBox="0 0 44.252 44.252">
  <path id="Path_330" data-name="Path 330" d="M0,0H44.252V44.252H0Z" fill="none"/>
  <path id="Path_331" data-name="Path 331" d="M29.579,19.751a22.1,22.1,0,0,0-8.3,1.844,21.75,21.75,0,0,0-8.3-1.844C8.984,19.751,1,21.742,1,25.743v5.071H41.564V25.743C41.564,21.742,33.581,19.751,29.579,19.751Zm-7.375,8.3H3.766v-2.3c0-1,4.72-3.227,9.219-3.227S22.2,24.747,22.2,25.743Zm16.595,0H24.97v-2.3a3.355,3.355,0,0,0-.959-2.249,17.788,17.788,0,0,1,5.568-.977c4.5,0,9.219,2.231,9.219,3.227ZM12.985,17.907a6.453,6.453,0,1,0-6.453-6.453A6.461,6.461,0,0,0,12.985,17.907Zm0-10.141A3.688,3.688,0,1,1,9.3,11.453,3.7,3.7,0,0,1,12.985,7.766ZM29.579,17.907a6.453,6.453,0,1,0-6.453-6.453A6.461,6.461,0,0,0,29.579,17.907Zm0-10.141a3.688,3.688,0,1,1-3.688,3.688A3.7,3.7,0,0,1,29.579,7.766Z" transform="translate(0.844 4.219)" fill="#005dba"/>
</svg>
