<svg xmlns="http://www.w3.org/2000/svg" width="26" height="26" viewBox="0 0 26 26">
  <g id="Twitter_Logo_WhiteOnBlue" transform="translate(0.221 0.713)">
    <g id="Dark_Blue" data-name="Dark Blue" transform="translate(-0.221 -0.221)">
      <rect id="Rectangle_77" data-name="Rectangle 77" width="26" height="26" rx="6" transform="translate(0 -0.492)" fill="#1da1f2"/>
    </g>
    <g id="Logo_FIXED" data-name="Logo — FIXED" transform="translate(-0.221 -0.221)">
      <path id="Path_284" data-name="Path 284" d="M80.292,111.051c6.35,0,9.824-4.848,9.824-9.053,0-.138,0-.275-.01-.411a6.747,6.747,0,0,0,1.723-1.647,7.356,7.356,0,0,1-1.983.5,3.253,3.253,0,0,0,1.518-1.76,7.287,7.287,0,0,1-2.192.772,3.673,3.673,0,0,0-4.148-.626,3.1,3.1,0,0,0-1.736,3.528,10.106,10.106,0,0,1-7.116-3.324,3.037,3.037,0,0,0,1.069,4.247,3.653,3.653,0,0,1-1.567-.4v.04a3.26,3.26,0,0,0,2.77,3.119,3.732,3.732,0,0,1-1.559.055A3.435,3.435,0,0,0,80.11,108.3a7.312,7.312,0,0,1-4.288,1.365,7.624,7.624,0,0,1-.822-.046,10.391,10.391,0,0,0,5.292,1.427" transform="translate(-70.185 -91.923)" fill="#fff"/>
      <rect id="Rectangle_78" data-name="Rectangle 78" width="26" height="26" transform="translate(0 -0.492)" fill="none"/>
    </g>
  </g>
</svg>
