<svg id="language-24px" xmlns="http://www.w3.org/2000/svg" width="47.982" height="47.982" viewBox="0 0 47.982 47.982">
  <path id="Path_217" data-name="Path 217" d="M0,0H47.982V47.982H0Z" fill="none"/>
  <path id="Path_218" data-name="Path 218" d="M21.973,2A19.993,19.993,0,1,0,41.985,21.993,19.983,19.983,0,0,0,21.973,2ZM35.827,14h-5.9a31.287,31.287,0,0,0-2.759-7.117A16.053,16.053,0,0,1,35.827,14ZM21.993,6.078A28.163,28.163,0,0,1,25.811,14H18.174A28.163,28.163,0,0,1,21.993,6.078ZM6.518,25.991a15.639,15.639,0,0,1,0-8h6.757a33.018,33.018,0,0,0-.28,4,33.019,33.019,0,0,0,.28,4Zm1.639,4h5.9a31.286,31.286,0,0,0,2.759,7.117A15.968,15.968,0,0,1,8.158,29.99ZM14.056,14h-5.9a15.968,15.968,0,0,1,8.657-7.117A31.287,31.287,0,0,0,14.056,14Zm7.937,23.911a28.163,28.163,0,0,1-3.819-7.917h7.637A28.163,28.163,0,0,1,21.993,37.907Zm4.678-11.916H17.314a29.415,29.415,0,0,1-.32-4,29.159,29.159,0,0,1,.32-4h9.357a29.159,29.159,0,0,1,.32,4A29.415,29.415,0,0,1,26.671,25.991Zm.5,11.116A31.287,31.287,0,0,0,29.93,29.99h5.9A16.053,16.053,0,0,1,27.171,37.107Zm3.539-11.116a33.018,33.018,0,0,0,.28-4,33.018,33.018,0,0,0-.28-4h6.757a15.639,15.639,0,0,1,0,8Z" transform="translate(1.999 1.999)" fill="#005dba"/>
</svg>
