<svg id="folder_special-24px" xmlns="http://www.w3.org/2000/svg" width="62.549" height="62.549" viewBox="0 0 62.549 62.549">
  <path id="Path_314" data-name="Path 314" d="M0,0H62.549V62.549H0Z" fill="none"/>
  <path id="Path_315" data-name="Path 315" d="M48.912,9.212H28.062L22.85,4H7.212A5.228,5.228,0,0,0,2,9.212V40.487A5.228,5.228,0,0,0,7.212,45.7h41.7a5.228,5.228,0,0,0,5.212-5.212V14.425A5.228,5.228,0,0,0,48.912,9.212ZM43.543,37.881,35.881,33.4l-7.662,4.483L30.251,29.2,23.5,23.364l8.887-.756,3.492-8.184,3.492,8.184,8.887.756L41.51,29.2Z" transform="translate(3.212 6.425)" fill="#005dba"/>
</svg>
