<svg xmlns="http://www.w3.org/2000/svg" width="57.907" height="49.633" viewBox="0 0 57.907 49.633">
  <g id="Group_13" data-name="Group 13" transform="translate(-113.921 -2243.921)">
    <path id="Path_206" data-name="Path 206" d="M39.3,6.035V5.2a4.2,4.2,0,1,0-8.392,0v.839a1.683,1.683,0,0,0-1.678,1.678v6.714a1.683,1.683,0,0,0,1.678,1.678H39.3a1.683,1.683,0,0,0,1.678-1.678V7.714A1.683,1.683,0,0,0,39.3,6.035Zm-1.678,0H32.589V5.2a2.518,2.518,0,1,1,5.035,0Z" transform="translate(130.847 2248.47)" fill="#1592e6"/>
    <g id="people-24px" transform="translate(113.921 2243.921)">
      <path id="Path_208" data-name="Path 208" d="M0,0H49.633V49.633H0Z" fill="none"/>
      <path id="Path_209" data-name="Path 209" d="M32.021,17.408a6.2,6.2,0,1,0-6.2-6.2A6.178,6.178,0,0,0,32.021,17.408Zm-16.544,0a6.2,6.2,0,1,0-6.2-6.2A6.178,6.178,0,0,0,15.476,17.408Zm0,4.136C10.658,21.544,1,23.964,1,28.783v5.17H29.953v-5.17C29.953,23.964,20.295,21.544,15.476,21.544Zm16.544,0c-.6,0-1.282.041-2.006.1,2.4,1.737,4.074,4.074,4.074,7.135v5.17H46.5v-5.17C46.5,23.964,36.839,21.544,32.021,21.544Z" transform="translate(1.068 5.34)" fill="#1592e6"/>
    </g>
  </g>
</svg>
