<svg xmlns="http://www.w3.org/2000/svg" width="52.058" height="52.058" viewBox="0 0 52.058 52.058">
  <g id="labs-01" transform="translate(-43.5 -43.5)" opacity="0.545">
    <g id="Group_27" data-name="Group 27" transform="translate(59.536 54.88)">
      <path id="Path_294" data-name="Path 294" d="M171.03,134h7.044l6.553,28.67h-6.881Z" transform="translate(-171.03 -134)" fill="#005cc1"/>
    </g>
    <g id="Group_28" data-name="Group 28" transform="translate(69.693 54.88)">
      <path id="Path_295" data-name="Path 295" d="M251.8,134l1.967,7.7,7.863-7.7Z" transform="translate(-251.8 -134)" fill="#e80458"/>
    </g>
    <g id="Group_29" data-name="Group 29" transform="translate(43.5 43.5)">
      <path id="Path_296" data-name="Path 296" d="M69.529,95.558A26.029,26.029,0,1,1,95.558,69.529,26.059,26.059,0,0,1,69.529,95.558Zm0-49.795A23.766,23.766,0,1,0,93.295,69.529,23.793,23.793,0,0,0,69.529,45.763Z" transform="translate(-43.5 -43.5)" fill="#6d00eb"/>
    </g>
  </g>
</svg>
