<svg id="enhanced_encryption-24px" xmlns="http://www.w3.org/2000/svg" width="49.948" height="49.948" viewBox="0 0 49.948 49.948">
  <path id="Path_249" data-name="Path 249" d="M0,0H49.948V49.948H0Z" fill="none"/>
  <path id="Path_250" data-name="Path 250" d="M0,0H49.948V49.948H0Z" fill="none"/>
  <path id="Path_251" data-name="Path 251" d="M33.136,15.568H31.055V11.406a10.406,10.406,0,0,0-20.812,0v4.162H8.162A4.175,4.175,0,0,0,4,19.731V40.542A4.175,4.175,0,0,0,8.162,44.7H33.136A4.175,4.175,0,0,0,37.3,40.542V19.731A4.175,4.175,0,0,0,33.136,15.568ZM14.2,11.406a6.452,6.452,0,0,1,12.9,0v4.162H14.2ZM28.974,32.218H22.731v6.243H18.568V32.218H12.325V28.055h6.244V21.812h4.162v6.244h6.244Z" transform="translate(4.325 1.081)" fill="#005dba"/>
</svg>
