<svg id="insert_chart_outlined-24px" xmlns="http://www.w3.org/2000/svg" width="53.92" height="57.441" viewBox="0 0 53.92 57.441">
  <path id="Path_297" data-name="Path 297" d="M0,0H53.92V57.441H0Z" fill="none"/>
  <path id="Path_298" data-name="Path 298" d="M16.747,36.22H12.363V19.61h4.384Zm8.767,0H21.131V12.491h4.384Zm8.767,0H29.9V26.728h4.384Zm5.48,4.983H6.884V7.746H39.762Zm0-38.2H6.884A4.589,4.589,0,0,0,2.5,7.746v33.22a4.589,4.589,0,0,0,4.384,4.746H39.762a4.589,4.589,0,0,0,4.384-4.746V7.746A4.589,4.589,0,0,0,39.762,3Z" transform="translate(3.637 4.365)" fill="#005dba"/>
</svg>
