<svg id="track_changes-24px" xmlns="http://www.w3.org/2000/svg" width="61.869" height="61.869" viewBox="0 0 61.869 61.869">
  <path id="Path_293" data-name="Path 293" d="M0,0H61.869V61.869H0Z" fill="none"/>
  <path id="Path_294" data-name="Path 294" d="M46,9.553,42.37,13.188A20.646,20.646,0,1,1,25.2,7.336v5.207a15.465,15.465,0,1,0,13.508,4.305l-3.635,3.635A10.337,10.337,0,1,1,25.2,17.828v5.517a5.1,5.1,0,0,0-2.578,4.434,5.156,5.156,0,1,0,10.312,0,5.073,5.073,0,0,0-2.578-4.434V2H27.779A25.788,25.788,0,1,0,46,9.553Z" transform="translate(3.156 3.156)" fill="#005dba"/>
</svg>
