<svg id="remove_red_eye-24px" xmlns="http://www.w3.org/2000/svg" width="53.31" height="53.31" viewBox="0 0 53.31 53.31">
  <path id="Path_221" data-name="Path 221" d="M0,0H53.31V53.31H0Z" fill="none"/>
  <path id="Path_222" data-name="Path 222" d="M25.434,4.5A26.27,26.27,0,0,0,1,21.159a26.248,26.248,0,0,0,48.867,0A26.27,26.27,0,0,0,25.434,4.5Zm0,27.766A11.106,11.106,0,1,1,36.54,21.159,11.11,11.11,0,0,1,25.434,32.266Zm0-17.77A6.664,6.664,0,1,0,32.1,21.159,6.655,6.655,0,0,0,25.434,14.5Z" transform="translate(1.221 5.496)" fill="#005dba"/>
</svg>
