<svg xmlns="http://www.w3.org/2000/svg" width="16.749" height="16.749" viewBox="0 0 16.749 16.749">
  <path id="Icon_awesome-check-circle" data-name="Icon awesome-check-circle" d="M17.312,8.937A8.375,8.375,0,1,1,8.937.563,8.374,8.374,0,0,1,17.312,8.937ZM7.968,13.371l6.213-6.213a.54.54,0,0,0,0-.764l-.764-.764a.54.54,0,0,0-.764,0L7.586,10.7,5.221,8.331a.54.54,0,0,0-.764,0L3.692,9.1a.54.54,0,0,0,0,.764L7.2,13.371A.54.54,0,0,0,7.968,13.371Z" transform="translate(-0.563 -0.563)" fill="#1592e6"/>
</svg>
