<svg id="gesture-24px" xmlns="http://www.w3.org/2000/svg" width="57.217" height="57.217" viewBox="0 0 57.217 57.217">
  <path id="Path_227" data-name="Path 227" d="M0,0H57.217V57.217H0Z" fill="none"/>
  <path id="Path_228" data-name="Path 228" d="M7.012,12.274c1.669-1.693,3.338-3.218,4.077-2.909,1.192.477,0,2.456-.715,3.624-.6,1-6.818,9.274-6.818,15.043a8.552,8.552,0,0,0,3.195,7.1,7.143,7.143,0,0,0,6.294,1.1c2.551-.739,4.649-3.338,7.3-6.6,2.885-3.552,6.747-8.2,9.727-8.2,3.886,0,3.934,2.408,4.2,4.267-9.012,1.526-12.826,8.749-12.826,12.8a7.528,7.528,0,0,0,7.653,7.367c3.886,0,10.228-3.171,11.181-14.543h5.865v-5.96H40.245c-.358-3.934-2.6-10.013-9.608-10.013-5.364,0-9.965,4.554-11.777,6.771C17.478,23.86,13.95,28.032,13.4,28.6c-.6.715-1.621,2-2.646,2-1.073,0-1.717-1.979-.858-4.577a43.5,43.5,0,0,1,4.41-8.392c1.86-2.718,3.1-4.577,3.1-7.82C17.406,4.645,13.5,3,11.423,3,8.276,3,5.534,5.384,4.938,5.98,4.08,6.838,3.364,7.554,2.84,8.2Zm22.148,27.8A1.79,1.79,0,0,1,27.4,38.355c0-1.43,1.74-5.245,6.842-6.58C33.523,38.188,30.829,40.072,29.16,40.072Z" transform="translate(3.931 4.152)" fill="#005dba"/>
</svg>
