<svg id="vpn_lock-24px" xmlns="http://www.w3.org/2000/svg" width="45.172" height="45.172" viewBox="0 0 45.172 45.172">
  <path id="Path_205" data-name="Path 205" d="M0,0H45.172V45.172H0Z" fill="none"/>
  <path id="Path_206" data-name="Path 206" d="M34.729,21.7a15.539,15.539,0,0,1,.151,1.882,14.977,14.977,0,0,1-3.953,10.145,3.734,3.734,0,0,0-3.576-2.616H25.468V25.468a1.888,1.888,0,0,0-1.882-1.882H12.293V19.822h3.764A1.888,1.888,0,0,0,17.94,17.94V14.175H21.7a3.775,3.775,0,0,0,3.764-3.764V5.63A18.822,18.822,0,1,0,38.643,23.586c0-.64-.038-1.261-.094-1.882ZM17.94,38.512A15.036,15.036,0,0,1,4.764,23.586a15.279,15.279,0,0,1,.4-3.369l9.016,9.016v1.882a3.775,3.775,0,0,0,3.764,3.764ZM40.526,6.647V5.705a4.705,4.705,0,1,0-9.411,0v.941a1.888,1.888,0,0,0-1.882,1.882v7.529a1.888,1.888,0,0,0,1.882,1.882h9.411a1.888,1.888,0,0,0,1.882-1.882V8.529A1.888,1.888,0,0,0,40.526,6.647Zm-1.882,0H33V5.705a2.823,2.823,0,1,1,5.647,0Z" transform="translate(0.882 0.882)" fill="#005dba"/>
</svg>
