<svg id="fingerprint-24px" xmlns="http://www.w3.org/2000/svg" width="67.888" height="67.888" viewBox="0 0 67.888 67.888">
  <path id="Path_286" data-name="Path 286" d="M0,0H67.888V67.888H0Z" fill="none"/>
  <path id="Path_287" data-name="Path 287" d="M44.9,8.987a1.314,1.314,0,0,1-.651-.17A32.365,32.365,0,0,0,28.492,4.829,32.361,32.361,0,0,0,12.736,8.817a1.418,1.418,0,0,1-1.358-2.489A35.991,35.991,0,0,1,45.549,6.3,1.432,1.432,0,0,1,44.9,8.987ZM4.42,23.837a1.474,1.474,0,0,1-.82-.255A1.41,1.41,0,0,1,3.26,21.6a29.245,29.245,0,0,1,10.607-9.25,32.652,32.652,0,0,1,29.163-.028,29.357,29.357,0,0,1,10.607,9.193,1.421,1.421,0,0,1-2.32,1.641,26.555,26.555,0,0,0-9.589-8.316,29.806,29.806,0,0,0-26.589.028,26.834,26.834,0,0,0-9.617,8.373,1.233,1.233,0,0,1-1.1.594ZM22.1,57.979a1.327,1.327,0,0,1-.99-.424,28.6,28.6,0,0,1-5.686-7.468,25.11,25.11,0,0,1-2.97-12.276c0-8.4,7.185-15.246,16.01-15.246s16.01,6.845,16.01,15.246a1.414,1.414,0,1,1-2.829,0c0-6.845-5.912-12.418-13.182-12.418S15.282,30.965,15.282,37.811A22.16,22.16,0,0,0,17.913,48.7a26.775,26.775,0,0,0,5.233,6.845,1.452,1.452,0,0,1,0,2.008,1.551,1.551,0,0,1-1.047.424Zm20.281-5.233a15.233,15.233,0,0,1-8.769-2.518A15.061,15.061,0,0,1,26.88,37.811a1.414,1.414,0,0,1,2.829,0A12.166,12.166,0,0,0,35.2,47.881a12.4,12.4,0,0,0,7.185,2.008,18.694,18.694,0,0,0,2.942-.283,1.421,1.421,0,1,1,.481,2.8,19.317,19.317,0,0,1-3.423.339ZM36.7,58.573a1.656,1.656,0,0,1-.368-.057A22.07,22.07,0,0,1,25.8,52.576a20.64,20.64,0,0,1-6.138-14.766,8.53,8.53,0,0,1,8.712-8.316,8.53,8.53,0,0,1,8.712,8.316,5.9,5.9,0,0,0,11.767,0c0-10.664-9.193-19.32-20.508-19.32a20.651,20.651,0,0,0-18.7,11.4,18.2,18.2,0,0,0-1.669,7.92,28.11,28.11,0,0,0,1.9,10.211,1.38,1.38,0,0,1-.82,1.81,1.4,1.4,0,0,1-1.81-.82,31.513,31.513,0,0,1-2.065-11.2,21.251,21.251,0,0,1,1.923-9.165A23.475,23.475,0,0,1,28.351,15.634c12.87,0,23.336,9.929,23.336,22.148a8.722,8.722,0,0,1-17.425,0,5.7,5.7,0,0,0-5.884-5.488A5.7,5.7,0,0,0,22.5,37.783a17.813,17.813,0,0,0,5.29,12.757,19.235,19.235,0,0,0,9.25,5.233,1.4,1.4,0,0,1,.99,1.725A1.38,1.38,0,0,1,36.7,58.573Z" transform="translate(5.48 3.657)" fill="#005dba"/>
</svg>
