<svg id="connect_without_contact-24px" xmlns="http://www.w3.org/2000/svg" width="55" height="55" viewBox="0 0 55 55">
  <rect id="Rectangle_160" data-name="Rectangle 160" width="55" height="55" fill="none"/>
  <path id="Path_339" data-name="Path 339" d="M22.78,29.707H18.162a20.782,20.782,0,0,1,20.78-20.78v4.618A16.15,16.15,0,0,0,22.78,29.707ZM38.942,22.78V18.162A11.549,11.549,0,0,0,27.4,29.707h4.618A6.917,6.917,0,0,1,38.942,22.78ZM13.545,6.618a4.618,4.618,0,1,0-4.618,4.618A4.6,4.6,0,0,0,13.545,6.618ZM23.819,7.772H19.2a6.9,6.9,0,0,1-6.811,5.772H5.463A3.459,3.459,0,0,0,2,17.008V22.78H15.853V17.562A11.475,11.475,0,0,0,23.819,7.772ZM41.251,36.634a4.618,4.618,0,1,0-4.618-4.618A4.6,4.6,0,0,0,41.251,36.634Zm3.463,2.309H37.788a6.9,6.9,0,0,1-6.811-5.772H26.359a11.475,11.475,0,0,0,7.966,9.79v5.218H48.178V42.406A3.459,3.459,0,0,0,44.715,38.942Z" transform="translate(2.618 2.618)" fill="#005dba"/>
</svg>
