<svg xmlns="http://www.w3.org/2000/svg" width="25.746" height="26" viewBox="0 0 25.746 26">
  <g id="Group_94" data-name="Group 94" transform="translate(-301.127 -5965)">
    <circle id="Ellipse_41" data-name="Ellipse 41" cx="12" cy="12" r="12" transform="translate(302 5967)" fill="#fff"/>
    <path id="Path_286" data-name="Path 286" d="M149.192,107.44a12.875,12.875,0,0,0-4.068,25.089c.644.118.879-.279.879-.62,0-.306-.011-1.115-.017-2.19-3.581.778-4.336-1.725-4.336-1.725a3.41,3.41,0,0,0-1.43-1.883c-1.169-.8.089-.782.089-.782a2.7,2.7,0,0,1,1.972,1.326,2.741,2.741,0,0,0,3.747,1.07,2.752,2.752,0,0,1,.817-1.721c-2.858-.325-5.864-1.429-5.864-6.362a4.977,4.977,0,0,1,1.325-3.454,4.625,4.625,0,0,1,.126-3.407s1.08-.346,3.54,1.32a12.208,12.208,0,0,1,6.445,0c2.458-1.666,3.536-1.32,3.536-1.32a4.626,4.626,0,0,1,.129,3.407,4.968,4.968,0,0,1,1.323,3.454c0,4.946-3.01,6.034-5.878,6.352a3.074,3.074,0,0,1,.874,2.384c0,1.721-.016,3.11-.016,3.532,0,.344.232.744.885.619a12.875,12.875,0,0,0-4.078-25.087Z" transform="translate(164.807 5857.56)" fill="#00293b" fill-rule="evenodd"/>
  </g>
</svg>
