<svg xmlns="http://www.w3.org/2000/svg" width="25.015" height="25.016" viewBox="0 0 25.015 25.016">
  <g id="Group_93" data-name="Group 93" transform="translate(-258.492 -5965.492)">
    <rect id="Rectangle_173" data-name="Rectangle 173" width="20" height="21" transform="translate(261 5967)" fill="#fff"/>
    <path id="iconmonstr-linkedin-3" d="M19.8,0H5.212A5.212,5.212,0,0,0,0,5.212V19.8a5.212,5.212,0,0,0,5.212,5.212H19.8A5.211,5.211,0,0,0,25.015,19.8V5.212A5.211,5.211,0,0,0,19.8,0ZM8.338,19.8H5.212V8.338H8.338ZM6.775,7.017A1.839,1.839,0,1,1,8.6,5.178,1.832,1.832,0,0,1,6.775,7.017ZM20.846,19.8H17.719V13.963c0-3.51-4.169-3.245-4.169,0V19.8H10.423V8.338H13.55v1.84c1.455-2.7,7.3-2.894,7.3,2.581Z" transform="translate(258.492 5965.492)" fill="#005dba"/>
  </g>
</svg>
