<svg id="highlight_off-24px" xmlns="http://www.w3.org/2000/svg" width="42.334" height="42.334" viewBox="0 0 42.334 42.334">
  <path id="Path_94" data-name="Path 94" d="M0,0H42.334V42.334H0Z" fill="none"/>
  <path id="Path_95" data-name="Path 95" d="M24.208,12.584l-4.569,4.569-4.569-4.569-2.487,2.487,4.569,4.569-4.569,4.569L15.071,26.7l4.569-4.569L24.208,26.7,26.7,24.208l-4.569-4.569L26.7,15.071ZM19.639,2A17.639,17.639,0,1,0,37.279,19.639,17.623,17.623,0,0,0,19.639,2Zm0,31.751A14.111,14.111,0,1,1,33.751,19.639,14.13,14.13,0,0,1,19.639,33.751Z" transform="translate(1.528 1.528)" fill="#003c5d"/>
</svg>
