<svg xmlns="http://www.w3.org/2000/svg" width="229.835" height="226.768" viewBox="0 0 229.835 226.768">
  <g id="Group_21" data-name="Group 21" transform="translate(-708.215 -2034.823)">
    <g id="Group_19" data-name="Group 19">
      <circle id="Ellipse_87" data-name="Ellipse 87" cx="13.5" cy="13.5" r="13.5" transform="translate(714 2045)" fill="#e8055d"/>
      <path id="Path_352" data-name="Path 352" d="M6.605.2A7.162,7.162,0,0,1,3.661-.373a4.927,4.927,0,0,1-2.021-1.58A3.9,3.9,0,0,1,.888-4.276H4.425a1.444,1.444,0,0,0,.305.842,1.875,1.875,0,0,0,.774.572,2.855,2.855,0,0,0,1.115.206,2.584,2.584,0,0,0,1.1-.224A1.813,1.813,0,0,0,8.473-3.5,1.525,1.525,0,0,0,8.736-4.4a1.44,1.44,0,0,0-.291-.909A1.924,1.924,0,0,0,7.6-5.93a3.4,3.4,0,0,0-1.282-.22H4.908v-2.5H6.321a2.855,2.855,0,0,0,1.14-.213,1.8,1.8,0,0,0,.771-.6,1.456,1.456,0,0,0,.27-.891,1.527,1.527,0,0,0-.231-.863A1.59,1.59,0,0,0,7.61-11.8,2.2,2.2,0,0,0,6.634-12a2.612,2.612,0,0,0-1.055.206,1.8,1.8,0,0,0-.749.582,1.51,1.51,0,0,0-.291.874H1.179a3.906,3.906,0,0,1,.724-2.29,4.76,4.76,0,0,1,1.935-1.552,6.642,6.642,0,0,1,2.795-.561,6.5,6.5,0,0,1,2.749.547,4.491,4.491,0,0,1,1.847,1.488,3.614,3.614,0,0,1,.661,2.127,2.7,2.7,0,0,1-.8,2.024,3.6,3.6,0,0,1-2.07.98v.114a4.087,4.087,0,0,1,2.553,1.094,3.07,3.07,0,0,1,.856,2.237,3.6,3.6,0,0,1-.742,2.241A4.929,4.929,0,0,1,9.627-.359,7.7,7.7,0,0,1,6.605.2Z" transform="translate(721 2066)" fill="#fff"/>
    </g>
    <path id="Path_354" data-name="Path 354" d="M.826,0V-10.909H5.332a4.432,4.432,0,0,1,2.117.477A3.384,3.384,0,0,1,8.826-9.106a3.913,3.913,0,0,1,.485,1.974,3.845,3.845,0,0,1-.493,1.974,3.334,3.334,0,0,1-1.4,1.308,4.715,4.715,0,0,1-2.163.463H2.472V-5.465h2.29a2.161,2.161,0,0,0,1-.208,1.425,1.425,0,0,0,.61-.583,1.781,1.781,0,0,0,.208-.876,1.762,1.762,0,0,0-.208-.876,1.4,1.4,0,0,0-.613-.573,2.213,2.213,0,0,0-1-.2h-1.3V0Zm9.78,0V-8.182h2.53V-6.69h.085a2.229,2.229,0,0,1,.73-1.206,1.853,1.853,0,0,1,1.177-.4,3.006,3.006,0,0,1,.373.024,2.306,2.306,0,0,1,.357.072v2.264a2.487,2.487,0,0,0-.487-.1,4.407,4.407,0,0,0-.535-.037A1.691,1.691,0,0,0,14-5.867a1.493,1.493,0,0,0-.581.57,1.681,1.681,0,0,0-.21.855V0Zm9.716.154a4.544,4.544,0,0,1-2.213-.509,3.459,3.459,0,0,1-1.428-1.454,4.768,4.768,0,0,1-.5-2.251,4.7,4.7,0,0,1,.5-2.219,3.637,3.637,0,0,1,1.412-1.481,4.193,4.193,0,0,1,2.147-.53,4.519,4.519,0,0,1,1.6.272,3.435,3.435,0,0,1,1.252.8,3.67,3.67,0,0,1,.82,1.313A5.063,5.063,0,0,1,24.2-4.112v.65H17.093V-4.975h4.688a1.467,1.467,0,0,0-.2-.74,1.363,1.363,0,0,0-.525-.509,1.556,1.556,0,0,0-.764-.184,1.571,1.571,0,0,0-.783.194,1.476,1.476,0,0,0-.549.527,1.5,1.5,0,0,0-.213.754v1.539a1.859,1.859,0,0,0,.2.876,1.417,1.417,0,0,0,.559.583,1.706,1.706,0,0,0,.863.208,1.946,1.946,0,0,0,.629-.1,1.342,1.342,0,0,0,.485-.282,1.165,1.165,0,0,0,.3-.458l2.392.069a2.955,2.955,0,0,1-.653,1.4,3.306,3.306,0,0,1-1.318.922A5.03,5.03,0,0,1,20.321.154Zm9.039,0a4.371,4.371,0,0,1-2.219-.533,3.6,3.6,0,0,1-1.42-1.483,4.7,4.7,0,0,1-.5-2.2,4.691,4.691,0,0,1,.5-2.208,3.612,3.612,0,0,1,1.422-1.483,4.349,4.349,0,0,1,2.208-.533,4.481,4.481,0,0,1,1.979.41A3.17,3.17,0,0,1,32.655-6.72a3.368,3.368,0,0,1,.5,1.755H30.724A1.639,1.639,0,0,0,30.3-5.95a1.214,1.214,0,0,0-.908-.357,1.3,1.3,0,0,0-.794.253,1.621,1.621,0,0,0-.53.746,3.416,3.416,0,0,0-.189,1.217,3.461,3.461,0,0,0,.189,1.222,1.62,1.62,0,0,0,.53.751,1.3,1.3,0,0,0,.794.253,1.305,1.305,0,0,0,.642-.154,1.231,1.231,0,0,0,.461-.455,1.789,1.789,0,0,0,.229-.732h2.434a3.56,3.56,0,0,1-.5,1.768A3.139,3.139,0,0,1,31.35-.264,4.413,4.413,0,0,1,29.361.154ZM34.5,0V-8.182h2.6V0Zm1.31-9.135a1.347,1.347,0,0,1-.948-.365,1.158,1.158,0,0,1-.394-.882,1.152,1.152,0,0,1,.394-.876,1.34,1.34,0,0,1,.943-.365,1.337,1.337,0,0,1,.945.365,1.156,1.156,0,0,1,.392.876,1.161,1.161,0,0,1-.392.882A1.33,1.33,0,0,1,35.806-9.135ZM45.895-5.684,43.5-5.62a.908.908,0,0,0-.2-.455,1.128,1.128,0,0,0-.429-.314,1.519,1.519,0,0,0-.61-.115,1.528,1.528,0,0,0-.77.181.536.536,0,0,0-.312.49.52.52,0,0,0,.194.415,1.615,1.615,0,0,0,.716.282l1.577.3a3.732,3.732,0,0,1,1.824.778,1.864,1.864,0,0,1,.6,1.438,2.317,2.317,0,0,1-.5,1.465,3.19,3.19,0,0,1-1.345.967A5.181,5.181,0,0,1,42.3.154a4.67,4.67,0,0,1-2.762-.722A2.675,2.675,0,0,1,38.39-2.5l2.573-.064a1,1,0,0,0,.442.682,1.629,1.629,0,0,0,.911.234,1.582,1.582,0,0,0,.815-.186.572.572,0,0,0,.32-.5.532.532,0,0,0-.245-.445,1.985,1.985,0,0,0-.751-.264l-1.428-.272a3.378,3.378,0,0,1-1.832-.828,2.076,2.076,0,0,1-.6-1.542,2.231,2.231,0,0,1,.437-1.4,2.753,2.753,0,0,1,1.257-.892,5.419,5.419,0,0,1,1.923-.309,4.385,4.385,0,0,1,2.621.7A2.506,2.506,0,0,1,45.895-5.684ZM51.2.154a4.544,4.544,0,0,1-2.213-.509,3.459,3.459,0,0,1-1.428-1.454,4.768,4.768,0,0,1-.5-2.251,4.7,4.7,0,0,1,.5-2.219,3.637,3.637,0,0,1,1.412-1.481,4.193,4.193,0,0,1,2.147-.53,4.519,4.519,0,0,1,1.6.272,3.435,3.435,0,0,1,1.252.8A3.67,3.67,0,0,1,54.79-5.9a5.063,5.063,0,0,1,.293,1.787v.65H47.972V-4.975H52.66a1.467,1.467,0,0,0-.2-.74,1.363,1.363,0,0,0-.525-.509,1.556,1.556,0,0,0-.764-.184,1.571,1.571,0,0,0-.783.194,1.476,1.476,0,0,0-.549.527,1.5,1.5,0,0,0-.213.754v1.539a1.859,1.859,0,0,0,.2.876,1.417,1.417,0,0,0,.559.583,1.706,1.706,0,0,0,.863.208,1.946,1.946,0,0,0,.629-.1,1.342,1.342,0,0,0,.485-.282,1.165,1.165,0,0,0,.3-.458l2.392.069a2.955,2.955,0,0,1-.653,1.4,3.306,3.306,0,0,1-1.318.922A5.03,5.03,0,0,1,51.2.154ZM61.955.138a3.442,3.442,0,0,1-1.388-.264,2.124,2.124,0,0,1-.953-.8,2.416,2.416,0,0,1-.349-1.345A2.507,2.507,0,0,1,59.5-3.42a2.048,2.048,0,0,1,.661-.762,3.153,3.153,0,0,1,.969-.445,6.448,6.448,0,0,1,1.172-.205Q63-4.9,63.43-4.967a1.576,1.576,0,0,0,.621-.208.443.443,0,0,0,.194-.386v-.027a.762.762,0,0,0-.282-.634,1.193,1.193,0,0,0-.762-.224,1.4,1.4,0,0,0-.831.224.986.986,0,0,0-.4.618l-2.4-.085a2.843,2.843,0,0,1,.551-1.334,2.981,2.981,0,0,1,1.225-.927,4.706,4.706,0,0,1,1.878-.338,5.372,5.372,0,0,1,1.444.184,3.653,3.653,0,0,1,1.151.533,2.457,2.457,0,0,1,.759.855,2.425,2.425,0,0,1,.269,1.156V0h-2.45V-1.14h-.064a2.341,2.341,0,0,1-.557.7,2.26,2.26,0,0,1-.794.431A3.4,3.4,0,0,1,61.955.138Zm.8-1.7a1.663,1.663,0,0,0,.759-.17,1.394,1.394,0,0,0,.541-.471,1.225,1.225,0,0,0,.2-.7v-.778a1.572,1.572,0,0,1-.269.107q-.157.048-.344.091t-.384.075l-.378.059a2.315,2.315,0,0,0-.626.181.977.977,0,0,0-.394.317.784.784,0,0,0-.136.461.719.719,0,0,0,.29.618A1.214,1.214,0,0,0,62.759-1.566Zm8.278-9.343V0h-2.6V-10.909ZM76.513.154A4.544,4.544,0,0,1,74.3-.354a3.459,3.459,0,0,1-1.428-1.454,4.768,4.768,0,0,1-.5-2.251,4.7,4.7,0,0,1,.5-2.219,3.637,3.637,0,0,1,1.412-1.481,4.193,4.193,0,0,1,2.147-.53,4.519,4.519,0,0,1,1.6.272,3.435,3.435,0,0,1,1.252.8A3.67,3.67,0,0,1,80.1-5.9,5.063,5.063,0,0,1,80.4-4.112v.65H73.285V-4.975h4.688a1.467,1.467,0,0,0-.2-.74,1.363,1.363,0,0,0-.525-.509,1.556,1.556,0,0,0-.764-.184,1.571,1.571,0,0,0-.783.194,1.476,1.476,0,0,0-.549.527,1.5,1.5,0,0,0-.213.754v1.539a1.859,1.859,0,0,0,.2.876,1.417,1.417,0,0,0,.559.583,1.706,1.706,0,0,0,.863.208,1.946,1.946,0,0,0,.629-.1,1.342,1.342,0,0,0,.485-.282,1.165,1.165,0,0,0,.3-.458l2.392.069a2.955,2.955,0,0,1-.653,1.4A3.306,3.306,0,0,1,78.4-.173,5.03,5.03,0,0,1,76.513.154ZM81.733,0V-8.182h2.53V-6.69h.085a2.229,2.229,0,0,1,.73-1.206,1.853,1.853,0,0,1,1.177-.4,3.006,3.006,0,0,1,.373.024,2.306,2.306,0,0,1,.357.072v2.264a2.487,2.487,0,0,0-.487-.1,4.407,4.407,0,0,0-.535-.037,1.691,1.691,0,0,0-.834.205,1.493,1.493,0,0,0-.581.57,1.682,1.682,0,0,0-.21.855V0ZM93.042-8.182v1.918H87.88V-8.182Zm-4.08-1.96h2.6v7.569a.829.829,0,0,0,.077.386.438.438,0,0,0,.226.208.938.938,0,0,0,.357.061,1.846,1.846,0,0,0,.317-.029q.168-.029.253-.051l.394,1.88Q93-.064,92.666.016a4.431,4.431,0,0,1-.807.1A3.777,3.777,0,0,1,90.29-.1a2.008,2.008,0,0,1-1-.807,2.494,2.494,0,0,1-.333-1.38ZM100.589.117a3.014,3.014,0,0,1-1.646-.469,3.245,3.245,0,0,1-1.183-1.406,5.444,5.444,0,0,1-.442-2.328,5.384,5.384,0,0,1,.458-2.376,3.2,3.2,0,0,1,1.2-1.38,3.049,3.049,0,0,1,1.6-.447,2.518,2.518,0,0,1,1.1.221,2.3,2.3,0,0,1,.756.567,2.671,2.671,0,0,1,.453.719h.053v-4.128h2.6V0h-2.578V-1.326h-.08a2.558,2.558,0,0,1-.469.708,2.263,2.263,0,0,1-.759.533A2.625,2.625,0,0,1,100.589.117Zm.906-2.029a1.254,1.254,0,0,0,.81-.269,1.7,1.7,0,0,0,.517-.759A3.316,3.316,0,0,0,103-4.091a3.35,3.35,0,0,0-.178-1.156,1.619,1.619,0,0,0-.517-.746,1.29,1.29,0,0,0-.812-.261,1.278,1.278,0,0,0-.82.266,1.629,1.629,0,0,0-.509.751,3.408,3.408,0,0,0-.173,1.145,3.408,3.408,0,0,0,.176,1.151,1.673,1.673,0,0,0,.509.759A1.259,1.259,0,0,0,101.5-1.912ZM111.025.154a4.544,4.544,0,0,1-2.213-.509,3.459,3.459,0,0,1-1.428-1.454,4.768,4.768,0,0,1-.5-2.251,4.7,4.7,0,0,1,.5-2.219A3.637,3.637,0,0,1,108.8-7.758a4.193,4.193,0,0,1,2.147-.53,4.519,4.519,0,0,1,1.6.272,3.435,3.435,0,0,1,1.252.8,3.67,3.67,0,0,1,.82,1.313,5.063,5.063,0,0,1,.293,1.787v.65H107.8V-4.975h4.688a1.467,1.467,0,0,0-.2-.74,1.363,1.363,0,0,0-.525-.509A1.556,1.556,0,0,0,111-6.408a1.571,1.571,0,0,0-.783.194,1.476,1.476,0,0,0-.549.527,1.5,1.5,0,0,0-.213.754v1.539a1.859,1.859,0,0,0,.2.876,1.417,1.417,0,0,0,.559.583,1.706,1.706,0,0,0,.863.208,1.946,1.946,0,0,0,.629-.1,1.342,1.342,0,0,0,.485-.282,1.165,1.165,0,0,0,.3-.458l2.392.069a2.955,2.955,0,0,1-.653,1.4,3.306,3.306,0,0,1-1.318.922A5.03,5.03,0,0,1,111.025.154Zm12.933-8.336L121.151,0h-2.983l-2.8-8.182h2.743l1.507,5.636h.085l1.513-5.636ZM128.512.154A4.544,4.544,0,0,1,126.3-.354a3.459,3.459,0,0,1-1.428-1.454,4.768,4.768,0,0,1-.5-2.251,4.7,4.7,0,0,1,.5-2.219,3.637,3.637,0,0,1,1.412-1.481,4.193,4.193,0,0,1,2.147-.53,4.519,4.519,0,0,1,1.6.272,3.435,3.435,0,0,1,1.252.8A3.67,3.67,0,0,1,132.1-5.9a5.063,5.063,0,0,1,.293,1.787v.65h-7.111V-4.975h4.687a1.467,1.467,0,0,0-.2-.74,1.363,1.363,0,0,0-.525-.509,1.555,1.555,0,0,0-.764-.184,1.571,1.571,0,0,0-.783.194,1.476,1.476,0,0,0-.549.527,1.5,1.5,0,0,0-.213.754v1.539a1.859,1.859,0,0,0,.2.876,1.417,1.417,0,0,0,.559.583,1.706,1.706,0,0,0,.863.208,1.946,1.946,0,0,0,.629-.1,1.342,1.342,0,0,0,.485-.282,1.165,1.165,0,0,0,.3-.458l2.392.069a2.954,2.954,0,0,1-.653,1.4,3.306,3.306,0,0,1-1.318.922A5.03,5.03,0,0,1,128.512.154Zm7.825-11.064V0h-2.6V-10.909ZM141.808.154a4.377,4.377,0,0,1-2.213-.53,3.6,3.6,0,0,1-1.422-1.481,4.691,4.691,0,0,1-.5-2.208,4.7,4.7,0,0,1,.5-2.213,3.6,3.6,0,0,1,1.422-1.481,4.377,4.377,0,0,1,2.213-.53,4.378,4.378,0,0,1,2.213.53,3.6,3.6,0,0,1,1.422,1.481,4.7,4.7,0,0,1,.5,2.213,4.691,4.691,0,0,1-.5,2.208,3.6,3.6,0,0,1-1.422,1.481A4.378,4.378,0,0,1,141.808.154Zm.016-1.966a1.155,1.155,0,0,0,.794-.288,1.818,1.818,0,0,0,.5-.8,3.686,3.686,0,0,0,.173-1.183,3.723,3.723,0,0,0-.173-1.193,1.818,1.818,0,0,0-.5-.8,1.155,1.155,0,0,0-.794-.288,1.207,1.207,0,0,0-.818.288,1.783,1.783,0,0,0-.506.8,3.724,3.724,0,0,0-.173,1.193A3.686,3.686,0,0,0,140.5-2.9a1.783,1.783,0,0,0,.506.8A1.207,1.207,0,0,0,141.824-1.811Zm5.455,4.879V-8.182h2.578v1.4h.08a2.822,2.822,0,0,1,.455-.719,2.266,2.266,0,0,1,.756-.567,2.535,2.535,0,0,1,1.105-.221,3.04,3.04,0,0,1,1.6.447,3.2,3.2,0,0,1,1.2,1.38,5.384,5.384,0,0,1,.458,2.376,5.473,5.473,0,0,1-.439,2.328,3.221,3.221,0,0,1-1.183,1.406,3.027,3.027,0,0,1-1.649.469,2.606,2.606,0,0,1-1.071-.2,2.3,2.3,0,0,1-.759-.533,2.53,2.53,0,0,1-.471-.708h-.053V3.068Zm2.551-7.159a3.361,3.361,0,0,0,.178,1.151,1.672,1.672,0,0,0,.517.759,1.265,1.265,0,0,0,.812.269,1.262,1.262,0,0,0,.815-.269,1.646,1.646,0,0,0,.509-.759,3.455,3.455,0,0,0,.173-1.151,3.408,3.408,0,0,0-.173-1.145,1.639,1.639,0,0,0-.506-.751,1.267,1.267,0,0,0-.818-.266,1.287,1.287,0,0,0-.815.261,1.628,1.628,0,0,0-.514.746A3.351,3.351,0,0,0,149.83-4.091ZM156.877,0V-8.182h2.477v1.5h.091a2.328,2.328,0,0,1,.863-1.177,2.436,2.436,0,0,1,1.449-.431,2.433,2.433,0,0,1,1.46.437,1.913,1.913,0,0,1,.772,1.172h.085a2.136,2.136,0,0,1,.895-1.169,2.787,2.787,0,0,1,1.571-.439,2.516,2.516,0,0,1,1.886.743,2.794,2.794,0,0,1,.724,2.037V0h-2.6V-4.911a1.285,1.285,0,0,0-.314-.935,1.088,1.088,0,0,0-.815-.322,1.065,1.065,0,0,0-.844.349,1.366,1.366,0,0,0-.306.935V0h-2.5V-4.938a1.265,1.265,0,0,0-.309-.9,1.064,1.064,0,0,0-.815-.33,1.115,1.115,0,0,0-.6.162,1.1,1.1,0,0,0-.407.461,1.578,1.578,0,0,0-.146.7V0Zm17.717.154a4.544,4.544,0,0,1-2.213-.509,3.459,3.459,0,0,1-1.428-1.454,4.768,4.768,0,0,1-.5-2.251,4.7,4.7,0,0,1,.5-2.219,3.637,3.637,0,0,1,1.412-1.481,4.193,4.193,0,0,1,2.147-.53,4.519,4.519,0,0,1,1.6.272,3.435,3.435,0,0,1,1.252.8,3.67,3.67,0,0,1,.82,1.313,5.063,5.063,0,0,1,.293,1.787v.65h-7.111V-4.975h4.688a1.467,1.467,0,0,0-.2-.74,1.363,1.363,0,0,0-.525-.509,1.555,1.555,0,0,0-.764-.184,1.571,1.571,0,0,0-.783.194,1.476,1.476,0,0,0-.549.527,1.5,1.5,0,0,0-.213.754v1.539a1.859,1.859,0,0,0,.2.876,1.417,1.417,0,0,0,.559.583,1.706,1.706,0,0,0,.863.208,1.946,1.946,0,0,0,.629-.1,1.342,1.342,0,0,0,.485-.282,1.165,1.165,0,0,0,.3-.458l2.392.069a2.954,2.954,0,0,1-.653,1.4,3.306,3.306,0,0,1-1.318.922A5.03,5.03,0,0,1,174.593.154Zm7.825-4.821V0h-2.6V-8.182h2.477v1.5h.091a2.311,2.311,0,0,1,.927-1.18,2.786,2.786,0,0,1,1.561-.429,2.835,2.835,0,0,1,1.5.386,2.639,2.639,0,0,1,.991,1.076,3.437,3.437,0,0,1,.349,1.611V0h-2.6V-4.7a1.507,1.507,0,0,0-.344-1.065,1.241,1.241,0,0,0-.967-.384,1.427,1.427,0,0,0-.722.178,1.2,1.2,0,0,0-.479.509A1.794,1.794,0,0,0,182.418-4.666Zm11.527-3.516v1.918h-5.162V-8.182Zm-4.08-1.96h2.6v7.569a.829.829,0,0,0,.077.386.437.437,0,0,0,.226.208.938.938,0,0,0,.357.061,1.846,1.846,0,0,0,.317-.029q.168-.029.253-.051l.394,1.88q-.186.053-.525.133a4.431,4.431,0,0,1-.807.1A3.777,3.777,0,0,1,191.194-.1a2.008,2.008,0,0,1-1-.807,2.494,2.494,0,0,1-.333-1.38Z" transform="translate(713 2224)" fill="#fff"/>
    <path id="Path_353" data-name="Path 353" d="M2.676,0,.286-8.727H1.1l1.977,7.5h.068l1.977-7.5h.92l1.977,7.5h.068l1.977-7.5h.814L8.484,0H7.632L5.608-7.4H5.553L3.528,0ZM14.195.136a2.877,2.877,0,0,1-1.585-.428,2.825,2.825,0,0,1-1.033-1.189,4.014,4.014,0,0,1-.364-1.754,4.059,4.059,0,0,1,.364-1.758A2.936,2.936,0,0,1,12.586-6.2a2.6,2.6,0,0,1,1.494-.437,2.788,2.788,0,0,1,1.027.194A2.553,2.553,0,0,1,16-5.849a2.841,2.841,0,0,1,.624,1,3.994,3.994,0,0,1,.23,1.425v.375H11.736v-.669h4.338a2.5,2.5,0,0,0-.254-1.136,2.012,2.012,0,0,0-.7-.8,1.853,1.853,0,0,0-1.038-.294,1.857,1.857,0,0,0-1.1.332,2.267,2.267,0,0,0-.739.878,2.724,2.724,0,0,0-.271,1.193v.4a3.2,3.2,0,0,0,.271,1.362,2.085,2.085,0,0,0,.769.9,2.14,2.14,0,0,0,1.18.32A2.13,2.13,0,0,0,15.011-.7a1.756,1.756,0,0,0,.592-.39,1.715,1.715,0,0,0,.364-.539l.72.234a2.134,2.134,0,0,1-.488.763,2.5,2.5,0,0,1-.844.56A2.992,2.992,0,0,1,14.195.136Zm9.524.013a2.5,2.5,0,0,1-1.082-.232,1.873,1.873,0,0,1-.78-.673,1.909,1.909,0,0,1-.29-1.072,1.675,1.675,0,0,1,.183-.818,1.492,1.492,0,0,1,.52-.545,2.877,2.877,0,0,1,.8-.337,7.411,7.411,0,0,1,1.014-.192q.55-.068.931-.119A1.7,1.7,0,0,0,25.594-4a.378.378,0,0,0,.2-.358v-.153a1.4,1.4,0,0,0-.4-1.055,1.579,1.579,0,0,0-1.144-.386,1.97,1.97,0,0,0-1.153.311,1.719,1.719,0,0,0-.624.733l-.72-.26a2.141,2.141,0,0,1,.614-.859,2.466,2.466,0,0,1,.878-.464,3.474,3.474,0,0,1,.984-.143,3.338,3.338,0,0,1,.782.1,2.252,2.252,0,0,1,.756.339,1.758,1.758,0,0,1,.567.669,2.389,2.389,0,0,1,.217,1.085V0h-.759V-1.036h-.047a2.06,2.06,0,0,1-.4.563,2.1,2.1,0,0,1-.673.447A2.384,2.384,0,0,1,23.719.149Zm.1-.695a1.984,1.984,0,0,0,1.048-.268,1.853,1.853,0,0,0,.684-.714,2.032,2.032,0,0,0,.241-.982v-.946a.753.753,0,0,1-.283.145,3.819,3.819,0,0,1-.456.113q-.258.049-.513.083l-.46.06a4.25,4.25,0,0,0-.946.213,1.373,1.373,0,0,0-.6.4.989.989,0,0,0-.209.65,1.094,1.094,0,0,0,.426.923A1.709,1.709,0,0,0,23.821-.545Zm7.3.682A2.664,2.664,0,0,1,29.6-.3a2.9,2.9,0,0,1-1.008-1.2,4.047,4.047,0,0,1-.358-1.739A4.035,4.035,0,0,1,28.6-4.994a2.932,2.932,0,0,1,1.012-1.2,2.626,2.626,0,0,1,1.5-.437,2.731,2.731,0,0,1,1.189.254,2.358,2.358,0,0,1,.88.712A2.284,2.284,0,0,1,33.618-4.6h-.767a1.709,1.709,0,0,0-.573-.948,1.694,1.694,0,0,0-1.153-.394,1.877,1.877,0,0,0-1.108.339,2.242,2.242,0,0,0-.752.942,3.379,3.379,0,0,0-.271,1.4,3.523,3.523,0,0,0,.264,1.408A2.242,2.242,0,0,0,30-.9a1.871,1.871,0,0,0,1.123.345,1.894,1.894,0,0,0,.795-.164,1.645,1.645,0,0,0,.605-.467,1.648,1.648,0,0,0,.33-.72h.767A2.338,2.338,0,0,1,33.2-.854a2.331,2.331,0,0,1-.865.727A2.684,2.684,0,0,1,31.125.136ZM36-4.091V0h-.759V-8.727H36v3.209h.068a1.83,1.83,0,0,1,.714-.81,2.273,2.273,0,0,1,1.225-.3,2.411,2.411,0,0,1,1.168.273,1.9,1.9,0,0,1,.784.805,2.785,2.785,0,0,1,.281,1.313V0h-.763V-4.193a1.762,1.762,0,0,0-.45-1.276,1.605,1.605,0,0,0-1.212-.467,1.928,1.928,0,0,0-.933.222,1.619,1.619,0,0,0-.646.637A1.962,1.962,0,0,0,36-4.091ZM42.256,0V-6.545h.763V0Zm.388-7.67a.559.559,0,0,1-.4-.16.513.513,0,0,1-.168-.386.513.513,0,0,1,.168-.386.559.559,0,0,1,.4-.16.564.564,0,0,1,.4.16.513.513,0,0,1,.168.386.513.513,0,0,1-.168.386A.564.564,0,0,1,42.643-7.67ZM47.676.136a2.877,2.877,0,0,1-1.585-.428,2.825,2.825,0,0,1-1.033-1.189,4.014,4.014,0,0,1-.364-1.754,4.059,4.059,0,0,1,.364-1.758A2.936,2.936,0,0,1,46.067-6.2a2.6,2.6,0,0,1,1.494-.437,2.788,2.788,0,0,1,1.027.194,2.553,2.553,0,0,1,.888.592,2.841,2.841,0,0,1,.624,1,3.994,3.994,0,0,1,.23,1.425v.375H45.217v-.669h4.338A2.5,2.5,0,0,0,49.3-4.852a2.012,2.012,0,0,0-.7-.8,1.853,1.853,0,0,0-1.038-.294,1.857,1.857,0,0,0-1.1.332,2.267,2.267,0,0,0-.739.878,2.724,2.724,0,0,0-.271,1.193v.4a3.2,3.2,0,0,0,.271,1.362,2.085,2.085,0,0,0,.769.9,2.14,2.14,0,0,0,1.18.32A2.13,2.13,0,0,0,48.492-.7a1.756,1.756,0,0,0,.592-.39,1.715,1.715,0,0,0,.364-.539l.72.234a2.134,2.134,0,0,1-.488.763,2.5,2.5,0,0,1-.844.56A2.992,2.992,0,0,1,47.676.136Zm9.183-6.682L54.469,0h-.81L51.268-6.545h.822L54.034-1h.06l1.943-5.544ZM60.746.136a2.877,2.877,0,0,1-1.585-.428,2.825,2.825,0,0,1-1.033-1.189,4.014,4.014,0,0,1-.364-1.754,4.059,4.059,0,0,1,.364-1.758A2.936,2.936,0,0,1,59.137-6.2a2.6,2.6,0,0,1,1.494-.437,2.788,2.788,0,0,1,1.027.194,2.553,2.553,0,0,1,.888.592,2.841,2.841,0,0,1,.624,1,3.994,3.994,0,0,1,.23,1.425v.375H58.287v-.669h4.338a2.5,2.5,0,0,0-.254-1.136,2.012,2.012,0,0,0-.7-.8,1.853,1.853,0,0,0-1.038-.294,1.857,1.857,0,0,0-1.1.332,2.267,2.267,0,0,0-.739.878,2.724,2.724,0,0,0-.271,1.193v.4A3.2,3.2,0,0,0,58.8-1.779a2.085,2.085,0,0,0,.769.9,2.14,2.14,0,0,0,1.18.32A2.13,2.13,0,0,0,61.562-.7a1.756,1.756,0,0,0,.592-.39,1.715,1.715,0,0,0,.364-.539l.72.234a2.134,2.134,0,0,1-.488.763,2.5,2.5,0,0,1-.844.56A2.992,2.992,0,0,1,60.746.136ZM71.02-6.545v.661H67.9v-.661ZM68.872-8.114h.763v6.4a1.238,1.238,0,0,0,.141.641.783.783,0,0,0,.366.328,1.219,1.219,0,0,0,.482.1,1.467,1.467,0,0,0,.256-.019q.107-.019.188-.04l.162.686a1.97,1.97,0,0,1-.273.079,1.872,1.872,0,0,1-.4.036,1.85,1.85,0,0,1-.8-.183,1.572,1.572,0,0,1-.633-.545,1.559,1.559,0,0,1-.247-.9Zm4.764,4.023V0h-.759V-8.727h.759v3.209H73.7a1.83,1.83,0,0,1,.714-.81,2.273,2.273,0,0,1,1.225-.3,2.411,2.411,0,0,1,1.168.273,1.9,1.9,0,0,1,.784.805,2.785,2.785,0,0,1,.281,1.313V0h-.763V-4.193a1.762,1.762,0,0,0-.45-1.276,1.605,1.605,0,0,0-1.212-.467,1.928,1.928,0,0,0-.933.222,1.619,1.619,0,0,0-.646.637A1.962,1.962,0,0,0,73.636-4.091ZM82.526.136A2.877,2.877,0,0,1,80.94-.292a2.825,2.825,0,0,1-1.033-1.189,4.014,4.014,0,0,1-.364-1.754,4.059,4.059,0,0,1,.364-1.758A2.936,2.936,0,0,1,80.917-6.2a2.6,2.6,0,0,1,1.494-.437,2.788,2.788,0,0,1,1.027.194,2.553,2.553,0,0,1,.888.592,2.841,2.841,0,0,1,.624,1,3.994,3.994,0,0,1,.23,1.425v.375H80.067v-.669H84.4a2.5,2.5,0,0,0-.254-1.136,2.012,2.012,0,0,0-.7-.8,1.853,1.853,0,0,0-1.038-.294,1.857,1.857,0,0,0-1.1.332,2.267,2.267,0,0,0-.739.878,2.724,2.724,0,0,0-.271,1.193v.4a3.2,3.2,0,0,0,.271,1.362,2.085,2.085,0,0,0,.769.9,2.14,2.14,0,0,0,1.18.32A2.13,2.13,0,0,0,83.342-.7a1.756,1.756,0,0,0,.592-.39,1.715,1.715,0,0,0,.364-.539l.72.234a2.134,2.134,0,0,1-.488.763,2.5,2.5,0,0,1-.844.56A2.992,2.992,0,0,1,82.526.136ZM90.222,0V-6.545h.737V-5.54h.055a1.645,1.645,0,0,1,.684-.8,2.044,2.044,0,0,1,1.106-.3q.094,0,.209,0l.192.009v.771l-.179-.026a2.1,2.1,0,0,0-.277-.017,1.884,1.884,0,0,0-.91.215,1.623,1.623,0,0,0-.629.594,1.634,1.634,0,0,0-.23.865V0Zm4.287,0V-6.545h.763V0ZM94.9-7.67a.559.559,0,0,1-.4-.16.512.512,0,0,1-.168-.386A.512.512,0,0,1,94.5-8.6a.559.559,0,0,1,.4-.16.564.564,0,0,1,.4.16.512.512,0,0,1,.168.386.512.512,0,0,1-.168.386A.564.564,0,0,1,94.9-7.67ZM99.78,2.591a3.611,3.611,0,0,1-1.172-.173,2.543,2.543,0,0,1-.848-.471,2.25,2.25,0,0,1-.537-.669l.622-.409a2.342,2.342,0,0,0,.377.486,1.854,1.854,0,0,0,.618.4,2.465,2.465,0,0,0,.94.158,2.157,2.157,0,0,0,1.4-.435,1.639,1.639,0,0,0,.535-1.351V-1.351h-.068a2.541,2.541,0,0,1-.379.594,1.942,1.942,0,0,1-.646.492,2.224,2.224,0,0,1-.987.2,2.529,2.529,0,0,1-1.391-.388,2.631,2.631,0,0,1-.955-1.11,3.944,3.944,0,0,1-.347-1.724,4.227,4.227,0,0,1,.339-1.747,2.772,2.772,0,0,1,.948-1.176,2.431,2.431,0,0,1,1.419-.422,2.108,2.108,0,0,1,1,.211,1.947,1.947,0,0,1,.637.522,3.2,3.2,0,0,1,.377.605h.077V-6.545h.741V.17a2.44,2.44,0,0,1-.354,1.368,2.109,2.109,0,0,1-.963.795A3.525,3.525,0,0,1,99.78,2.591ZM99.729-.763a1.869,1.869,0,0,0,1.078-.3,1.922,1.922,0,0,0,.686-.876,3.514,3.514,0,0,0,.239-1.359,3.691,3.691,0,0,0-.234-1.362,2.143,2.143,0,0,0-.68-.937,1.731,1.731,0,0,0-1.089-.343,1.742,1.742,0,0,0-1.108.354,2.164,2.164,0,0,0-.682.952,3.7,3.7,0,0,0-.23,1.336,3.475,3.475,0,0,0,.234,1.323,1.993,1.993,0,0,0,.686.895A1.846,1.846,0,0,0,99.729-.763Zm5.523-3.328V0h-.759V-8.727h.759v3.209h.068a1.83,1.83,0,0,1,.714-.81,2.273,2.273,0,0,1,1.225-.3,2.411,2.411,0,0,1,1.168.273,1.9,1.9,0,0,1,.784.805,2.785,2.785,0,0,1,.281,1.313V0h-.763V-4.193a1.762,1.762,0,0,0-.45-1.276,1.605,1.605,0,0,0-1.212-.467,1.928,1.928,0,0,0-.933.222,1.619,1.619,0,0,0-.646.637A1.962,1.962,0,0,0,105.251-4.091Zm8.821-2.455v.661h-3.124v-.661Zm-2.148-1.568h.763v6.4a1.238,1.238,0,0,0,.141.641.783.783,0,0,0,.366.328,1.219,1.219,0,0,0,.482.1,1.467,1.467,0,0,0,.256-.019q.107-.019.188-.04l.162.686a1.97,1.97,0,0,1-.273.079,1.872,1.872,0,0,1-.4.036,1.85,1.85,0,0,1-.8-.183,1.572,1.572,0,0,1-.633-.545,1.559,1.559,0,0,1-.247-.9Zm12.311,1.568L121.845,0h-.81l-2.391-6.545h.822L121.411-1h.06l1.943-5.544ZM125.723,0V-6.545h.763V0Zm.388-7.67a.559.559,0,0,1-.4-.16.512.512,0,0,1-.168-.386.512.512,0,0,1,.168-.386.559.559,0,0,1,.4-.16.564.564,0,0,1,.4.16.512.512,0,0,1,.168.386.512.512,0,0,1-.168.386A.564.564,0,0,1,126.111-7.67Zm6.784,2.561-.695.2a1.827,1.827,0,0,0-.29-.533,1.319,1.319,0,0,0-.488-.379,1.75,1.75,0,0,0-.744-.141,1.786,1.786,0,0,0-1.091.315.97.97,0,0,0-.426.814.876.876,0,0,0,.292.684,2.124,2.124,0,0,0,.9.415l.989.243a2.457,2.457,0,0,1,1.234.635,1.525,1.525,0,0,1,.411,1.091,1.653,1.653,0,0,1-.307.984,2.047,2.047,0,0,1-.854.675,3.077,3.077,0,0,1-1.268.245A2.707,2.707,0,0,1,128.979-.3a1.953,1.953,0,0,1-.8-1.251l.729-.179a1.466,1.466,0,0,0,.552.882,1.806,1.806,0,0,0,1.085.3,1.962,1.962,0,0,0,1.206-.339,1.025,1.025,0,0,0,.452-.85.918.918,0,0,0-.264-.667,1.621,1.621,0,0,0-.8-.4l-1.07-.256a2.452,2.452,0,0,1-1.261-.648,1.56,1.56,0,0,1-.409-1.1,1.6,1.6,0,0,1,.294-.952,1.973,1.973,0,0,1,.81-.646,2.813,2.813,0,0,1,1.176-.234,2.329,2.329,0,0,1,1.438.407A2.257,2.257,0,0,1,132.895-5.109ZM134.659,0V-6.545h.763V0Zm.388-7.67a.559.559,0,0,1-.4-.16.513.513,0,0,1-.168-.386.513.513,0,0,1,.168-.386.559.559,0,0,1,.4-.16.564.564,0,0,1,.4.16.513.513,0,0,1,.168.386.513.513,0,0,1-.168.386A.564.564,0,0,1,135.047-7.67ZM137.591,0V-8.727h.763V-5.3h.068a2.87,2.87,0,0,1,.369-.605,1.953,1.953,0,0,1,.635-.522,2.1,2.1,0,0,1,1-.211,2.415,2.415,0,0,1,1.415.424,2.8,2.8,0,0,1,.95,1.185,4.294,4.294,0,0,1,.341,1.771,4.344,4.344,0,0,1-.339,1.777,2.8,2.8,0,0,1-.946,1.189,2.39,2.39,0,0,1-1.408.426,2.093,2.093,0,0,1-1-.213A1.974,1.974,0,0,1,138.8-.6a2.973,2.973,0,0,1-.375-.612h-.094V0Zm.75-3.268a3.874,3.874,0,0,0,.237,1.4,2.178,2.178,0,0,0,.682.959,1.7,1.7,0,0,0,1.08.347,1.715,1.715,0,0,0,1.1-.36,2.23,2.23,0,0,0,.686-.974,3.833,3.833,0,0,0,.234-1.376,3.769,3.769,0,0,0-.232-1.359,2.19,2.19,0,0,0-.684-.961,1.735,1.735,0,0,0-1.108-.356,1.724,1.724,0,0,0-1.085.343,2.138,2.138,0,0,0-.68.946A3.811,3.811,0,0,0,138.341-3.268ZM144.8,0V-6.545h.763V0Zm.388-7.67a.559.559,0,0,1-.4-.16.513.513,0,0,1-.168-.386.513.513,0,0,1,.168-.386.559.559,0,0,1,.4-.16.564.564,0,0,1,.4.16.513.513,0,0,1,.168.386.513.513,0,0,1-.168.386A.564.564,0,0,1,145.189-7.67Zm3.145-1.057V0h-.759V-8.727ZM150.345,0V-6.545h.763V0Zm.388-7.67a.559.559,0,0,1-.4-.16.513.513,0,0,1-.168-.386.513.513,0,0,1,.168-.386.559.559,0,0,1,.4-.16.564.564,0,0,1,.4.16.513.513,0,0,1,.168.386.513.513,0,0,1-.168.386A.564.564,0,0,1,150.733-7.67ZM155.7-6.545v.661h-3.124v-.661ZM153.55-8.114h.763v6.4a1.238,1.238,0,0,0,.141.641.783.783,0,0,0,.366.328,1.219,1.219,0,0,0,.482.1,1.467,1.467,0,0,0,.256-.019q.107-.019.188-.04l.162.686a1.97,1.97,0,0,1-.273.079,1.872,1.872,0,0,1-.4.036,1.85,1.85,0,0,1-.8-.183,1.573,1.573,0,0,1-.633-.545,1.559,1.559,0,0,1-.247-.9Zm4.4,10.564a1.984,1.984,0,0,1-.422-.043,1.656,1.656,0,0,1-.311-.094l.2-.673a1.337,1.337,0,0,0,.978.006,1.508,1.508,0,0,0,.667-.918L159.3.064l-2.408-6.609h.822L159.661-1h.06l1.943-5.544.827.013-2.774,7.568a2.741,2.741,0,0,1-.433.784,1.706,1.706,0,0,1-.59.473A1.719,1.719,0,0,1,157.947,2.45ZM168.8,0,166.82-6.545h.8l1.551,5.4h.055l1.547-5.4h.805l1.534,5.386h.06l1.551-5.386h.8L173.548,0h-.784l-1.551-5.365h-.081L169.581,0Zm8.216,0V-6.545h.763V0Zm.388-7.67a.559.559,0,0,1-.4-.16.513.513,0,0,1-.168-.386A.513.513,0,0,1,177-8.6a.559.559,0,0,1,.4-.16.564.564,0,0,1,.4.16.513.513,0,0,1,.168.386.513.513,0,0,1-.168.386A.564.564,0,0,1,177.4-7.67Zm4.964,1.125v.661h-3.124v-.661Zm-2.148-1.568h.763v6.4a1.238,1.238,0,0,0,.141.641.783.783,0,0,0,.366.328,1.219,1.219,0,0,0,.482.1,1.467,1.467,0,0,0,.256-.019q.107-.019.188-.04l.162.686a1.97,1.97,0,0,1-.273.079,1.872,1.872,0,0,1-.4.036,1.85,1.85,0,0,1-.8-.183,1.573,1.573,0,0,1-.633-.545,1.559,1.559,0,0,1-.247-.9Zm4.764,4.023V0h-.759V-8.727h.759v3.209h.068a1.83,1.83,0,0,1,.714-.81,2.273,2.273,0,0,1,1.225-.3,2.411,2.411,0,0,1,1.168.273,1.9,1.9,0,0,1,.784.805,2.785,2.785,0,0,1,.281,1.313V0h-.763V-4.193a1.762,1.762,0,0,0-.45-1.276,1.605,1.605,0,0,0-1.212-.467,1.928,1.928,0,0,0-.933.222,1.619,1.619,0,0,0-.646.637A1.962,1.962,0,0,0,184.982-4.091ZM193.768.136a2.65,2.65,0,0,1-1.5-.43,2.9,2.9,0,0,1-1.016-1.191,4,4,0,0,1-.366-1.758,4.053,4.053,0,0,1,.366-1.771,2.883,2.883,0,0,1,1.016-1.193,2.66,2.66,0,0,1,1.5-.428,2.64,2.64,0,0,1,1.5.43,2.922,2.922,0,0,1,1.016,1.193,4.019,4.019,0,0,1,.369,1.768,4,4,0,0,1-.366,1.758,2.9,2.9,0,0,1-1.016,1.191A2.65,2.65,0,0,1,193.768.136Zm0-.695a1.829,1.829,0,0,0,1.155-.366,2.28,2.28,0,0,0,.718-.976,3.567,3.567,0,0,0,.245-1.342,3.6,3.6,0,0,0-.245-1.347,2.307,2.307,0,0,0-.718-.984,1.815,1.815,0,0,0-1.155-.371,1.817,1.817,0,0,0-1.153.371,2.3,2.3,0,0,0-.72.984,3.6,3.6,0,0,0-.245,1.347A3.566,3.566,0,0,0,191.9-1.9a2.28,2.28,0,0,0,.718.976A1.829,1.829,0,0,0,193.768-.558ZM202.474-2.5V-6.545h.759V0h-.759V-1.087h-.06a2.006,2.006,0,0,1-.729.837,2.138,2.138,0,0,1-1.219.335,2.219,2.219,0,0,1-1.112-.275A1.917,1.917,0,0,1,198.592-1a2.811,2.811,0,0,1-.277-1.308v-4.24h.759v4.193a1.7,1.7,0,0,0,.452,1.234,1.543,1.543,0,0,0,1.159.467,1.822,1.822,0,0,0,.852-.213,1.759,1.759,0,0,0,.673-.624A1.835,1.835,0,0,0,202.474-2.5Zm5.339-4.044v.661H204.69v-.661Zm-2.148-1.568h.763v6.4a1.238,1.238,0,0,0,.141.641.783.783,0,0,0,.366.328,1.219,1.219,0,0,0,.482.1,1.467,1.467,0,0,0,.256-.019q.107-.019.188-.04l.162.686a1.97,1.97,0,0,1-.273.079,1.872,1.872,0,0,1-.4.036,1.85,1.85,0,0,1-.8-.183,1.573,1.573,0,0,1-.633-.545,1.559,1.559,0,0,1-.247-.9ZM3.558,15.136A2.664,2.664,0,0,1,2.031,14.7a2.9,2.9,0,0,1-1.008-1.2,4.047,4.047,0,0,1-.358-1.739,4.035,4.035,0,0,1,.364-1.751A2.932,2.932,0,0,1,2.041,8.8a2.626,2.626,0,0,1,1.5-.437,2.731,2.731,0,0,1,1.189.254,2.358,2.358,0,0,1,.88.712A2.284,2.284,0,0,1,6.051,10.4H5.284A1.7,1.7,0,0,0,3.558,9.055a1.877,1.877,0,0,0-1.108.339,2.242,2.242,0,0,0-.752.942,3.379,3.379,0,0,0-.271,1.4,3.523,3.523,0,0,0,.264,1.408,2.242,2.242,0,0,0,.744.957,1.871,1.871,0,0,0,1.123.345,1.894,1.894,0,0,0,.795-.164,1.624,1.624,0,0,0,.935-1.187h.767a2.318,2.318,0,0,1-1.285,1.781A2.684,2.684,0,0,1,3.558,15.136ZM7.679,15V8.455h.737V9.46h.055a1.645,1.645,0,0,1,.684-.8,2.044,2.044,0,0,1,1.106-.3q.094,0,.209,0l.192.009v.771l-.179-.026a2.1,2.1,0,0,0-.277-.017,1.884,1.884,0,0,0-.91.215,1.611,1.611,0,0,0-.859,1.46V15Zm6.72.136a2.877,2.877,0,0,1-1.585-.428,2.825,2.825,0,0,1-1.033-1.189,4.014,4.014,0,0,1-.364-1.754,4.059,4.059,0,0,1,.364-1.758A2.936,2.936,0,0,1,12.79,8.8a2.6,2.6,0,0,1,1.494-.437,2.788,2.788,0,0,1,1.027.194,2.553,2.553,0,0,1,.888.592,2.841,2.841,0,0,1,.624,1,3.994,3.994,0,0,1,.23,1.425v.375H11.94v-.669h4.338a2.5,2.5,0,0,0-.254-1.136,2.012,2.012,0,0,0-.7-.8,1.974,1.974,0,0,0-2.133.038,2.267,2.267,0,0,0-.739.878,2.724,2.724,0,0,0-.271,1.193v.4a3.2,3.2,0,0,0,.271,1.362,2.085,2.085,0,0,0,.769.9,2.352,2.352,0,0,0,2,.175,1.756,1.756,0,0,0,.592-.39,1.715,1.715,0,0,0,.364-.539l.72.234a2.134,2.134,0,0,1-.488.763,2.5,2.5,0,0,1-.844.56A2.992,2.992,0,0,1,14.4,15.136Zm6.149.013a2.5,2.5,0,0,1-1.082-.232,1.873,1.873,0,0,1-.78-.673,1.909,1.909,0,0,1-.29-1.072,1.675,1.675,0,0,1,.183-.818,1.492,1.492,0,0,1,.52-.545,2.877,2.877,0,0,1,.8-.337,7.411,7.411,0,0,1,1.014-.192q.55-.068.931-.119A1.7,1.7,0,0,0,22.423,11a.378.378,0,0,0,.2-.358v-.153a1.4,1.4,0,0,0-.4-1.055,1.579,1.579,0,0,0-1.144-.386,1.97,1.97,0,0,0-1.153.311,1.719,1.719,0,0,0-.624.733l-.72-.26a2.141,2.141,0,0,1,.614-.859,2.466,2.466,0,0,1,.878-.464,3.474,3.474,0,0,1,.984-.143,3.338,3.338,0,0,1,.782.1A2.252,2.252,0,0,1,22.6,8.8a1.758,1.758,0,0,1,.567.669,2.389,2.389,0,0,1,.217,1.085V15h-.759V13.964h-.047a2.06,2.06,0,0,1-.4.563,2.1,2.1,0,0,1-.673.447A2.384,2.384,0,0,1,20.548,15.149Zm.1-.695a1.984,1.984,0,0,0,1.048-.268,1.853,1.853,0,0,0,.684-.714,2.032,2.032,0,0,0,.241-.982v-.946a.753.753,0,0,1-.283.145,3.819,3.819,0,0,1-.456.113q-.258.049-.513.083l-.46.06a4.25,4.25,0,0,0-.946.213,1.373,1.373,0,0,0-.6.4.989.989,0,0,0-.209.65,1.094,1.094,0,0,0,.426.923A1.709,1.709,0,0,0,20.651,14.455Zm7.325-6v.661H24.852V8.455ZM25.828,6.886h.763v6.4a1.238,1.238,0,0,0,.141.641.783.783,0,0,0,.366.328,1.219,1.219,0,0,0,.482.1,1.467,1.467,0,0,0,.256-.019q.107-.019.188-.04l.162.686a1.97,1.97,0,0,1-.273.079,1.872,1.872,0,0,1-.4.036,1.85,1.85,0,0,1-.8-.183,1.518,1.518,0,0,1-.88-1.445ZM29.706,15V8.455h.763V15Zm.388-7.67a.559.559,0,0,1-.4-.16.526.526,0,0,1,0-.771.582.582,0,0,1,.8,0,.526.526,0,0,1,0,.771A.564.564,0,0,1,30.094,7.33Zm3.145,3.58V15H32.48V8.455h.737V9.482h.068A1.84,1.84,0,0,1,34,8.674a2.24,2.24,0,0,1,1.208-.3,2.375,2.375,0,0,1,1.161.275,1.9,1.9,0,0,1,.78.808,2.793,2.793,0,0,1,.279,1.308V15h-.759V10.807a1.764,1.764,0,0,0-.45-1.274,1.59,1.59,0,0,0-1.2-.469,1.861,1.861,0,0,0-.916.222,1.606,1.606,0,0,0-.633.637A1.991,1.991,0,0,0,33.239,10.909Zm8.693,6.682a3.61,3.61,0,0,1-1.172-.173,2.543,2.543,0,0,1-.848-.471,2.25,2.25,0,0,1-.537-.669L40,15.869a2.342,2.342,0,0,0,.377.486,1.854,1.854,0,0,0,.618.4,2.465,2.465,0,0,0,.94.158,2.157,2.157,0,0,0,1.4-.435,1.639,1.639,0,0,0,.535-1.351V13.649H43.8a2.541,2.541,0,0,1-.379.594,1.942,1.942,0,0,1-.646.492,2.224,2.224,0,0,1-.987.2,2.529,2.529,0,0,1-1.391-.388,2.631,2.631,0,0,1-.955-1.11A3.944,3.944,0,0,1,39.1,11.71a4.227,4.227,0,0,1,.339-1.747,2.772,2.772,0,0,1,.948-1.176A2.431,2.431,0,0,1,41.8,8.365a2.108,2.108,0,0,1,1,.211,1.946,1.946,0,0,1,.637.522,3.2,3.2,0,0,1,.377.605h.077V8.455h.741V15.17a2.44,2.44,0,0,1-.354,1.368,2.109,2.109,0,0,1-.963.795A3.525,3.525,0,0,1,41.932,17.591Zm-.051-3.354a1.869,1.869,0,0,0,1.078-.3,1.922,1.922,0,0,0,.686-.876,3.514,3.514,0,0,0,.239-1.359,3.691,3.691,0,0,0-.234-1.362,2.143,2.143,0,0,0-.68-.937,1.906,1.906,0,0,0-2.2.011,2.164,2.164,0,0,0-.682.952,3.7,3.7,0,0,0-.23,1.336,3.475,3.475,0,0,0,.234,1.323,1.993,1.993,0,0,0,.686.895A1.846,1.846,0,0,0,41.881,14.237Zm9.967.912a2.5,2.5,0,0,1-1.082-.232,1.873,1.873,0,0,1-.78-.673,1.909,1.909,0,0,1-.29-1.072,1.675,1.675,0,0,1,.183-.818,1.492,1.492,0,0,1,.52-.545,2.877,2.877,0,0,1,.8-.337,7.411,7.411,0,0,1,1.014-.192q.55-.068.931-.119A1.7,1.7,0,0,0,53.723,11a.378.378,0,0,0,.2-.358v-.153a1.4,1.4,0,0,0-.4-1.055,1.579,1.579,0,0,0-1.144-.386,1.97,1.97,0,0,0-1.153.311,1.719,1.719,0,0,0-.624.733l-.72-.26a2.141,2.141,0,0,1,.614-.859,2.466,2.466,0,0,1,.878-.464,3.474,3.474,0,0,1,.984-.143,3.338,3.338,0,0,1,.782.1A2.252,2.252,0,0,1,53.9,8.8a1.758,1.758,0,0,1,.567.669,2.389,2.389,0,0,1,.217,1.085V15h-.759V13.964h-.047a2.06,2.06,0,0,1-.4.563,2.1,2.1,0,0,1-.673.447A2.384,2.384,0,0,1,51.848,15.149Zm.1-.695A1.984,1.984,0,0,0,53,14.186a1.853,1.853,0,0,0,.684-.714,2.032,2.032,0,0,0,.241-.982v-.946a.753.753,0,0,1-.283.145,3.819,3.819,0,0,1-.456.113q-.258.049-.513.083l-.46.06a4.25,4.25,0,0,0-.946.213,1.373,1.373,0,0,0-.6.4.989.989,0,0,0-.209.65,1.094,1.094,0,0,0,.426.923A1.709,1.709,0,0,0,51.95,14.455Zm5.506-8.182V15H56.7V6.273Zm4.649,8.864a2.877,2.877,0,0,1-1.585-.428,2.825,2.825,0,0,1-1.033-1.189,4.014,4.014,0,0,1-.364-1.754,4.059,4.059,0,0,1,.364-1.758A2.936,2.936,0,0,1,60.5,8.8a2.6,2.6,0,0,1,1.494-.437,2.788,2.788,0,0,1,1.027.194,2.553,2.553,0,0,1,.888.592,2.841,2.841,0,0,1,.624,1,3.994,3.994,0,0,1,.23,1.425v.375H59.646v-.669h4.338a2.5,2.5,0,0,0-.254-1.136,2.012,2.012,0,0,0-.7-.8,1.974,1.974,0,0,0-2.133.038,2.267,2.267,0,0,0-.739.878,2.724,2.724,0,0,0-.271,1.193v.4a3.2,3.2,0,0,0,.271,1.362,2.085,2.085,0,0,0,.769.9,2.352,2.352,0,0,0,2,.175,1.756,1.756,0,0,0,.592-.39,1.715,1.715,0,0,0,.364-.539l.72.234a2.134,2.134,0,0,1-.488.763,2.5,2.5,0,0,1-.844.56A2.992,2.992,0,0,1,62.105,15.136ZM66.426,15V8.455h.737V9.46h.055a1.645,1.645,0,0,1,.684-.8,2.044,2.044,0,0,1,1.106-.3q.094,0,.209,0l.192.009v.771l-.179-.026a2.1,2.1,0,0,0-.277-.017,1.884,1.884,0,0,0-.91.215,1.611,1.611,0,0,0-.859,1.46V15Zm7.266-6.545v.661H70.568V8.455ZM71.544,6.886h.763v6.4a1.238,1.238,0,0,0,.141.641.783.783,0,0,0,.366.328,1.219,1.219,0,0,0,.482.1,1.467,1.467,0,0,0,.256-.019q.107-.019.188-.04l.162.686a1.97,1.97,0,0,1-.273.079,1.872,1.872,0,0,1-.4.036,1.85,1.85,0,0,1-.8-.183,1.518,1.518,0,0,1-.88-1.445Zm9.938,1.568v.661H78.264V8.455ZM79.27,15V7.534A1.506,1.506,0,0,1,80.156,6.1,1.958,1.958,0,0,1,81,5.911a2.2,2.2,0,0,1,.5.047,1.842,1.842,0,0,1,.313.1l-.222.665q-.085-.03-.209-.062a1.269,1.269,0,0,0-.311-.032A1.013,1.013,0,0,0,80.3,6.9a1.087,1.087,0,0,0-.268.788l0,7.283Zm5.386.149a2.5,2.5,0,0,1-1.082-.232,1.873,1.873,0,0,1-.78-.673,1.909,1.909,0,0,1-.29-1.072,1.675,1.675,0,0,1,.183-.818,1.492,1.492,0,0,1,.52-.545,2.877,2.877,0,0,1,.8-.337,7.411,7.411,0,0,1,1.014-.192q.55-.068.931-.119A1.7,1.7,0,0,0,86.531,11a.378.378,0,0,0,.2-.358v-.153a1.4,1.4,0,0,0-.4-1.055,1.579,1.579,0,0,0-1.144-.386,1.97,1.97,0,0,0-1.153.311,1.719,1.719,0,0,0-.624.733l-.72-.26a2.141,2.141,0,0,1,.614-.859,2.466,2.466,0,0,1,.878-.464,3.474,3.474,0,0,1,.984-.143,3.338,3.338,0,0,1,.782.1,2.252,2.252,0,0,1,.756.339,1.758,1.758,0,0,1,.567.669,2.389,2.389,0,0,1,.217,1.085V15h-.759V13.964h-.047a2.06,2.06,0,0,1-.4.563,2.1,2.1,0,0,1-.673.447A2.384,2.384,0,0,1,84.656,15.149Zm.1-.695a1.984,1.984,0,0,0,1.048-.268,1.853,1.853,0,0,0,.684-.714,2.032,2.032,0,0,0,.241-.982v-.946a.753.753,0,0,1-.283.145,3.819,3.819,0,0,1-.456.113q-.258.049-.513.083l-.46.06a4.25,4.25,0,0,0-.946.213,1.373,1.373,0,0,0-.6.4.989.989,0,0,0-.209.65,1.094,1.094,0,0,0,.426.923A1.709,1.709,0,0,0,84.759,14.455Zm7.325-6v.661H88.96V8.455ZM89.936,6.886H90.7v6.4a1.238,1.238,0,0,0,.141.641.783.783,0,0,0,.366.328,1.219,1.219,0,0,0,.482.1,1.467,1.467,0,0,0,.256-.019q.107-.019.188-.04l.162.686a1.97,1.97,0,0,1-.273.079,1.872,1.872,0,0,1-.4.036,1.85,1.85,0,0,1-.8-.183,1.518,1.518,0,0,1-.88-1.445ZM93.814,15V8.455h.763V15ZM94.2,7.33a.559.559,0,0,1-.4-.16.526.526,0,0,1,0-.771.582.582,0,0,1,.8,0,.526.526,0,0,1,0,.771A.564.564,0,0,1,94.2,7.33Zm4.884,10.261a3.611,3.611,0,0,1-1.172-.173,2.543,2.543,0,0,1-.848-.471,2.25,2.25,0,0,1-.537-.669l.622-.409a2.342,2.342,0,0,0,.377.486,1.854,1.854,0,0,0,.618.4,2.465,2.465,0,0,0,.94.158,2.157,2.157,0,0,0,1.4-.435,1.639,1.639,0,0,0,.535-1.351V13.649h-.068a2.541,2.541,0,0,1-.379.594,1.942,1.942,0,0,1-.646.492,2.224,2.224,0,0,1-.987.2,2.529,2.529,0,0,1-1.391-.388,2.631,2.631,0,0,1-.955-1.11,3.944,3.944,0,0,1-.347-1.724,4.227,4.227,0,0,1,.339-1.747,2.772,2.772,0,0,1,.948-1.176,2.431,2.431,0,0,1,1.419-.422,2.108,2.108,0,0,1,1,.211,1.947,1.947,0,0,1,.637.522,3.2,3.2,0,0,1,.377.605h.077V8.455h.741V15.17a2.44,2.44,0,0,1-.354,1.368,2.109,2.109,0,0,1-.963.795A3.525,3.525,0,0,1,99.085,17.591Zm-.051-3.354a1.869,1.869,0,0,0,1.078-.3,1.922,1.922,0,0,0,.686-.876,3.514,3.514,0,0,0,.239-1.359,3.691,3.691,0,0,0-.234-1.362,2.143,2.143,0,0,0-.68-.937,1.906,1.906,0,0,0-2.2.011,2.164,2.164,0,0,0-.682.952,3.7,3.7,0,0,0-.23,1.336,3.475,3.475,0,0,0,.234,1.323,1.993,1.993,0,0,0,.686.895A1.846,1.846,0,0,0,99.034,14.237Zm8.923-1.739V8.455h.759V15h-.759V13.913h-.06a2.006,2.006,0,0,1-.729.837,2.138,2.138,0,0,1-1.219.335,2.219,2.219,0,0,1-1.112-.275,1.917,1.917,0,0,1-.763-.808,2.811,2.811,0,0,1-.277-1.308V8.455h.759v4.193a1.7,1.7,0,0,0,.452,1.234,1.543,1.543,0,0,0,1.159.467,1.822,1.822,0,0,0,.852-.213,1.759,1.759,0,0,0,.673-.624A1.835,1.835,0,0,0,107.957,12.5Zm5.408,2.638a2.877,2.877,0,0,1-1.585-.428,2.825,2.825,0,0,1-1.033-1.189,4.014,4.014,0,0,1-.364-1.754,4.059,4.059,0,0,1,.364-1.758,2.936,2.936,0,0,1,1.01-1.206,2.6,2.6,0,0,1,1.494-.437,2.788,2.788,0,0,1,1.027.194,2.553,2.553,0,0,1,.888.592,2.841,2.841,0,0,1,.624,1,3.994,3.994,0,0,1,.23,1.425v.375h-5.114v-.669h4.338a2.5,2.5,0,0,0-.254-1.136,2.012,2.012,0,0,0-.7-.8,1.974,1.974,0,0,0-2.133.038,2.267,2.267,0,0,0-.739.878,2.724,2.724,0,0,0-.271,1.193v.4a3.2,3.2,0,0,0,.271,1.362,2.085,2.085,0,0,0,.769.9,2.352,2.352,0,0,0,2,.175,1.756,1.756,0,0,0,.592-.39,1.715,1.715,0,0,0,.364-.539l.72.234a2.134,2.134,0,0,1-.488.763,2.5,2.5,0,0,1-.844.56A2.992,2.992,0,0,1,113.365,15.136Z" transform="translate(713 2244)" fill="#fff"/>
    <g id="Group_20" data-name="Group 20">
      <path id="Path_328" data-name="Path 328" d="M801.578-3.218,768.653,76.1l88.289-7.618,99.667-17.721L968.833-63.968Z" transform="translate(-54.414 2117.885)" fill="#e8055d"/>
      <path id="Path_329" data-name="Path 329" d="M788.973,68.516l57.9,80.96,154.865-22.7,17.07-70.544-147-72.183Z" transform="translate(-80.758 2050.772)" fill="#fff"/>
      <g id="noun_Alert_1849137" transform="translate(794.775 2083)">
        <g id="Group_13" data-name="Group 13" transform="translate(0 0)">
          <g id="Group_12" data-name="Group 12">
            <path id="Path_330" data-name="Path 330" d="M54.274,0H4.175A4.175,4.175,0,0,0,0,4.175V79.324A4.175,4.175,0,0,0,4.175,83.5h50.1a4.175,4.175,0,0,0,4.175-4.175V4.175A4.175,4.175,0,0,0,54.274,0ZM4.175,2.783h50.1a1.392,1.392,0,0,1,1.392,1.392V16.7H2.783V4.175A1.392,1.392,0,0,1,4.175,2.783Zm50.1,77.932H4.175a1.392,1.392,0,0,1-1.392-1.392V19.483H55.666V79.324A1.392,1.392,0,0,1,54.274,80.715Z" transform="translate(0 0)" fill="#01293b"/>
            <path id="Path_331" data-name="Path 331" d="M24.525,41.05A12.525,12.525,0,1,0,12,28.525,12.525,12.525,0,0,0,24.525,41.05Zm0-22.266a9.741,9.741,0,1,1-9.741,9.741A9.741,9.741,0,0,1,24.525,18.783Z" transform="translate(4.7 6.266)" fill="#e9005d"/>
            <path id="Path_332" data-name="Path 332" d="M46.358,37H7.392a1.392,1.392,0,0,0,0,2.783H46.358a1.392,1.392,0,1,0,0-2.783Z" transform="translate(2.35 14.491)" fill="#01293b"/>
            <path id="Path_333" data-name="Path 333" d="M41.008,43.783a1.392,1.392,0,1,0,0-2.783H10.392a1.392,1.392,0,1,0,0,2.783Z" transform="translate(3.525 16.057)" fill="#01293b"/>
            <path id="Path_334" data-name="Path 334" d="M37.224,45H14.958a6.958,6.958,0,1,0,0,13.916H37.224a6.958,6.958,0,1,0,0-13.916Zm0,11.133H14.958a4.175,4.175,0,0,1,0-8.35H37.224a4.175,4.175,0,0,1,0,8.35Z" transform="translate(3.133 17.624)" fill="#e9005d"/>
            <path id="Path_335" data-name="Path 335" d="M32.091,49h-16.7a1.392,1.392,0,1,0,0,2.783h16.7a1.392,1.392,0,0,0,0-2.783Z" transform="translate(5.483 19.19)" fill="#01293b"/>
            <path id="Path_336" data-name="Path 336" d="M21.392,29.741a1.392,1.392,0,0,0,1.392-1.392V21.392a1.392,1.392,0,1,0-2.783,0V28.35A1.392,1.392,0,0,0,21.392,29.741Z" transform="translate(7.833 7.833)" fill="#01293b"/>
            <path id="Path_337" data-name="Path 337" d="M21.392,30.781a1.392,1.392,0,0,0,.529-.111,1.627,1.627,0,0,0,.459-.292,1.411,1.411,0,0,0,0-1.976,1.627,1.627,0,0,0-.459-.292A1.39,1.39,0,0,0,20.4,30.378,1.432,1.432,0,0,0,21.392,30.781Z" transform="translate(7.833 10.968)" fill="#01293b"/>
            <path id="Path_338" data-name="Path 338" d="M8.175,12.35A4.175,4.175,0,1,0,4,8.175,4.175,4.175,0,0,0,8.175,12.35Zm0-5.567A1.392,1.392,0,1,1,6.783,8.175,1.392,1.392,0,0,1,8.175,6.783Z" transform="translate(1.567 1.567)" fill="#01293b"/>
            <path id="Path_339" data-name="Path 339" d="M13.392,8.783H35.658a1.392,1.392,0,1,0,0-2.783H13.392a1.392,1.392,0,0,0,0,2.783Z" transform="translate(4.7 2.35)" fill="#e9005d"/>
            <path id="Path_340" data-name="Path 340" d="M34.392,6.783h4.175a1.392,1.392,0,1,0,0-2.783H34.392a1.392,1.392,0,0,0,0,2.783Z" transform="translate(12.924 1.567)" fill="#01293b"/>
            <path id="Path_341" data-name="Path 341" d="M34.392,9.783h4.175a1.392,1.392,0,1,0,0-2.783H34.392a1.392,1.392,0,0,0,0,2.783Z" transform="translate(12.924 2.741)" fill="#01293b"/>
          </g>
        </g>
      </g>
    </g>
  </g>
</svg>
