<svg xmlns="http://www.w3.org/2000/svg" width="243.784" height="212.261" viewBox="0 0 243.784 212.261">
  <g id="Group_15" data-name="Group 15" transform="translate(-140.109 -2033.807)">
    <g id="Group_8" data-name="Group 8" transform="translate(-1062.891 1808.726)">
      <path id="Path_2" data-name="Path 2" d="M762.629-11.194l38.614,66,157.938,66.563L997.7-61.072Z" transform="translate(440.371 309.159)" fill="#e8055d"/>
      <path id="Path_1" data-name="Path 1" d="M788.973,68.516,819.9,131.109l158.737,42.346,54.125-120.034-74.6-70.386Z" transform="translate(414.027 242.046)" fill="#fff"/>
    </g>
    <circle id="Ellipse_85" data-name="Ellipse 85" cx="13.5" cy="13.5" r="13.5" transform="translate(152 2050)" fill="#e8055d"/>
    <path id="Path_348" data-name="Path 348" d="M7.8-14.545V0H4.29V-11.264H4.2L.952-9.276v-3.04l3.587-2.23Z" transform="translate(160 2071)" fill="#fff"/>
    <g id="noun_Video_Call_2765554" data-name="noun_Video Call_2765554" transform="translate(214.35 2087.79)">
      <g id="Group_11" data-name="Group 11" transform="translate(1.65 5.054)">
        <path id="Path_284" data-name="Path 284" d="M32.173,61.875H71.058a1.09,1.09,0,0,0,1.09-1.09V52.857A15.435,15.435,0,0,0,56.622,37.469a1.089,1.089,0,0,0-.971.6L51.6,46.011l-4.047-7.947a1.236,1.236,0,0,0-1.063-.6A15.417,15.417,0,0,0,31.083,52.857v7.928A1.09,1.09,0,0,0,32.173,61.875Zm1.09-9.018A13.249,13.249,0,0,1,45.926,39.664l4.707,9.242a1.135,1.135,0,0,0,1.942,0l4.71-9.247a13.225,13.225,0,0,1,12.683,13.2V59.7H65.3L64.4,52.724A1.089,1.089,0,1,0,62.237,53l.871,6.691H40.123L40.995,53a1.089,1.089,0,1,0-2.161-.281L37.926,59.7H33.262Z" transform="translate(11.678 9.625)" fill="#01293b"/>
        <path id="Path_285" data-name="Path 285" d="M48.3,42.966a9.936,9.936,0,1,0-9.914-9.936A9.947,9.947,0,0,0,48.3,42.966Zm0-17.692a7.756,7.756,0,1,1-7.735,7.756A7.765,7.765,0,0,1,48.3,25.274Z" transform="translate(14.985 3.115)" fill="#01293b"/>
        <path id="Path_286" data-name="Path 286" d="M25.37,7.68A1.729,1.729,0,1,0,27.1,9.409,1.727,1.727,0,0,0,25.37,7.68Z" transform="translate(8.308 -3.865)" fill="#e9005d"/>
        <path id="Path_287" data-name="Path 287" d="M71.236,8.12h-34a1.09,1.09,0,1,0,0,2.179h34a1.09,1.09,0,1,0,0-2.179Z" transform="translate(13.973 -3.665)" fill="#e9005d"/>
        <path id="Path_288" data-name="Path 288" d="M2.74,52.9h8.8v33.72a1.09,1.09,0,0,0,1.09,1.09H93.106a1.09,1.09,0,0,0,1.09-1.09c0-12.956,0,37.255-.006-80.476a1.09,1.09,0,0,0-1.09-1.09H12.626a1.09,1.09,0,0,0-1.09,1.09c0,1.943,0-7.04.007,19.007H2.74a1.09,1.09,0,0,0-1.09,1.09V51.81A1.09,1.09,0,0,0,2.74,52.9ZM13.716,7.233H92.01v6.729H13.716Zm.007,8.909H92.016V85.53H13.723V52.9H16.57V81.593a1.09,1.09,0,0,0,1.09,1.09h70.4a1.09,1.09,0,0,0,1.09-1.09V20.08a1.09,1.09,0,0,0-1.09-1.09H17.66a1.09,1.09,0,0,0-1.09,1.09v5.07H13.723Zm16.1,42.335L36.91,52.9h7.5a1.09,1.09,0,0,0,1.09-1.09V26.24a1.09,1.09,0,0,0-1.09-1.09H18.75V21.17H86.974V80.5H18.75V52.9h9.313v4.722A1.093,1.093,0,0,0,29.826,58.477Zm-26-31.148H43.317V50.72H36.533a1.09,1.09,0,0,0-.674.233l-5.617,4.423V51.81a1.09,1.09,0,0,0-1.09-1.09H3.829Z" transform="translate(-1.65 -5.054)" fill="#01293b"/>
        <path id="Path_289" data-name="Path 289" d="M18.695,26h4.358a1.09,1.09,0,1,0,0-2.179H18.695a1.09,1.09,0,1,0,0,2.179Z" transform="translate(5.575 3.444)" fill="#e9005d"/>
        <path id="Path_290" data-name="Path 290" d="M24.695,26h4.027a1.09,1.09,0,0,0,0-2.179H24.695a1.09,1.09,0,1,0,0,2.179Z" transform="translate(8.292 3.444)" fill="#e9005d"/>
        <path id="Path_291" data-name="Path 291" d="M6.695,26h4.358a1.09,1.09,0,1,0,0-2.179H6.695a1.09,1.09,0,1,0,0,2.179Z" transform="translate(0.141 3.444)" fill="#e9005d"/>
        <path id="Path_292" data-name="Path 292" d="M12.695,26h4.358a1.09,1.09,0,1,0,0-2.179H12.695a1.09,1.09,0,1,0,0,2.179Z" transform="translate(2.858 3.444)" fill="#e9005d"/>
        <path id="Path_293" data-name="Path 293" d="M6.695,30.172h4.358a1.09,1.09,0,1,0,0-2.179H6.695a1.09,1.09,0,1,0,0,2.179Z" transform="translate(0.141 5.333)" fill="#01293b"/>
        <path id="Path_294" data-name="Path 294" d="M12.695,30.172h4.358a1.09,1.09,0,1,0,0-2.179H12.695a1.09,1.09,0,1,0,0,2.179Z" transform="translate(2.858 5.333)" fill="#01293b"/>
        <path id="Path_295" data-name="Path 295" d="M24.695,30.172h4.027a1.09,1.09,0,0,0,0-2.179H24.695a1.09,1.09,0,1,0,0,2.179Z" transform="translate(8.292 5.333)" fill="#01293b"/>
        <path id="Path_296" data-name="Path 296" d="M18.695,30.172h4.358a1.09,1.09,0,1,0,0-2.179H18.695a1.09,1.09,0,1,0,0,2.179Z" transform="translate(5.575 5.333)" fill="#01293b"/>
        <path id="Path_297" data-name="Path 297" d="M18.695,34.343h4.358a1.09,1.09,0,0,0,0-2.179H18.695a1.09,1.09,0,0,0,0,2.179Z" transform="translate(5.575 7.222)" fill="#e9005d"/>
        <path id="Path_298" data-name="Path 298" d="M24.695,34.343h4.027a1.09,1.09,0,0,0,0-2.179H24.695a1.09,1.09,0,1,0,0,2.179Z" transform="translate(8.292 7.222)" fill="#e9005d"/>
        <path id="Path_299" data-name="Path 299" d="M12.143,33.254a1.09,1.09,0,0,0-1.09-1.09H6.695a1.09,1.09,0,0,0,0,2.179h4.358A1.09,1.09,0,0,0,12.143,33.254Z" transform="translate(0.141 7.222)" fill="#e9005d"/>
        <path id="Path_300" data-name="Path 300" d="M12.695,34.343h4.358a1.09,1.09,0,0,0,0-2.179H12.695a1.09,1.09,0,0,0,0,2.179Z" transform="translate(2.858 7.222)" fill="#e9005d"/>
      </g>
    </g>
    <path id="Path_347" data-name="Path 347" d="M.826,0V-10.909H5.375a5.34,5.34,0,0,1,2.053.346,2.7,2.7,0,0,1,1.246.969A2.53,2.53,0,0,1,9.093-8.15a2.316,2.316,0,0,1-.261,1.111,2.29,2.29,0,0,1-.719.807,2.873,2.873,0,0,1-1.06.447v.107a2.664,2.664,0,0,1,1.222.357,2.473,2.473,0,0,1,.9.9,2.641,2.641,0,0,1,.341,1.366,2.819,2.819,0,0,1-.447,1.569A3.024,3.024,0,0,1,7.777-.4,4.82,4.82,0,0,1,5.721,0ZM3.462-2.125h1.63A2.018,2.018,0,0,0,6.357-2.45a1.093,1.093,0,0,0,.407-.906,1.314,1.314,0,0,0-.2-.727,1.291,1.291,0,0,0-.559-.474,2.053,2.053,0,0,0-.868-.168H3.462Zm0-4.3h1.46a1.931,1.931,0,0,0,.767-.144,1.2,1.2,0,0,0,.525-.415A1.118,1.118,0,0,0,6.4-7.638,1.049,1.049,0,0,0,6.014-8.5a1.621,1.621,0,0,0-1.049-.314h-1.5ZM14.606.154a4.377,4.377,0,0,1-2.213-.53A3.6,3.6,0,0,1,10.97-1.856a4.691,4.691,0,0,1-.5-2.208,4.7,4.7,0,0,1,.5-2.213,3.6,3.6,0,0,1,1.422-1.481,4.377,4.377,0,0,1,2.213-.53,4.377,4.377,0,0,1,2.213.53,3.6,3.6,0,0,1,1.422,1.481,4.7,4.7,0,0,1,.5,2.213,4.691,4.691,0,0,1-.5,2.208A3.6,3.6,0,0,1,16.819-.376,4.377,4.377,0,0,1,14.606.154Zm.016-1.966a1.155,1.155,0,0,0,.794-.288,1.818,1.818,0,0,0,.5-.8,3.686,3.686,0,0,0,.173-1.183,3.724,3.724,0,0,0-.173-1.193,1.818,1.818,0,0,0-.5-.8,1.155,1.155,0,0,0-.794-.288,1.207,1.207,0,0,0-.818.288,1.783,1.783,0,0,0-.506.8,3.724,3.724,0,0,0-.173,1.193A3.686,3.686,0,0,0,13.3-2.9a1.783,1.783,0,0,0,.506.8A1.207,1.207,0,0,0,14.622-1.811ZM23.9.154a4.377,4.377,0,0,1-2.213-.53A3.6,3.6,0,0,1,20.26-1.856a4.691,4.691,0,0,1-.5-2.208,4.7,4.7,0,0,1,.5-2.213,3.6,3.6,0,0,1,1.422-1.481,4.377,4.377,0,0,1,2.213-.53,4.377,4.377,0,0,1,2.213.53,3.6,3.6,0,0,1,1.422,1.481,4.7,4.7,0,0,1,.5,2.213,4.691,4.691,0,0,1-.5,2.208A3.6,3.6,0,0,1,26.109-.376,4.377,4.377,0,0,1,23.9.154Zm.016-1.966a1.155,1.155,0,0,0,.794-.288,1.818,1.818,0,0,0,.5-.8,3.686,3.686,0,0,0,.173-1.183A3.724,3.724,0,0,0,25.2-5.273a1.818,1.818,0,0,0-.5-.8,1.155,1.155,0,0,0-.794-.288,1.207,1.207,0,0,0-.818.288,1.783,1.783,0,0,0-.506.8,3.724,3.724,0,0,0-.173,1.193A3.686,3.686,0,0,0,22.588-2.9a1.783,1.783,0,0,0,.506.8A1.207,1.207,0,0,0,23.912-1.811Zm7.8-.336.011-3.105h.362l2.3-2.93H37.34l-3.42,4.2h-.687ZM29.366,0V-10.909h2.6V0Zm5.082,0L32.306-3.4l1.715-1.848L37.457,0Zm9.364.138a3.442,3.442,0,0,1-1.388-.264,2.124,2.124,0,0,1-.953-.8,2.416,2.416,0,0,1-.349-1.345,2.507,2.507,0,0,1,.24-1.151,2.048,2.048,0,0,1,.661-.762,3.153,3.153,0,0,1,.969-.445,6.448,6.448,0,0,1,1.172-.205q.7-.064,1.124-.136a1.576,1.576,0,0,0,.621-.208.443.443,0,0,0,.194-.386v-.027a.762.762,0,0,0-.282-.634,1.193,1.193,0,0,0-.762-.224,1.4,1.4,0,0,0-.831.224.986.986,0,0,0-.4.618l-2.4-.085a2.843,2.843,0,0,1,.551-1.334A2.981,2.981,0,0,1,43.2-7.95a4.706,4.706,0,0,1,1.878-.338,5.372,5.372,0,0,1,1.444.184,3.653,3.653,0,0,1,1.151.533,2.457,2.457,0,0,1,.759.855A2.425,2.425,0,0,1,48.7-5.561V0h-2.45V-1.14h-.064a2.341,2.341,0,0,1-.557.7,2.26,2.26,0,0,1-.794.431A3.4,3.4,0,0,1,43.812.138Zm.8-1.7a1.663,1.663,0,0,0,.759-.17,1.394,1.394,0,0,0,.541-.471,1.225,1.225,0,0,0,.2-.7v-.778a1.571,1.571,0,0,1-.269.107q-.157.048-.344.091t-.384.075l-.378.059a2.315,2.315,0,0,0-.626.181.977.977,0,0,0-.394.317.784.784,0,0,0-.136.461.719.719,0,0,0,.29.618A1.214,1.214,0,0,0,44.616-1.566ZM56.506.117A3.014,3.014,0,0,1,54.86-.352a3.245,3.245,0,0,1-1.183-1.406,5.444,5.444,0,0,1-.442-2.328,5.384,5.384,0,0,1,.458-2.376,3.2,3.2,0,0,1,1.2-1.38,3.049,3.049,0,0,1,1.6-.447,2.518,2.518,0,0,1,1.1.221,2.3,2.3,0,0,1,.756.567,2.671,2.671,0,0,1,.453.719h.053v-4.128h2.6V0H58.887V-1.326h-.08a2.558,2.558,0,0,1-.469.708,2.263,2.263,0,0,1-.759.533A2.625,2.625,0,0,1,56.506.117Zm.906-2.029a1.254,1.254,0,0,0,.81-.269,1.7,1.7,0,0,0,.517-.759,3.316,3.316,0,0,0,.181-1.151,3.351,3.351,0,0,0-.178-1.156,1.619,1.619,0,0,0-.517-.746,1.29,1.29,0,0,0-.812-.261,1.278,1.278,0,0,0-.82.266,1.629,1.629,0,0,0-.509.751,3.408,3.408,0,0,0-.173,1.145,3.408,3.408,0,0,0,.176,1.151,1.674,1.674,0,0,0,.509.759A1.259,1.259,0,0,0,57.411-1.912ZM66.941.154a4.544,4.544,0,0,1-2.213-.509A3.459,3.459,0,0,1,63.3-1.808a4.768,4.768,0,0,1-.5-2.251,4.7,4.7,0,0,1,.5-2.219,3.637,3.637,0,0,1,1.412-1.481,4.193,4.193,0,0,1,2.147-.53,4.519,4.519,0,0,1,1.6.272,3.435,3.435,0,0,1,1.252.8,3.67,3.67,0,0,1,.82,1.313,5.063,5.063,0,0,1,.293,1.787v.65H63.713V-4.975H68.4a1.467,1.467,0,0,0-.2-.74,1.363,1.363,0,0,0-.525-.509,1.556,1.556,0,0,0-.764-.184,1.571,1.571,0,0,0-.783.194,1.476,1.476,0,0,0-.549.527,1.5,1.5,0,0,0-.213.754v1.539a1.859,1.859,0,0,0,.2.876,1.417,1.417,0,0,0,.559.583,1.706,1.706,0,0,0,.863.208,1.946,1.946,0,0,0,.629-.1A1.342,1.342,0,0,0,68.1-2.1a1.165,1.165,0,0,0,.3-.458l2.392.069a2.955,2.955,0,0,1-.653,1.4,3.306,3.306,0,0,1-1.318.922A5.03,5.03,0,0,1,66.941.154ZM72.161,0V-8.182h2.477v1.5h.091a2.328,2.328,0,0,1,.863-1.177,2.436,2.436,0,0,1,1.449-.431,2.433,2.433,0,0,1,1.46.437,1.914,1.914,0,0,1,.772,1.172h.085a2.137,2.137,0,0,1,.895-1.169,2.787,2.787,0,0,1,1.571-.439,2.516,2.516,0,0,1,1.886.743,2.794,2.794,0,0,1,.724,2.037V0h-2.6V-4.911a1.285,1.285,0,0,0-.314-.935,1.088,1.088,0,0,0-.815-.322,1.065,1.065,0,0,0-.844.349,1.366,1.366,0,0,0-.306.935V0h-2.5V-4.938a1.265,1.265,0,0,0-.309-.9,1.064,1.064,0,0,0-.815-.33,1.115,1.115,0,0,0-.6.162,1.1,1.1,0,0,0-.407.461,1.578,1.578,0,0,0-.146.7V0ZM89.872.154a4.378,4.378,0,0,1-2.213-.53,3.6,3.6,0,0,1-1.422-1.481,4.691,4.691,0,0,1-.5-2.208,4.7,4.7,0,0,1,.5-2.213,3.6,3.6,0,0,1,1.422-1.481,4.378,4.378,0,0,1,2.213-.53,4.377,4.377,0,0,1,2.213.53,3.6,3.6,0,0,1,1.422,1.481,4.7,4.7,0,0,1,.5,2.213,4.691,4.691,0,0,1-.5,2.208A3.6,3.6,0,0,1,92.085-.376,4.377,4.377,0,0,1,89.872.154Zm.016-1.966a1.155,1.155,0,0,0,.794-.288,1.818,1.818,0,0,0,.5-.8,3.686,3.686,0,0,0,.173-1.183,3.724,3.724,0,0,0-.173-1.193,1.818,1.818,0,0,0-.5-.8,1.155,1.155,0,0,0-.794-.288,1.207,1.207,0,0,0-.818.288,1.783,1.783,0,0,0-.506.8,3.724,3.724,0,0,0-.173,1.193A3.686,3.686,0,0,0,88.564-2.9a1.783,1.783,0,0,0,.506.8A1.207,1.207,0,0,0,89.888-1.811ZM2.354,19,.224,10.818H2.839l1.1,5.241h.069l1.183-5.241H7.745l1.214,5.2h.069l1.071-5.2h2.615L10.579,19H7.793L6.515,14.233H6.424L5.146,19Zm11.41,0V10.818h2.6V19Zm1.31-9.135a1.347,1.347,0,0,1-.948-.365,1.177,1.177,0,0,1,0-1.758,1.4,1.4,0,0,1,1.888,0,1.182,1.182,0,0,1,0,1.758A1.33,1.33,0,0,1,15.075,9.865Zm7.564.953v1.918H17.477V10.818Zm-4.08-1.96h2.6v7.569a.829.829,0,0,0,.077.386.438.438,0,0,0,.226.208.938.938,0,0,0,.357.061,1.846,1.846,0,0,0,.317-.029q.168-.029.253-.051l.394,1.88q-.186.053-.525.133a4.431,4.431,0,0,1-.807.1,3.777,3.777,0,0,1-1.569-.216,2.008,2.008,0,0,1-1-.807,2.494,2.494,0,0,1-.333-1.38Zm8.187,5.476V19h-2.6V8.091h2.52V12.32h.091a2.366,2.366,0,0,1,.908-1.183,2.7,2.7,0,0,1,1.547-.426,2.88,2.88,0,0,1,1.5.381,2.594,2.594,0,0,1,.993,1.073,3.466,3.466,0,0,1,.349,1.619V19h-2.6V14.3a1.514,1.514,0,0,0-.341-1.065,1.246,1.246,0,0,0-.975-.384,1.427,1.427,0,0,0-.722.178,1.23,1.23,0,0,0-.485.509A1.746,1.746,0,0,0,26.745,14.334Zm13.972,4.821a4.377,4.377,0,0,1-2.213-.53,3.6,3.6,0,0,1-1.422-1.481,4.691,4.691,0,0,1-.5-2.208,4.7,4.7,0,0,1,.5-2.213A3.6,3.6,0,0,1,38.5,11.242a4.886,4.886,0,0,1,4.426,0,3.6,3.6,0,0,1,1.422,1.481,4.7,4.7,0,0,1,.5,2.213,4.691,4.691,0,0,1-.5,2.208,3.6,3.6,0,0,1-1.422,1.481A4.377,4.377,0,0,1,40.717,19.154Zm.016-1.966a1.155,1.155,0,0,0,.794-.288,1.818,1.818,0,0,0,.5-.8A3.686,3.686,0,0,0,42.2,14.92a3.724,3.724,0,0,0-.173-1.193,1.818,1.818,0,0,0-.5-.8,1.155,1.155,0,0,0-.794-.288,1.207,1.207,0,0,0-.818.288,1.783,1.783,0,0,0-.506.8,3.724,3.724,0,0,0-.173,1.193A3.686,3.686,0,0,0,39.41,16.1a1.783,1.783,0,0,0,.506.8A1.207,1.207,0,0,0,40.733,17.189Zm10.733-1.721v-4.65h2.6V19H51.584V17.477H51.5a2.37,2.37,0,0,1-.924,1.191A2.752,2.752,0,0,1,49,19.107a2.784,2.784,0,0,1-1.47-.384,2.609,2.609,0,0,1-.985-1.073,3.562,3.562,0,0,1-.357-1.617V10.818h2.6v4.7a1.527,1.527,0,0,0,.352,1.049,1.206,1.206,0,0,0,.943.384,1.418,1.418,0,0,0,.7-.173,1.259,1.259,0,0,0,.5-.506A1.648,1.648,0,0,0,51.467,15.468ZM55.723,19V10.818h2.53V12.31h.085a2.229,2.229,0,0,1,.73-1.206,1.853,1.853,0,0,1,1.177-.4,3.006,3.006,0,0,1,.373.024,2.306,2.306,0,0,1,.357.072v2.264a2.487,2.487,0,0,0-.487-.1,4.407,4.407,0,0,0-.535-.037,1.691,1.691,0,0,0-.834.205,1.493,1.493,0,0,0-.581.57,1.681,1.681,0,0,0-.21.855V19Zm13.37.154a4.544,4.544,0,0,1-2.213-.509,3.459,3.459,0,0,1-1.428-1.454,4.768,4.768,0,0,1-.5-2.251,4.7,4.7,0,0,1,.5-2.219,3.637,3.637,0,0,1,1.412-1.481,4.193,4.193,0,0,1,2.147-.53,4.519,4.519,0,0,1,1.6.272,3.435,3.435,0,0,1,1.252.8,3.67,3.67,0,0,1,.82,1.313,5.063,5.063,0,0,1,.293,1.787v.65H65.865V14.025h4.688a1.467,1.467,0,0,0-.2-.74,1.363,1.363,0,0,0-.525-.509,1.556,1.556,0,0,0-.764-.184,1.571,1.571,0,0,0-.783.194,1.476,1.476,0,0,0-.549.527,1.5,1.5,0,0,0-.213.754v1.539a1.859,1.859,0,0,0,.2.876,1.417,1.417,0,0,0,.559.583,1.706,1.706,0,0,0,.863.208,1.946,1.946,0,0,0,.629-.1,1.342,1.342,0,0,0,.485-.282,1.165,1.165,0,0,0,.3-.458l2.392.069a2.955,2.955,0,0,1-.653,1.4,3.306,3.306,0,0,1-1.318.922A5.03,5.03,0,0,1,69.093,19.154Zm7.324-8.336,1.348,2.7,1.4-2.7h2.626L79.5,14.909,81.871,19h-2.6l-1.5-2.717L76.3,19H73.658l2.376-4.091-2.259-4.091Zm6.562,11.25V10.818h2.578v1.4h.08a2.822,2.822,0,0,1,.455-.719,2.267,2.267,0,0,1,.756-.567,2.535,2.535,0,0,1,1.105-.221,3.04,3.04,0,0,1,1.6.447,3.2,3.2,0,0,1,1.2,1.38,5.384,5.384,0,0,1,.458,2.376,5.473,5.473,0,0,1-.439,2.328,3.221,3.221,0,0,1-1.183,1.406,3.027,3.027,0,0,1-1.649.469,2.606,2.606,0,0,1-1.071-.2,2.3,2.3,0,0,1-.759-.533,2.53,2.53,0,0,1-.471-.708h-.053v4.395Zm2.551-7.159a3.361,3.361,0,0,0,.178,1.151,1.672,1.672,0,0,0,.517.759,1.365,1.365,0,0,0,1.627,0,1.646,1.646,0,0,0,.509-.759,3.456,3.456,0,0,0,.173-1.151,3.408,3.408,0,0,0-.173-1.145,1.639,1.639,0,0,0-.506-.751,1.267,1.267,0,0,0-.818-.266,1.287,1.287,0,0,0-.815.261,1.628,1.628,0,0,0-.514.746A3.35,3.35,0,0,0,85.531,14.909ZM96.4,19.154a4.544,4.544,0,0,1-2.213-.509,3.459,3.459,0,0,1-1.428-1.454,4.768,4.768,0,0,1-.5-2.251,4.7,4.7,0,0,1,.5-2.219,3.637,3.637,0,0,1,1.412-1.481,4.193,4.193,0,0,1,2.147-.53,4.519,4.519,0,0,1,1.6.272,3.435,3.435,0,0,1,1.252.8,3.67,3.67,0,0,1,.82,1.313,5.063,5.063,0,0,1,.293,1.787v.65H93.175V14.025h4.688a1.467,1.467,0,0,0-.2-.74,1.363,1.363,0,0,0-.525-.509,1.556,1.556,0,0,0-.764-.184,1.571,1.571,0,0,0-.783.194,1.476,1.476,0,0,0-.549.527,1.5,1.5,0,0,0-.213.754v1.539a1.859,1.859,0,0,0,.2.876,1.417,1.417,0,0,0,.559.583,1.706,1.706,0,0,0,.863.208,1.946,1.946,0,0,0,.629-.1,1.342,1.342,0,0,0,.485-.282,1.165,1.165,0,0,0,.3-.458l2.392.069a2.955,2.955,0,0,1-.653,1.4,3.306,3.306,0,0,1-1.318.922A5.03,5.03,0,0,1,96.4,19.154Zm5.22-.154V10.818h2.53V12.31h.085a2.229,2.229,0,0,1,.73-1.206,1.853,1.853,0,0,1,1.177-.4,3.006,3.006,0,0,1,.373.024,2.306,2.306,0,0,1,.357.072v2.264a2.487,2.487,0,0,0-.487-.1,4.407,4.407,0,0,0-.535-.037,1.691,1.691,0,0,0-.834.205,1.493,1.493,0,0,0-.581.57,1.681,1.681,0,0,0-.21.855V19Zm11.309-8.182v1.918H107.77V10.818Zm-4.08-1.96h2.6v7.569a.829.829,0,0,0,.077.386.438.438,0,0,0,.226.208.938.938,0,0,0,.357.061,1.846,1.846,0,0,0,.317-.029q.168-.029.253-.051l.394,1.88q-.186.053-.525.133a4.431,4.431,0,0,1-.807.1,3.777,3.777,0,0,1-1.569-.216,2.008,2.008,0,0,1-1-.807,2.494,2.494,0,0,1-.333-1.38Zm12.459,4.458-2.392.064a.907.907,0,0,0-.2-.455,1.128,1.128,0,0,0-.429-.314,1.706,1.706,0,0,0-1.38.067.536.536,0,0,0-.312.49.52.52,0,0,0,.194.415,1.615,1.615,0,0,0,.716.282l1.577.3a3.732,3.732,0,0,1,1.824.778,1.864,1.864,0,0,1,.6,1.438,2.317,2.317,0,0,1-.5,1.465,3.19,3.19,0,0,1-1.345.967,5.181,5.181,0,0,1-1.95.344,4.67,4.67,0,0,1-2.762-.722,2.675,2.675,0,0,1-1.153-1.936l2.573-.064a1,1,0,0,0,.442.682,1.629,1.629,0,0,0,.911.234,1.582,1.582,0,0,0,.815-.186.572.572,0,0,0,.32-.5.532.532,0,0,0-.245-.445,1.985,1.985,0,0,0-.751-.264l-1.428-.272a3.378,3.378,0,0,1-1.832-.828,2.076,2.076,0,0,1-.6-1.542,2.231,2.231,0,0,1,.437-1.4,2.753,2.753,0,0,1,1.257-.892,5.419,5.419,0,0,1,1.923-.309,4.385,4.385,0,0,1,2.621.7A2.506,2.506,0,0,1,121.31,13.316Z" transform="translate(157 2224)" fill="#fff"/>
  </g>
</svg>
