<svg xmlns="http://www.w3.org/2000/svg" width="243.784" height="230.122" viewBox="0 0 243.784 230.122">
  <g id="Group_24" data-name="Group 24" transform="translate(-983.608 -2031.469)">
    <g id="Group_22" data-name="Group 22">
      <circle id="Ellipse_88" data-name="Ellipse 88" cx="13.5" cy="13.5" r="13.5" transform="translate(995 2045)" fill="#e8055d"/>
      <path id="Path_355" data-name="Path 355" d="M.895-2.415V-5.156l5.959-9.389H9.29v3.722H7.876L4.389-5.3v.114h8.629v2.77ZM7.919,0V-3.253l.071-1.2V-14.545h3.288V0Z" transform="translate(1001 2066)" fill="#fff"/>
    </g>
    <g id="Group_23" data-name="Group 23">
      <path id="Path_357" data-name="Path 357" d="M.826,0V-10.909H5.332a4.744,4.744,0,0,1,2.117.439A3.206,3.206,0,0,1,8.826-9.213a3.728,3.728,0,0,1,.485,1.936,3.558,3.558,0,0,1-.5,1.926,3.142,3.142,0,0,1-1.406,1.2,5.19,5.19,0,0,1-2.157.413H2.4V-5.811h2.36a2.761,2.761,0,0,0,1-.157,1.234,1.234,0,0,0,.61-.479,1.5,1.5,0,0,0,.208-.828,1.559,1.559,0,0,0-.208-.839,1.27,1.27,0,0,0-.613-.5,2.607,2.607,0,0,0-1-.168h-1.3V0ZM6.967-4.986,9.684,0H6.808L4.144-4.986Zm9.066,1.454v-4.65h2.6V0H16.151V-1.523h-.085a2.37,2.37,0,0,1-.924,1.191,2.752,2.752,0,0,1-1.574.439A2.784,2.784,0,0,1,12.1-.277a2.609,2.609,0,0,1-.985-1.073,3.562,3.562,0,0,1-.357-1.617V-8.182h2.6v4.7a1.527,1.527,0,0,0,.352,1.049,1.206,1.206,0,0,0,.943.384,1.418,1.418,0,0,0,.7-.173,1.259,1.259,0,0,0,.5-.506A1.648,1.648,0,0,0,16.033-3.532Zm6.861-7.377V0h-2.6V-10.909ZM28.37.154a4.544,4.544,0,0,1-2.213-.509,3.459,3.459,0,0,1-1.428-1.454,4.768,4.768,0,0,1-.5-2.251,4.7,4.7,0,0,1,.5-2.219,3.637,3.637,0,0,1,1.412-1.481,4.193,4.193,0,0,1,2.147-.53,4.519,4.519,0,0,1,1.6.272,3.435,3.435,0,0,1,1.252.8A3.67,3.67,0,0,1,31.96-5.9a5.063,5.063,0,0,1,.293,1.787v.65H25.142V-4.975H29.83a1.467,1.467,0,0,0-.2-.74,1.363,1.363,0,0,0-.525-.509,1.556,1.556,0,0,0-.764-.184,1.571,1.571,0,0,0-.783.194,1.476,1.476,0,0,0-.549.527,1.5,1.5,0,0,0-.213.754v1.539a1.859,1.859,0,0,0,.2.876,1.417,1.417,0,0,0,.559.583,1.706,1.706,0,0,0,.863.208,1.946,1.946,0,0,0,.629-.1,1.342,1.342,0,0,0,.485-.282,1.165,1.165,0,0,0,.3-.458l2.392.069a2.955,2.955,0,0,1-.653,1.4,3.306,3.306,0,0,1-1.318.922A5.03,5.03,0,0,1,28.37.154ZM36.818,0V-8.182H39.3v1.5h.091a2.328,2.328,0,0,1,.863-1.177A2.436,2.436,0,0,1,41.7-8.288a2.433,2.433,0,0,1,1.46.437,1.913,1.913,0,0,1,.772,1.172h.085a2.136,2.136,0,0,1,.895-1.169,2.787,2.787,0,0,1,1.571-.439,2.516,2.516,0,0,1,1.886.743,2.794,2.794,0,0,1,.724,2.037V0h-2.6V-4.911a1.285,1.285,0,0,0-.314-.935,1.088,1.088,0,0,0-.815-.322,1.065,1.065,0,0,0-.844.349,1.366,1.366,0,0,0-.306.935V0H41.7V-4.938a1.265,1.265,0,0,0-.309-.9,1.064,1.064,0,0,0-.815-.33,1.115,1.115,0,0,0-.6.162,1.1,1.1,0,0,0-.407.461,1.578,1.578,0,0,0-.146.7V0Zm16.2.138a3.442,3.442,0,0,1-1.388-.264,2.124,2.124,0,0,1-.953-.8,2.416,2.416,0,0,1-.349-1.345,2.507,2.507,0,0,1,.24-1.151,2.048,2.048,0,0,1,.661-.762,3.153,3.153,0,0,1,.969-.445,6.448,6.448,0,0,1,1.172-.205q.7-.064,1.124-.136a1.576,1.576,0,0,0,.621-.208.443.443,0,0,0,.194-.386v-.027a.762.762,0,0,0-.282-.634,1.193,1.193,0,0,0-.762-.224,1.4,1.4,0,0,0-.831.224.986.986,0,0,0-.4.618l-2.4-.085a2.843,2.843,0,0,1,.551-1.334,2.981,2.981,0,0,1,1.225-.927,4.706,4.706,0,0,1,1.878-.338,5.372,5.372,0,0,1,1.444.184,3.653,3.653,0,0,1,1.151.533,2.457,2.457,0,0,1,.759.855,2.425,2.425,0,0,1,.269,1.156V0h-2.45V-1.14h-.064a2.341,2.341,0,0,1-.557.7,2.26,2.26,0,0,1-.794.431A3.4,3.4,0,0,1,53.017.138Zm.8-1.7a1.663,1.663,0,0,0,.759-.17,1.394,1.394,0,0,0,.541-.471,1.225,1.225,0,0,0,.2-.7v-.778a1.571,1.571,0,0,1-.269.107q-.157.048-.344.091t-.384.075l-.378.059a2.315,2.315,0,0,0-.626.181.977.977,0,0,0-.394.317.784.784,0,0,0-.136.461.719.719,0,0,0,.29.618A1.214,1.214,0,0,0,53.821-1.566ZM59.494,0V-8.182h2.6V0ZM60.8-9.135a1.347,1.347,0,0,1-.948-.365,1.158,1.158,0,0,1-.394-.882,1.152,1.152,0,0,1,.394-.876,1.34,1.34,0,0,1,.943-.365,1.337,1.337,0,0,1,.945.365,1.156,1.156,0,0,1,.392.876,1.161,1.161,0,0,1-.392.882A1.33,1.33,0,0,1,60.8-9.135Zm5.55,4.469V0h-2.6V-8.182h2.477v1.5h.091a2.311,2.311,0,0,1,.927-1.18,2.786,2.786,0,0,1,1.561-.429,2.835,2.835,0,0,1,1.5.386A2.639,2.639,0,0,1,71.3-6.826a3.437,3.437,0,0,1,.349,1.611V0h-2.6V-4.7A1.507,1.507,0,0,0,68.7-5.769a1.241,1.241,0,0,0-.967-.384,1.427,1.427,0,0,0-.722.178,1.2,1.2,0,0,0-.479.509A1.793,1.793,0,0,0,66.355-4.666ZM77.882-8.182v1.918H72.72V-8.182Zm-4.08-1.96h2.6v7.569a.829.829,0,0,0,.077.386.438.438,0,0,0,.226.208.938.938,0,0,0,.357.061,1.846,1.846,0,0,0,.317-.029q.168-.029.253-.051l.394,1.88q-.186.053-.525.133a4.431,4.431,0,0,1-.807.1A3.777,3.777,0,0,1,75.131-.1a2.008,2.008,0,0,1-1-.807,2.494,2.494,0,0,1-.333-1.38ZM82.953.154A4.544,4.544,0,0,1,80.74-.354a3.459,3.459,0,0,1-1.428-1.454,4.768,4.768,0,0,1-.5-2.251,4.7,4.7,0,0,1,.5-2.219,3.637,3.637,0,0,1,1.412-1.481,4.193,4.193,0,0,1,2.147-.53,4.519,4.519,0,0,1,1.6.272,3.435,3.435,0,0,1,1.252.8,3.67,3.67,0,0,1,.82,1.313,5.063,5.063,0,0,1,.293,1.787v.65H79.725V-4.975h4.688a1.467,1.467,0,0,0-.2-.74,1.363,1.363,0,0,0-.525-.509,1.556,1.556,0,0,0-.764-.184,1.571,1.571,0,0,0-.783.194,1.476,1.476,0,0,0-.549.527,1.5,1.5,0,0,0-.213.754v1.539a1.859,1.859,0,0,0,.2.876,1.417,1.417,0,0,0,.559.583A1.706,1.706,0,0,0,83-1.726a1.946,1.946,0,0,0,.629-.1,1.342,1.342,0,0,0,.485-.282,1.165,1.165,0,0,0,.3-.458l2.392.069a2.955,2.955,0,0,1-.653,1.4,3.306,3.306,0,0,1-1.318.922A5.03,5.03,0,0,1,82.953.154Zm7.825-4.821V0h-2.6V-8.182H90.65v1.5h.091a2.311,2.311,0,0,1,.927-1.18,2.786,2.786,0,0,1,1.561-.429,2.835,2.835,0,0,1,1.5.386,2.639,2.639,0,0,1,.991,1.076,3.437,3.437,0,0,1,.349,1.611V0h-2.6V-4.7a1.507,1.507,0,0,0-.344-1.065,1.241,1.241,0,0,0-.967-.384,1.427,1.427,0,0,0-.722.178,1.2,1.2,0,0,0-.479.509A1.793,1.793,0,0,0,90.778-4.666Zm9.215,4.8a3.442,3.442,0,0,1-1.388-.264,2.124,2.124,0,0,1-.953-.8A2.416,2.416,0,0,1,97.3-2.269a2.507,2.507,0,0,1,.24-1.151,2.048,2.048,0,0,1,.661-.762,3.153,3.153,0,0,1,.969-.445,6.448,6.448,0,0,1,1.172-.205q.7-.064,1.124-.136a1.576,1.576,0,0,0,.621-.208.443.443,0,0,0,.194-.386v-.027A.762.762,0,0,0,102-6.222a1.193,1.193,0,0,0-.762-.224,1.4,1.4,0,0,0-.831.224.986.986,0,0,0-.4.618l-2.4-.085a2.844,2.844,0,0,1,.551-1.334,2.981,2.981,0,0,1,1.225-.927,4.706,4.706,0,0,1,1.878-.338A5.372,5.372,0,0,1,102.7-8.1a3.653,3.653,0,0,1,1.151.533,2.457,2.457,0,0,1,.759.855,2.425,2.425,0,0,1,.269,1.156V0h-2.45V-1.14h-.064a2.341,2.341,0,0,1-.557.7,2.26,2.26,0,0,1-.794.431A3.4,3.4,0,0,1,99.993.138Zm.8-1.7a1.663,1.663,0,0,0,.759-.17,1.394,1.394,0,0,0,.541-.471,1.225,1.225,0,0,0,.2-.7v-.778a1.572,1.572,0,0,1-.269.107q-.157.048-.344.091t-.384.075l-.378.059a2.315,2.315,0,0,0-.626.181.977.977,0,0,0-.394.317.784.784,0,0,0-.136.461.719.719,0,0,0,.29.618A1.214,1.214,0,0,0,100.8-1.566Zm8.278-3.1V0h-2.6V-8.182h2.477v1.5h.091a2.311,2.311,0,0,1,.927-1.18,2.786,2.786,0,0,1,1.561-.429,2.835,2.835,0,0,1,1.5.386,2.639,2.639,0,0,1,.991,1.076,3.437,3.437,0,0,1,.349,1.611V0h-2.6V-4.7a1.507,1.507,0,0,0-.344-1.065,1.241,1.241,0,0,0-.967-.384,1.427,1.427,0,0,0-.722.178,1.2,1.2,0,0,0-.479.509A1.793,1.793,0,0,0,109.075-4.666ZM119.8.154a4.371,4.371,0,0,1-2.219-.533,3.6,3.6,0,0,1-1.42-1.483,4.7,4.7,0,0,1-.5-2.2,4.691,4.691,0,0,1,.5-2.208,3.612,3.612,0,0,1,1.422-1.483,4.349,4.349,0,0,1,2.208-.533,4.481,4.481,0,0,1,1.979.41A3.17,3.17,0,0,1,123.1-6.72a3.368,3.368,0,0,1,.5,1.755h-2.434a1.639,1.639,0,0,0-.423-.985,1.214,1.214,0,0,0-.908-.357,1.3,1.3,0,0,0-.794.253,1.621,1.621,0,0,0-.53.746,3.416,3.416,0,0,0-.189,1.217,3.461,3.461,0,0,0,.189,1.222,1.62,1.62,0,0,0,.53.751,1.3,1.3,0,0,0,.794.253,1.305,1.305,0,0,0,.642-.154,1.231,1.231,0,0,0,.461-.455,1.789,1.789,0,0,0,.229-.732H123.6a3.56,3.56,0,0,1-.5,1.768,3.139,3.139,0,0,1-1.305,1.175A4.413,4.413,0,0,1,119.8.154Zm8.96,0a4.544,4.544,0,0,1-2.213-.509,3.459,3.459,0,0,1-1.428-1.454,4.768,4.768,0,0,1-.5-2.251,4.7,4.7,0,0,1,.5-2.219,3.637,3.637,0,0,1,1.412-1.481,4.193,4.193,0,0,1,2.147-.53,4.519,4.519,0,0,1,1.6.272,3.435,3.435,0,0,1,1.252.8,3.67,3.67,0,0,1,.82,1.313,5.063,5.063,0,0,1,.293,1.787v.65h-7.111V-4.975h4.687a1.467,1.467,0,0,0-.2-.74,1.363,1.363,0,0,0-.525-.509,1.555,1.555,0,0,0-.764-.184,1.571,1.571,0,0,0-.783.194,1.476,1.476,0,0,0-.549.527,1.5,1.5,0,0,0-.213.754v1.539a1.859,1.859,0,0,0,.2.876,1.417,1.417,0,0,0,.559.583,1.706,1.706,0,0,0,.863.208,1.946,1.946,0,0,0,.629-.1,1.342,1.342,0,0,0,.485-.282,1.165,1.165,0,0,0,.3-.458l2.392.069a2.954,2.954,0,0,1-.653,1.4,3.306,3.306,0,0,1-1.318.922A5.03,5.03,0,0,1,128.762.154Z" transform="translate(994 2224)" fill="#fff"/>
      <path id="Path_356" data-name="Path 356" d="M2.676,0,.286-8.727H1.1l1.977,7.5h.068l1.977-7.5h.92l1.977,7.5h.068l1.977-7.5h.814L8.484,0H7.632L5.608-7.4H5.553L3.528,0ZM14.195.136a2.877,2.877,0,0,1-1.585-.428,2.825,2.825,0,0,1-1.033-1.189,4.014,4.014,0,0,1-.364-1.754,4.059,4.059,0,0,1,.364-1.758A2.936,2.936,0,0,1,12.586-6.2a2.6,2.6,0,0,1,1.494-.437,2.788,2.788,0,0,1,1.027.194A2.553,2.553,0,0,1,16-5.849a2.841,2.841,0,0,1,.624,1,3.994,3.994,0,0,1,.23,1.425v.375H11.736v-.669h4.338a2.5,2.5,0,0,0-.254-1.136,2.012,2.012,0,0,0-.7-.8,1.853,1.853,0,0,0-1.038-.294,1.857,1.857,0,0,0-1.1.332,2.267,2.267,0,0,0-.739.878,2.724,2.724,0,0,0-.271,1.193v.4a3.2,3.2,0,0,0,.271,1.362,2.085,2.085,0,0,0,.769.9,2.14,2.14,0,0,0,1.18.32A2.13,2.13,0,0,0,15.011-.7a1.756,1.756,0,0,0,.592-.39,1.715,1.715,0,0,0,.364-.539l.72.234a2.134,2.134,0,0,1-.488.763,2.5,2.5,0,0,1-.844.56A2.992,2.992,0,0,1,14.195.136ZM21.891,0V-6.545h.737V-5.54H22.7a1.615,1.615,0,0,1,.654-.8,2.007,2.007,0,0,1,1.1-.292,1.848,1.848,0,0,1,1.114.317,1.908,1.908,0,0,1,.654.871h.055A1.825,1.825,0,0,1,27-6.309a2.2,2.2,0,0,1,1.217-.322,1.863,1.863,0,0,1,1.44.573,2.385,2.385,0,0,1,.528,1.673V0h-.759V-4.385a1.559,1.559,0,0,0-.4-1.163,1.429,1.429,0,0,0-1.044-.388,1.456,1.456,0,0,0-1.155.46,1.7,1.7,0,0,0-.4,1.168V0h-.776V-4.453a1.538,1.538,0,0,0-.371-1.074,1.337,1.337,0,0,0-1.044-.409,1.518,1.518,0,0,0-.812.222,1.553,1.553,0,0,0-.567.616,1.921,1.921,0,0,0-.207.906V0ZM34.014.149a2.5,2.5,0,0,1-1.082-.232,1.873,1.873,0,0,1-.78-.673,1.909,1.909,0,0,1-.29-1.072,1.675,1.675,0,0,1,.183-.818,1.492,1.492,0,0,1,.52-.545,2.877,2.877,0,0,1,.8-.337,7.411,7.411,0,0,1,1.014-.192q.55-.068.931-.119A1.7,1.7,0,0,0,35.889-4a.378.378,0,0,0,.2-.358v-.153a1.4,1.4,0,0,0-.4-1.055,1.579,1.579,0,0,0-1.144-.386,1.97,1.97,0,0,0-1.153.311,1.719,1.719,0,0,0-.624.733l-.72-.26a2.141,2.141,0,0,1,.614-.859,2.466,2.466,0,0,1,.878-.464,3.474,3.474,0,0,1,.984-.143,3.338,3.338,0,0,1,.782.1,2.252,2.252,0,0,1,.756.339,1.758,1.758,0,0,1,.567.669,2.389,2.389,0,0,1,.217,1.085V0h-.759V-1.036h-.047a2.06,2.06,0,0,1-.4.563,2.1,2.1,0,0,1-.673.447A2.384,2.384,0,0,1,34.014.149Zm.1-.695a1.984,1.984,0,0,0,1.048-.268,1.853,1.853,0,0,0,.684-.714,2.032,2.032,0,0,0,.241-.982v-.946a.753.753,0,0,1-.283.145,3.819,3.819,0,0,1-.456.113q-.258.049-.513.083l-.46.06a4.25,4.25,0,0,0-.946.213,1.373,1.373,0,0,0-.6.4.989.989,0,0,0-.209.65,1.094,1.094,0,0,0,.426.923A1.709,1.709,0,0,0,34.116-.545Zm5.438-1.926-.009-.993h.17l3.068-3.081h.959l-3.03,3.034-.068.013ZM38.864,0V-8.727h.759V0Zm4.078,0L40.283-3.362l.545-.524L43.913,0Zm4.6.136a2.877,2.877,0,0,1-1.585-.428,2.825,2.825,0,0,1-1.033-1.189,4.014,4.014,0,0,1-.364-1.754,4.059,4.059,0,0,1,.364-1.758A2.936,2.936,0,0,1,45.931-6.2a2.6,2.6,0,0,1,1.494-.437,2.788,2.788,0,0,1,1.027.194,2.553,2.553,0,0,1,.888.592,2.841,2.841,0,0,1,.624,1,3.994,3.994,0,0,1,.23,1.425v.375H45.081v-.669h4.338a2.5,2.5,0,0,0-.254-1.136,2.012,2.012,0,0,0-.7-.8,1.853,1.853,0,0,0-1.038-.294,1.857,1.857,0,0,0-1.1.332,2.267,2.267,0,0,0-.739.878,2.724,2.724,0,0,0-.271,1.193v.4a3.2,3.2,0,0,0,.271,1.362,2.085,2.085,0,0,0,.769.9,2.14,2.14,0,0,0,1.18.32A2.13,2.13,0,0,0,48.356-.7a1.756,1.756,0,0,0,.592-.39,1.715,1.715,0,0,0,.364-.539l.72.234a2.134,2.134,0,0,1-.488.763,2.5,2.5,0,0,1-.844.56A2.992,2.992,0,0,1,47.54.136ZM59.634-5.109l-.695.2a1.827,1.827,0,0,0-.29-.533,1.319,1.319,0,0,0-.488-.379,1.75,1.75,0,0,0-.744-.141,1.786,1.786,0,0,0-1.091.315.97.97,0,0,0-.426.814.876.876,0,0,0,.292.684,2.124,2.124,0,0,0,.9.415l.989.243a2.456,2.456,0,0,1,1.234.635,1.525,1.525,0,0,1,.411,1.091,1.653,1.653,0,0,1-.307.984,2.047,2.047,0,0,1-.854.675A3.077,3.077,0,0,1,57.3.136,2.707,2.707,0,0,1,55.717-.3a1.953,1.953,0,0,1-.8-1.251l.729-.179a1.466,1.466,0,0,0,.552.882,1.806,1.806,0,0,0,1.085.3,1.962,1.962,0,0,0,1.206-.339,1.025,1.025,0,0,0,.452-.85.918.918,0,0,0-.264-.667,1.621,1.621,0,0,0-.8-.4l-1.07-.256A2.452,2.452,0,0,1,55.547-3.7a1.56,1.56,0,0,1-.409-1.1,1.6,1.6,0,0,1,.294-.952,1.973,1.973,0,0,1,.81-.646,2.813,2.813,0,0,1,1.176-.234,2.329,2.329,0,0,1,1.438.407A2.257,2.257,0,0,1,59.634-5.109ZM65.548-2.5V-6.545h.759V0h-.759V-1.087h-.06a2.006,2.006,0,0,1-.729.837,2.138,2.138,0,0,1-1.219.335A2.219,2.219,0,0,1,62.429-.19,1.917,1.917,0,0,1,61.666-1a2.811,2.811,0,0,1-.277-1.308v-4.24h.759v4.193A1.7,1.7,0,0,0,62.6-1.119a1.543,1.543,0,0,0,1.159.467,1.822,1.822,0,0,0,.852-.213,1.759,1.759,0,0,0,.673-.624A1.835,1.835,0,0,0,65.548-2.5ZM68.31,0V-6.545h.737V-5.54H69.1a1.645,1.645,0,0,1,.684-.8,2.044,2.044,0,0,1,1.106-.3q.094,0,.209,0l.192.009v.771l-.179-.026a2.1,2.1,0,0,0-.277-.017,1.884,1.884,0,0,0-.91.215,1.623,1.623,0,0,0-.629.594,1.634,1.634,0,0,0-.23.865V0Zm6.72.136a2.877,2.877,0,0,1-1.585-.428,2.825,2.825,0,0,1-1.033-1.189,4.014,4.014,0,0,1-.364-1.754,4.059,4.059,0,0,1,.364-1.758A2.936,2.936,0,0,1,73.421-6.2a2.6,2.6,0,0,1,1.494-.437,2.788,2.788,0,0,1,1.027.194,2.553,2.553,0,0,1,.888.592,2.841,2.841,0,0,1,.624,1,3.994,3.994,0,0,1,.23,1.425v.375H72.571v-.669h4.338a2.5,2.5,0,0,0-.254-1.136,2.012,2.012,0,0,0-.7-.8,1.853,1.853,0,0,0-1.038-.294,1.857,1.857,0,0,0-1.1.332,2.267,2.267,0,0,0-.739.878,2.724,2.724,0,0,0-.271,1.193v.4a3.2,3.2,0,0,0,.271,1.362,2.085,2.085,0,0,0,.769.9,2.14,2.14,0,0,0,1.18.32A2.13,2.13,0,0,0,75.846-.7a1.756,1.756,0,0,0,.592-.39,1.715,1.715,0,0,0,.364-.539l.72.234a2.134,2.134,0,0,1-.488.763,2.5,2.5,0,0,1-.844.56A2.992,2.992,0,0,1,75.03.136ZM83.254,2.45a1.984,1.984,0,0,1-.422-.043,1.656,1.656,0,0,1-.311-.094l.2-.673a1.337,1.337,0,0,0,.978.006,1.508,1.508,0,0,0,.667-.918l.239-.665L82.2-6.545h.822L84.967-1h.06L86.97-6.545l.827.013L85.023,1.036a2.741,2.741,0,0,1-.433.784,1.706,1.706,0,0,1-.59.473A1.719,1.719,0,0,1,83.254,2.45ZM91.581.136a2.65,2.65,0,0,1-1.5-.43,2.9,2.9,0,0,1-1.016-1.191A4,4,0,0,1,88.7-3.243a4.053,4.053,0,0,1,.366-1.771,2.883,2.883,0,0,1,1.016-1.193,2.66,2.66,0,0,1,1.5-.428,2.64,2.64,0,0,1,1.5.43,2.922,2.922,0,0,1,1.016,1.193,4.019,4.019,0,0,1,.369,1.768A4,4,0,0,1,94.1-1.485,2.9,2.9,0,0,1,93.079-.294,2.65,2.65,0,0,1,91.581.136Zm0-.695a1.829,1.829,0,0,0,1.155-.366,2.28,2.28,0,0,0,.718-.976A3.567,3.567,0,0,0,93.7-3.243a3.6,3.6,0,0,0-.245-1.347,2.307,2.307,0,0,0-.718-.984,1.815,1.815,0,0,0-1.155-.371,1.817,1.817,0,0,0-1.153.371,2.3,2.3,0,0,0-.72.984,3.6,3.6,0,0,0-.245,1.347A3.567,3.567,0,0,0,89.708-1.9a2.28,2.28,0,0,0,.718.976A1.829,1.829,0,0,0,91.581-.558ZM100.287-2.5V-6.545h.759V0h-.759V-1.087h-.06a2.006,2.006,0,0,1-.729.837A2.138,2.138,0,0,1,98.28.085,2.219,2.219,0,0,1,97.168-.19,1.917,1.917,0,0,1,96.4-1a2.811,2.811,0,0,1-.277-1.308v-4.24h.759v4.193a1.7,1.7,0,0,0,.452,1.234A1.543,1.543,0,0,0,98.5-.652a1.822,1.822,0,0,0,.852-.213,1.759,1.759,0,0,0,.673-.624A1.835,1.835,0,0,0,100.287-2.5ZM103.048,0V-6.545h.737V-5.54h.055a1.645,1.645,0,0,1,.684-.8,2.044,2.044,0,0,1,1.106-.3q.094,0,.209,0l.192.009v.771l-.179-.026a2.1,2.1,0,0,0-.277-.017,1.884,1.884,0,0,0-.91.215,1.623,1.623,0,0,0-.629.594,1.634,1.634,0,0,0-.23.865V0ZM110.7,0V-6.545h.737V-5.54h.055a1.645,1.645,0,0,1,.684-.8,2.044,2.044,0,0,1,1.106-.3q.094,0,.209,0l.192.009v.771l-.179-.026a2.1,2.1,0,0,0-.277-.017,1.884,1.884,0,0,0-.91.215,1.623,1.623,0,0,0-.629.594,1.634,1.634,0,0,0-.23.865V0Zm8.438-2.5V-6.545h.759V0h-.759V-1.087h-.06a2.006,2.006,0,0,1-.729.837,2.138,2.138,0,0,1-1.219.335A2.219,2.219,0,0,1,116.02-.19,1.917,1.917,0,0,1,115.257-1a2.811,2.811,0,0,1-.277-1.308v-4.24h.759v4.193a1.7,1.7,0,0,0,.452,1.234,1.543,1.543,0,0,0,1.159.467,1.822,1.822,0,0,0,.852-.213,1.759,1.759,0,0,0,.673-.624A1.835,1.835,0,0,0,119.139-2.5Zm3.52-6.226V0H121.9V-8.727ZM127.308.136a2.877,2.877,0,0,1-1.585-.428,2.825,2.825,0,0,1-1.033-1.189,4.014,4.014,0,0,1-.364-1.754,4.059,4.059,0,0,1,.364-1.758A2.936,2.936,0,0,1,125.7-6.2a2.6,2.6,0,0,1,1.494-.437,2.788,2.788,0,0,1,1.027.194,2.553,2.553,0,0,1,.889.592,2.841,2.841,0,0,1,.624,1,3.994,3.994,0,0,1,.23,1.425v.375h-5.114v-.669h4.338a2.5,2.5,0,0,0-.254-1.136,2.012,2.012,0,0,0-.7-.8,1.853,1.853,0,0,0-1.038-.294,1.857,1.857,0,0,0-1.1.332,2.267,2.267,0,0,0-.739.878,2.724,2.724,0,0,0-.271,1.193v.4a3.2,3.2,0,0,0,.271,1.362,2.085,2.085,0,0,0,.769.9,2.14,2.14,0,0,0,1.18.32,2.13,2.13,0,0,0,.816-.145,1.756,1.756,0,0,0,.592-.39,1.715,1.715,0,0,0,.364-.539l.72.234a2.134,2.134,0,0,1-.488.763,2.5,2.5,0,0,1-.844.56A2.992,2.992,0,0,1,127.308.136Zm10.253,0A2.664,2.664,0,0,1,136.033-.3a2.9,2.9,0,0,1-1.008-1.2,4.047,4.047,0,0,1-.358-1.739,4.035,4.035,0,0,1,.364-1.751,2.932,2.932,0,0,1,1.012-1.2,2.626,2.626,0,0,1,1.5-.437,2.731,2.731,0,0,1,1.189.254,2.358,2.358,0,0,1,.88.712,2.284,2.284,0,0,1,.437,1.067h-.767a1.709,1.709,0,0,0-.573-.948,1.7,1.7,0,0,0-1.153-.394,1.877,1.877,0,0,0-1.108.339,2.242,2.242,0,0,0-.752.942,3.379,3.379,0,0,0-.271,1.4,3.523,3.523,0,0,0,.264,1.408,2.242,2.242,0,0,0,.744.957,1.871,1.871,0,0,0,1.123.345,1.894,1.894,0,0,0,.795-.164,1.645,1.645,0,0,0,.605-.467,1.648,1.648,0,0,0,.33-.72h.767a2.338,2.338,0,0,1-.42,1.055,2.331,2.331,0,0,1-.865.727A2.684,2.684,0,0,1,137.561.136Zm5.949.013a2.5,2.5,0,0,1-1.082-.232,1.873,1.873,0,0,1-.78-.673,1.909,1.909,0,0,1-.29-1.072,1.675,1.675,0,0,1,.183-.818,1.492,1.492,0,0,1,.52-.545,2.877,2.877,0,0,1,.8-.337,7.412,7.412,0,0,1,1.014-.192q.55-.068.931-.119A1.7,1.7,0,0,0,145.385-4a.378.378,0,0,0,.2-.358v-.153a1.4,1.4,0,0,0-.4-1.055,1.579,1.579,0,0,0-1.144-.386,1.97,1.97,0,0,0-1.153.311,1.719,1.719,0,0,0-.624.733l-.72-.26a2.142,2.142,0,0,1,.614-.859,2.466,2.466,0,0,1,.878-.464,3.475,3.475,0,0,1,.984-.143,3.338,3.338,0,0,1,.782.1,2.252,2.252,0,0,1,.756.339,1.758,1.758,0,0,1,.567.669,2.389,2.389,0,0,1,.217,1.085V0h-.759V-1.036h-.047a2.06,2.06,0,0,1-.4.563,2.1,2.1,0,0,1-.673.447A2.384,2.384,0,0,1,143.51.149Zm.1-.695a1.984,1.984,0,0,0,1.048-.268,1.853,1.853,0,0,0,.684-.714,2.032,2.032,0,0,0,.241-.982v-.946a.753.753,0,0,1-.283.145,3.819,3.819,0,0,1-.456.113q-.258.049-.513.083l-.46.06a4.25,4.25,0,0,0-.946.213,1.373,1.373,0,0,0-.6.4.989.989,0,0,0-.209.65,1.094,1.094,0,0,0,.426.923A1.709,1.709,0,0,0,143.612-.545Zm7.325-6v.661h-3.124v-.661ZM148.79-8.114h.763v6.4a1.238,1.238,0,0,0,.141.641.783.783,0,0,0,.366.328,1.219,1.219,0,0,0,.482.1,1.467,1.467,0,0,0,.256-.019q.107-.019.188-.04l.162.686a1.97,1.97,0,0,1-.273.079,1.872,1.872,0,0,1-.4.036,1.85,1.85,0,0,1-.8-.183,1.573,1.573,0,0,1-.633-.545,1.559,1.559,0,0,1-.247-.9Zm5.7,8.263A2.5,2.5,0,0,1,153.4-.083a1.873,1.873,0,0,1-.78-.673,1.909,1.909,0,0,1-.29-1.072,1.675,1.675,0,0,1,.183-.818,1.492,1.492,0,0,1,.52-.545,2.877,2.877,0,0,1,.8-.337,7.412,7.412,0,0,1,1.014-.192q.55-.068.931-.119A1.7,1.7,0,0,0,156.362-4a.378.378,0,0,0,.2-.358v-.153a1.4,1.4,0,0,0-.4-1.055,1.579,1.579,0,0,0-1.144-.386,1.97,1.97,0,0,0-1.153.311,1.719,1.719,0,0,0-.624.733l-.72-.26a2.142,2.142,0,0,1,.614-.859,2.466,2.466,0,0,1,.878-.464A3.475,3.475,0,0,1,155-6.635a3.338,3.338,0,0,1,.782.1,2.252,2.252,0,0,1,.756.339,1.758,1.758,0,0,1,.567.669,2.389,2.389,0,0,1,.217,1.085V0h-.759V-1.036h-.047a2.06,2.06,0,0,1-.4.563,2.1,2.1,0,0,1-.673.447A2.384,2.384,0,0,1,154.487.149Zm.1-.695a1.984,1.984,0,0,0,1.048-.268,1.853,1.853,0,0,0,.684-.714,2.032,2.032,0,0,0,.241-.982v-.946a.753.753,0,0,1-.283.145,3.819,3.819,0,0,1-.456.113q-.258.049-.513.083l-.46.06a4.25,4.25,0,0,0-.946.213,1.373,1.373,0,0,0-.6.4.989.989,0,0,0-.209.65,1.094,1.094,0,0,0,.426.923A1.709,1.709,0,0,0,154.589-.545ZM160.1-8.727V0h-.759V-8.727ZM164.642.136a2.65,2.65,0,0,1-1.5-.43,2.9,2.9,0,0,1-1.016-1.191,4,4,0,0,1-.366-1.758,4.053,4.053,0,0,1,.366-1.771,2.883,2.883,0,0,1,1.016-1.193,2.66,2.66,0,0,1,1.5-.428,2.64,2.64,0,0,1,1.5.43,2.922,2.922,0,0,1,1.016,1.193,4.019,4.019,0,0,1,.369,1.768,4,4,0,0,1-.366,1.758A2.9,2.9,0,0,1,166.14-.294,2.65,2.65,0,0,1,164.642.136Zm0-.695A1.829,1.829,0,0,0,165.8-.925a2.28,2.28,0,0,0,.718-.976,3.567,3.567,0,0,0,.245-1.342,3.6,3.6,0,0,0-.245-1.347,2.307,2.307,0,0,0-.718-.984,1.815,1.815,0,0,0-1.155-.371,1.817,1.817,0,0,0-1.153.371,2.3,2.3,0,0,0-.72.984,3.6,3.6,0,0,0-.245,1.347,3.566,3.566,0,0,0,.245,1.342,2.28,2.28,0,0,0,.718.976A1.829,1.829,0,0,0,164.642-.558Zm7.044,3.149a3.61,3.61,0,0,1-1.172-.173,2.543,2.543,0,0,1-.848-.471,2.25,2.25,0,0,1-.537-.669l.622-.409a2.342,2.342,0,0,0,.377.486,1.854,1.854,0,0,0,.618.4,2.465,2.465,0,0,0,.94.158,2.157,2.157,0,0,0,1.4-.435,1.639,1.639,0,0,0,.535-1.351V-1.351h-.068a2.541,2.541,0,0,1-.379.594,1.942,1.942,0,0,1-.646.492,2.224,2.224,0,0,1-.987.2,2.529,2.529,0,0,1-1.391-.388,2.631,2.631,0,0,1-.955-1.11,3.945,3.945,0,0,1-.347-1.724,4.228,4.228,0,0,1,.339-1.747,2.772,2.772,0,0,1,.948-1.176,2.431,2.431,0,0,1,1.419-.422,2.108,2.108,0,0,1,1,.211,1.946,1.946,0,0,1,.637.522,3.2,3.2,0,0,1,.377.605h.077V-6.545h.741V.17a2.44,2.44,0,0,1-.354,1.368,2.109,2.109,0,0,1-.963.795A3.525,3.525,0,0,1,171.686,2.591Zm-.051-3.354a1.869,1.869,0,0,0,1.078-.3,1.922,1.922,0,0,0,.686-.876,3.514,3.514,0,0,0,.239-1.359,3.691,3.691,0,0,0-.234-1.362,2.143,2.143,0,0,0-.68-.937,1.731,1.731,0,0,0-1.089-.343,1.742,1.742,0,0,0-1.108.354,2.164,2.164,0,0,0-.682.952,3.7,3.7,0,0,0-.23,1.336,3.475,3.475,0,0,0,.234,1.323,1.993,1.993,0,0,0,.686.895A1.846,1.846,0,0,0,171.635-.763ZM180.558-2.5V-6.545h.759V0h-.759V-1.087h-.06a2.006,2.006,0,0,1-.729.837,2.138,2.138,0,0,1-1.219.335,2.219,2.219,0,0,1-1.112-.275A1.917,1.917,0,0,1,176.676-1a2.811,2.811,0,0,1-.277-1.308v-4.24h.759v4.193a1.7,1.7,0,0,0,.452,1.234,1.543,1.543,0,0,0,1.159.467,1.822,1.822,0,0,0,.852-.213,1.759,1.759,0,0,0,.673-.624A1.835,1.835,0,0,0,180.558-2.5ZM185.966.136a2.877,2.877,0,0,1-1.585-.428,2.825,2.825,0,0,1-1.033-1.189,4.014,4.014,0,0,1-.364-1.754,4.059,4.059,0,0,1,.364-1.758,2.936,2.936,0,0,1,1.01-1.206,2.6,2.6,0,0,1,1.494-.437,2.788,2.788,0,0,1,1.027.194,2.553,2.553,0,0,1,.888.592,2.841,2.841,0,0,1,.624,1,3.994,3.994,0,0,1,.23,1.425v.375h-5.114v-.669h4.338a2.5,2.5,0,0,0-.254-1.136,2.012,2.012,0,0,0-.7-.8,1.853,1.853,0,0,0-1.038-.294,1.857,1.857,0,0,0-1.1.332,2.267,2.267,0,0,0-.739.878,2.725,2.725,0,0,0-.271,1.193v.4a3.2,3.2,0,0,0,.271,1.362,2.085,2.085,0,0,0,.769.9,2.14,2.14,0,0,0,1.18.32,2.13,2.13,0,0,0,.816-.145,1.756,1.756,0,0,0,.592-.39,1.715,1.715,0,0,0,.364-.539l.72.234a2.134,2.134,0,0,1-.488.763,2.5,2.5,0,0,1-.844.56A2.992,2.992,0,0,1,185.966.136ZM193.67,0V-6.545h.763V0Zm.388-7.67a.559.559,0,0,1-.4-.16.513.513,0,0,1-.168-.386.513.513,0,0,1,.168-.386.559.559,0,0,1,.4-.16.564.564,0,0,1,.4.16.513.513,0,0,1,.168.386.513.513,0,0,1-.168.386A.564.564,0,0,1,194.058-7.67Zm6.784,2.561-.695.2a1.827,1.827,0,0,0-.29-.533,1.319,1.319,0,0,0-.488-.379,1.75,1.75,0,0,0-.744-.141,1.786,1.786,0,0,0-1.091.315.97.97,0,0,0-.426.814.876.876,0,0,0,.292.684,2.124,2.124,0,0,0,.9.415l.989.243a2.457,2.457,0,0,1,1.234.635,1.525,1.525,0,0,1,.411,1.091,1.653,1.653,0,0,1-.307.984,2.047,2.047,0,0,1-.854.675,3.077,3.077,0,0,1-1.268.245A2.707,2.707,0,0,1,196.926-.3a1.953,1.953,0,0,1-.8-1.251l.729-.179a1.466,1.466,0,0,0,.552.882,1.806,1.806,0,0,0,1.085.3A1.962,1.962,0,0,0,199.7-.884a1.025,1.025,0,0,0,.452-.85.918.918,0,0,0-.264-.667,1.621,1.621,0,0,0-.8-.4l-1.07-.256a2.452,2.452,0,0,1-1.261-.648,1.56,1.56,0,0,1-.409-1.1,1.6,1.6,0,0,1,.294-.952,1.972,1.972,0,0,1,.81-.646,2.813,2.813,0,0,1,1.176-.234,2.329,2.329,0,0,1,1.438.407A2.257,2.257,0,0,1,200.842-5.109ZM2.83,15.149a2.5,2.5,0,0,1-1.082-.232,1.873,1.873,0,0,1-.78-.673,1.909,1.909,0,0,1-.29-1.072,1.675,1.675,0,0,1,.183-.818,1.492,1.492,0,0,1,.52-.545,2.877,2.877,0,0,1,.8-.337,7.411,7.411,0,0,1,1.014-.192q.55-.068.931-.119A1.7,1.7,0,0,0,4.7,11a.378.378,0,0,0,.2-.358v-.153a1.4,1.4,0,0,0-.4-1.055,1.579,1.579,0,0,0-1.144-.386,1.97,1.97,0,0,0-1.153.311,1.719,1.719,0,0,0-.624.733l-.72-.26a2.141,2.141,0,0,1,.614-.859,2.466,2.466,0,0,1,.878-.464,3.474,3.474,0,0,1,.984-.143,3.338,3.338,0,0,1,.782.1,2.252,2.252,0,0,1,.756.339,1.758,1.758,0,0,1,.567.669,2.389,2.389,0,0,1,.217,1.085V15H4.9V13.964H4.858a2.06,2.06,0,0,1-.4.563,2.1,2.1,0,0,1-.673.447A2.384,2.384,0,0,1,2.83,15.149Zm.1-.695a1.984,1.984,0,0,0,1.048-.268,1.853,1.853,0,0,0,.684-.714A2.032,2.032,0,0,0,4.9,12.49v-.946a.753.753,0,0,1-.283.145,3.819,3.819,0,0,1-.456.113q-.258.049-.513.083l-.46.06a4.25,4.25,0,0,0-.946.213,1.373,1.373,0,0,0-.6.4.989.989,0,0,0-.209.65,1.094,1.094,0,0,0,.426.923A1.709,1.709,0,0,0,2.932,14.455ZM8.438,6.273V15H7.679V6.273ZM10.449,15V8.455h.763V15Zm.388-7.67a.559.559,0,0,1-.4-.16.526.526,0,0,1,0-.771.582.582,0,0,1,.8,0,.526.526,0,0,1,0,.771A.564.564,0,0,1,10.837,7.33ZM15.72,17.591a3.611,3.611,0,0,1-1.172-.173,2.543,2.543,0,0,1-.848-.471,2.25,2.25,0,0,1-.537-.669l.622-.409a2.342,2.342,0,0,0,.377.486,1.854,1.854,0,0,0,.618.4,2.465,2.465,0,0,0,.94.158,2.157,2.157,0,0,0,1.4-.435,1.639,1.639,0,0,0,.535-1.351V13.649h-.068a2.541,2.541,0,0,1-.379.594,1.942,1.942,0,0,1-.646.492,2.224,2.224,0,0,1-.987.2,2.529,2.529,0,0,1-1.391-.388,2.631,2.631,0,0,1-.955-1.11,3.944,3.944,0,0,1-.347-1.724,4.227,4.227,0,0,1,.339-1.747,2.772,2.772,0,0,1,.948-1.176,2.431,2.431,0,0,1,1.419-.422,2.108,2.108,0,0,1,1,.211,1.946,1.946,0,0,1,.637.522A3.2,3.2,0,0,1,17.6,9.7h.077V8.455h.741V15.17a2.44,2.44,0,0,1-.354,1.368,2.109,2.109,0,0,1-.963.795A3.525,3.525,0,0,1,15.72,17.591Zm-.051-3.354a1.869,1.869,0,0,0,1.078-.3,1.922,1.922,0,0,0,.686-.876,3.514,3.514,0,0,0,.239-1.359,3.691,3.691,0,0,0-.234-1.362,2.143,2.143,0,0,0-.68-.937,1.906,1.906,0,0,0-2.2.011,2.164,2.164,0,0,0-.682.952,3.7,3.7,0,0,0-.23,1.336,3.475,3.475,0,0,0,.234,1.323,1.993,1.993,0,0,0,.686.895A1.846,1.846,0,0,0,15.669,14.237Zm5.523-3.328V15h-.759V8.455h.737V9.482h.068a1.84,1.84,0,0,1,.718-.808,2.24,2.24,0,0,1,1.208-.3,2.375,2.375,0,0,1,1.161.275,1.9,1.9,0,0,1,.78.808,2.793,2.793,0,0,1,.279,1.308V15h-.759V10.807a1.764,1.764,0,0,0-.45-1.274,1.59,1.59,0,0,0-1.2-.469,1.861,1.861,0,0,0-.916.222,1.606,1.606,0,0,0-.633.637A1.991,1.991,0,0,0,21.192,10.909Zm8.842,4.227a2.877,2.877,0,0,1-1.585-.428,2.825,2.825,0,0,1-1.033-1.189,4.014,4.014,0,0,1-.364-1.754,4.059,4.059,0,0,1,.364-1.758A2.936,2.936,0,0,1,28.425,8.8a2.6,2.6,0,0,1,1.494-.437,2.788,2.788,0,0,1,1.027.194,2.553,2.553,0,0,1,.888.592,2.841,2.841,0,0,1,.624,1,3.994,3.994,0,0,1,.23,1.425v.375H27.575v-.669h4.338a2.5,2.5,0,0,0-.254-1.136,2.012,2.012,0,0,0-.7-.8,1.974,1.974,0,0,0-2.133.038,2.267,2.267,0,0,0-.739.878,2.724,2.724,0,0,0-.271,1.193v.4a3.2,3.2,0,0,0,.271,1.362,2.085,2.085,0,0,0,.769.9,2.352,2.352,0,0,0,2,.175,1.756,1.756,0,0,0,.592-.39,1.715,1.715,0,0,0,.364-.539l.72.234a2.134,2.134,0,0,1-.488.763,2.5,2.5,0,0,1-.844.56A2.992,2.992,0,0,1,30.034,15.136Zm6.678,0A2.387,2.387,0,0,1,35.3,14.71a2.807,2.807,0,0,1-.944-1.189,4.344,4.344,0,0,1-.339-1.777,4.318,4.318,0,0,1,.339-1.771,2.781,2.781,0,0,1,.948-1.185,2.422,2.422,0,0,1,1.419-.424,2.1,2.1,0,0,1,.993.211,1.923,1.923,0,0,1,.635.522,3.076,3.076,0,0,1,.371.605h.068V6.273h.763V15h-.741V13.786h-.089a2.973,2.973,0,0,1-.375.612,1.974,1.974,0,0,1-.641.526A2.093,2.093,0,0,1,36.712,15.136Zm.089-.695a1.712,1.712,0,0,0,1.082-.347,2.17,2.17,0,0,0,.684-.959,3.874,3.874,0,0,0,.237-1.4,3.811,3.811,0,0,0-.234-1.387,2.131,2.131,0,0,0-.682-.946,1.894,1.894,0,0,0-2.192.013,2.2,2.2,0,0,0-.682.961,3.769,3.769,0,0,0-.232,1.359,3.833,3.833,0,0,0,.234,1.376,2.237,2.237,0,0,0,.684.974A1.706,1.706,0,0,0,36.8,14.442ZM46.543,15,44.565,8.455h.8l1.551,5.4h.055l1.547-5.4h.805l1.534,5.386h.06L52.47,8.455h.8L51.294,15H50.51L48.959,9.635h-.081L47.327,15Zm8.216,0V8.455h.763V15Zm.388-7.67a.559.559,0,0,1-.4-.16.526.526,0,0,1,0-.771.582.582,0,0,1,.8,0,.526.526,0,0,1,0,.771A.564.564,0,0,1,55.146,7.33Zm4.964,1.125v.661H56.987V8.455ZM57.963,6.886h.763v6.4a1.238,1.238,0,0,0,.141.641.783.783,0,0,0,.366.328,1.219,1.219,0,0,0,.482.1,1.467,1.467,0,0,0,.256-.019q.107-.019.188-.04l.162.686a1.97,1.97,0,0,1-.273.079,1.872,1.872,0,0,1-.4.036,1.85,1.85,0,0,1-.8-.183,1.518,1.518,0,0,1-.88-1.445Zm4.764,4.023V15h-.759V6.273h.759V9.482H62.8a1.83,1.83,0,0,1,.714-.81,2.273,2.273,0,0,1,1.225-.3,2.411,2.411,0,0,1,1.168.273,1.9,1.9,0,0,1,.784.805,2.785,2.785,0,0,1,.281,1.312V15H66.2V10.807a1.762,1.762,0,0,0-.45-1.276,1.605,1.605,0,0,0-1.212-.467,1.928,1.928,0,0,0-.933.222,1.619,1.619,0,0,0-.646.637A1.962,1.962,0,0,0,62.727,10.909Zm12.2-2.455v.661H71.8V8.455ZM72.776,6.886h.763v6.4a1.238,1.238,0,0,0,.141.641.783.783,0,0,0,.366.328,1.219,1.219,0,0,0,.482.1,1.467,1.467,0,0,0,.256-.019q.107-.019.188-.04l.162.686a1.97,1.97,0,0,1-.273.079,1.872,1.872,0,0,1-.4.036,1.85,1.85,0,0,1-.8-.183,1.518,1.518,0,0,1-.88-1.445Zm4.764,4.023V15h-.759V6.273h.759V9.482h.068a1.83,1.83,0,0,1,.714-.81,2.273,2.273,0,0,1,1.225-.3,2.411,2.411,0,0,1,1.168.273,1.9,1.9,0,0,1,.784.805,2.785,2.785,0,0,1,.281,1.312V15h-.763V10.807a1.762,1.762,0,0,0-.45-1.276,1.605,1.605,0,0,0-1.212-.467,1.928,1.928,0,0,0-.933.222,1.619,1.619,0,0,0-.646.637A1.962,1.962,0,0,0,77.54,10.909Zm8.889,4.227a2.877,2.877,0,0,1-1.585-.428,2.825,2.825,0,0,1-1.033-1.189,4.014,4.014,0,0,1-.364-1.754,4.059,4.059,0,0,1,.364-1.758A2.936,2.936,0,0,1,84.82,8.8a2.6,2.6,0,0,1,1.494-.437,2.788,2.788,0,0,1,1.027.194,2.553,2.553,0,0,1,.888.592,2.841,2.841,0,0,1,.624,1,3.994,3.994,0,0,1,.23,1.425v.375H83.97v-.669h4.338a2.5,2.5,0,0,0-.254-1.136,2.012,2.012,0,0,0-.7-.8,1.974,1.974,0,0,0-2.133.038,2.267,2.267,0,0,0-.739.878,2.724,2.724,0,0,0-.271,1.193v.4a3.2,3.2,0,0,0,.271,1.362,2.085,2.085,0,0,0,.769.9,2.352,2.352,0,0,0,2,.175,1.756,1.756,0,0,0,.592-.39,1.715,1.715,0,0,0,.364-.539l.72.234a2.134,2.134,0,0,1-.488.763,2.5,2.5,0,0,1-.844.56A2.992,2.992,0,0,1,86.429,15.136ZM96.7,8.455v.661H93.58V8.455ZM94.555,6.886h.763v6.4a1.238,1.238,0,0,0,.141.641.783.783,0,0,0,.366.328,1.219,1.219,0,0,0,.482.1,1.467,1.467,0,0,0,.256-.019q.107-.019.188-.04l.162.686a1.97,1.97,0,0,1-.273.079,1.872,1.872,0,0,1-.4.036,1.85,1.85,0,0,1-.8-.183,1.518,1.518,0,0,1-.88-1.445Zm4.764,4.023V15h-.759V6.273h.759V9.482h.068a1.83,1.83,0,0,1,.714-.81,2.273,2.273,0,0,1,1.225-.3,2.411,2.411,0,0,1,1.168.273,1.9,1.9,0,0,1,.784.805,2.785,2.785,0,0,1,.281,1.312V15H102.8V10.807a1.762,1.762,0,0,0-.45-1.276,1.605,1.605,0,0,0-1.212-.467,1.928,1.928,0,0,0-.933.222,1.619,1.619,0,0,0-.646.637A1.962,1.962,0,0,0,99.32,10.909ZM105.563,15V8.455h.737V9.46h.055a1.645,1.645,0,0,1,.684-.8,2.044,2.044,0,0,1,1.106-.3q.094,0,.209,0l.192.009v.771l-.179-.026a2.1,2.1,0,0,0-.277-.017,1.884,1.884,0,0,0-.91.215,1.611,1.611,0,0,0-.859,1.46V15Zm6.72.136a2.877,2.877,0,0,1-1.585-.428,2.825,2.825,0,0,1-1.033-1.189,4.014,4.014,0,0,1-.364-1.754,4.059,4.059,0,0,1,.364-1.758,2.936,2.936,0,0,1,1.01-1.206,2.6,2.6,0,0,1,1.494-.437,2.788,2.788,0,0,1,1.027.194,2.553,2.553,0,0,1,.888.592,2.841,2.841,0,0,1,.624,1,3.994,3.994,0,0,1,.23,1.425v.375h-5.114v-.669h4.338a2.5,2.5,0,0,0-.254-1.136,2.012,2.012,0,0,0-.7-.8,1.974,1.974,0,0,0-2.133.038,2.267,2.267,0,0,0-.739.878,2.724,2.724,0,0,0-.271,1.193v.4a3.2,3.2,0,0,0,.271,1.362,2.085,2.085,0,0,0,.769.9,2.352,2.352,0,0,0,2,.175,1.756,1.756,0,0,0,.592-.39,1.715,1.715,0,0,0,.364-.539l.72.234a2.134,2.134,0,0,1-.488.763,2.5,2.5,0,0,1-.844.56A2.992,2.992,0,0,1,112.283,15.136Zm6.149.013a2.5,2.5,0,0,1-1.082-.232,1.873,1.873,0,0,1-.78-.673,1.909,1.909,0,0,1-.29-1.072,1.675,1.675,0,0,1,.183-.818,1.492,1.492,0,0,1,.52-.545,2.877,2.877,0,0,1,.8-.337,7.411,7.411,0,0,1,1.014-.192q.55-.068.931-.119a1.7,1.7,0,0,0,.582-.162.378.378,0,0,0,.2-.358v-.153a1.4,1.4,0,0,0-.4-1.055,1.579,1.579,0,0,0-1.144-.386,1.97,1.97,0,0,0-1.153.311,1.719,1.719,0,0,0-.624.733l-.72-.26a2.141,2.141,0,0,1,.614-.859,2.466,2.466,0,0,1,.878-.464,3.474,3.474,0,0,1,.984-.143,3.338,3.338,0,0,1,.782.1,2.252,2.252,0,0,1,.756.339,1.758,1.758,0,0,1,.567.669,2.389,2.389,0,0,1,.217,1.085V15h-.759V13.964h-.047a2.06,2.06,0,0,1-.4.563,2.1,2.1,0,0,1-.673.447A2.384,2.384,0,0,1,118.432,15.149Zm.1-.695a1.984,1.984,0,0,0,1.048-.268,1.853,1.853,0,0,0,.684-.714,2.032,2.032,0,0,0,.241-.982v-.946a.753.753,0,0,1-.283.145,3.819,3.819,0,0,1-.456.113q-.258.049-.513.083l-.46.06a4.25,4.25,0,0,0-.946.213,1.373,1.373,0,0,0-.6.4.989.989,0,0,0-.209.65,1.094,1.094,0,0,0,.426.923A1.709,1.709,0,0,0,118.534,14.455Zm7.325-6v.661h-3.124V8.455Zm-2.148-1.568h.763v6.4a1.238,1.238,0,0,0,.141.641.783.783,0,0,0,.366.328,1.219,1.219,0,0,0,.482.1,1.467,1.467,0,0,0,.256-.019q.107-.019.188-.04l.162.686a1.97,1.97,0,0,1-.273.079,1.872,1.872,0,0,1-.4.036,1.85,1.85,0,0,1-.8-.183,1.518,1.518,0,0,1-.88-1.445Zm8-.614V15h-.759V6.273Zm3.831,8.876a2.5,2.5,0,0,1-1.082-.232,1.873,1.873,0,0,1-.78-.673,1.909,1.909,0,0,1-.29-1.072,1.675,1.675,0,0,1,.183-.818,1.492,1.492,0,0,1,.52-.545,2.877,2.877,0,0,1,.8-.337,7.412,7.412,0,0,1,1.014-.192q.55-.068.931-.119A1.7,1.7,0,0,0,137.42,11a.378.378,0,0,0,.2-.358v-.153a1.4,1.4,0,0,0-.4-1.055,1.579,1.579,0,0,0-1.144-.386,1.97,1.97,0,0,0-1.153.311,1.719,1.719,0,0,0-.624.733l-.72-.26a2.142,2.142,0,0,1,.614-.859,2.466,2.466,0,0,1,.878-.464,3.475,3.475,0,0,1,.984-.143,3.338,3.338,0,0,1,.782.1,2.252,2.252,0,0,1,.756.339,1.758,1.758,0,0,1,.567.669,2.389,2.389,0,0,1,.217,1.085V15h-.759V13.964h-.047a2.06,2.06,0,0,1-.4.563,2.1,2.1,0,0,1-.673.447A2.384,2.384,0,0,1,135.545,15.149Zm.1-.695a1.984,1.984,0,0,0,1.048-.268,1.853,1.853,0,0,0,.684-.714,2.032,2.032,0,0,0,.241-.982v-.946a.753.753,0,0,1-.283.145,3.819,3.819,0,0,1-.456.113q-.258.049-.513.083l-.46.06a4.25,4.25,0,0,0-.946.213,1.373,1.373,0,0,0-.6.4.989.989,0,0,0-.209.65,1.094,1.094,0,0,0,.426.923A1.709,1.709,0,0,0,135.648,14.455Zm5.506-3.545V15h-.759V8.455h.737V9.482h.068a1.84,1.84,0,0,1,.718-.808,2.24,2.24,0,0,1,1.208-.3,2.375,2.375,0,0,1,1.161.275,1.9,1.9,0,0,1,.78.808,2.793,2.793,0,0,1,.279,1.308V15h-.759V10.807a1.764,1.764,0,0,0-.45-1.274,1.59,1.59,0,0,0-1.2-.469,1.861,1.861,0,0,0-.916.222,1.606,1.606,0,0,0-.633.637A1.991,1.991,0,0,0,141.153,10.909Zm8.553,4.227a2.387,2.387,0,0,1-1.411-.426,2.807,2.807,0,0,1-.944-1.189,4.344,4.344,0,0,1-.339-1.777,4.318,4.318,0,0,1,.339-1.771,2.781,2.781,0,0,1,.948-1.185,2.422,2.422,0,0,1,1.419-.424,2.1,2.1,0,0,1,.993.211,1.923,1.923,0,0,1,.635.522,3.076,3.076,0,0,1,.371.605h.068V6.273h.763V15h-.741V13.786h-.089a2.973,2.973,0,0,1-.375.612,1.974,1.974,0,0,1-.641.526A2.093,2.093,0,0,1,149.706,15.136Zm.089-.695a1.712,1.712,0,0,0,1.082-.347,2.17,2.17,0,0,0,.684-.959,3.874,3.874,0,0,0,.237-1.4,3.811,3.811,0,0,0-.234-1.387,2.131,2.131,0,0,0-.682-.946,1.894,1.894,0,0,0-2.192.013,2.2,2.2,0,0,0-.682.961,3.769,3.769,0,0,0-.232,1.359,3.833,3.833,0,0,0,.234,1.376,2.237,2.237,0,0,0,.684.974A1.706,1.706,0,0,0,149.8,14.442Zm9.311-4.551-.695.2a1.827,1.827,0,0,0-.29-.533,1.319,1.319,0,0,0-.488-.379,1.75,1.75,0,0,0-.744-.141,1.786,1.786,0,0,0-1.091.315.97.97,0,0,0-.426.814.876.876,0,0,0,.292.684,2.124,2.124,0,0,0,.9.415l.989.243a2.457,2.457,0,0,1,1.234.635,1.525,1.525,0,0,1,.411,1.091,1.653,1.653,0,0,1-.307.984,2.047,2.047,0,0,1-.854.675,3.077,3.077,0,0,1-1.268.245,2.707,2.707,0,0,1-1.581-.433,1.953,1.953,0,0,1-.8-1.251l.729-.179a1.466,1.466,0,0,0,.552.882,1.806,1.806,0,0,0,1.085.3,1.962,1.962,0,0,0,1.206-.339,1.025,1.025,0,0,0,.452-.85.918.918,0,0,0-.264-.667,1.621,1.621,0,0,0-.8-.4l-1.07-.256a2.452,2.452,0,0,1-1.261-.648,1.56,1.56,0,0,1-.409-1.1,1.6,1.6,0,0,1,.294-.952,1.972,1.972,0,0,1,.81-.646,2.813,2.813,0,0,1,1.176-.234,2.329,2.329,0,0,1,1.438.407A2.257,2.257,0,0,1,159.107,9.891Zm4.313,5.246a2.664,2.664,0,0,1-1.528-.439,2.9,2.9,0,0,1-1.008-1.2,4.047,4.047,0,0,1-.358-1.739,4.035,4.035,0,0,1,.364-1.751A2.932,2.932,0,0,1,161.9,8.8a2.626,2.626,0,0,1,1.5-.437,2.731,2.731,0,0,1,1.189.254,2.358,2.358,0,0,1,.88.712,2.284,2.284,0,0,1,.437,1.067h-.767a1.7,1.7,0,0,0-1.726-1.342,1.877,1.877,0,0,0-1.108.339,2.242,2.242,0,0,0-.752.942,3.379,3.379,0,0,0-.271,1.4,3.523,3.523,0,0,0,.264,1.408,2.242,2.242,0,0,0,.744.957,1.871,1.871,0,0,0,1.123.345,1.894,1.894,0,0,0,.795-.164,1.624,1.624,0,0,0,.935-1.187h.767a2.318,2.318,0,0,1-1.285,1.781A2.684,2.684,0,0,1,163.419,15.136Zm5.949.013a2.5,2.5,0,0,1-1.082-.232,1.873,1.873,0,0,1-.78-.673,1.909,1.909,0,0,1-.29-1.072,1.675,1.675,0,0,1,.183-.818,1.492,1.492,0,0,1,.52-.545,2.877,2.877,0,0,1,.8-.337,7.412,7.412,0,0,1,1.014-.192q.55-.068.931-.119a1.7,1.7,0,0,0,.582-.162.378.378,0,0,0,.2-.358v-.153a1.4,1.4,0,0,0-.4-1.055,1.579,1.579,0,0,0-1.144-.386,1.97,1.97,0,0,0-1.153.311,1.719,1.719,0,0,0-.624.733l-.72-.26a2.142,2.142,0,0,1,.614-.859,2.466,2.466,0,0,1,.878-.464,3.475,3.475,0,0,1,.984-.143,3.338,3.338,0,0,1,.782.1,2.252,2.252,0,0,1,.756.339,1.758,1.758,0,0,1,.567.669,2.389,2.389,0,0,1,.217,1.085V15h-.759V13.964H171.4a2.06,2.06,0,0,1-.4.563,2.1,2.1,0,0,1-.673.447A2.384,2.384,0,0,1,169.368,15.149Zm.1-.695a1.984,1.984,0,0,0,1.048-.268,1.853,1.853,0,0,0,.684-.714,2.032,2.032,0,0,0,.241-.982v-.946a.753.753,0,0,1-.283.145,3.819,3.819,0,0,1-.456.113q-.258.049-.513.083l-.46.06a4.25,4.25,0,0,0-.946.213,1.373,1.373,0,0,0-.6.4.989.989,0,0,0-.209.65,1.094,1.094,0,0,0,.426.923A1.709,1.709,0,0,0,169.47,14.455Zm4.734,3v-9h.737V9.7h.094a3.024,3.024,0,0,1,.371-.6,1.965,1.965,0,0,1,.633-.522,2.077,2.077,0,0,1,1-.213,2.422,2.422,0,0,1,1.419.424,2.781,2.781,0,0,1,.948,1.185,4.317,4.317,0,0,1,.339,1.771,4.32,4.32,0,0,1-.341,1.777,2.822,2.822,0,0,1-.946,1.189,2.38,2.38,0,0,1-1.406.426,2.093,2.093,0,0,1-1-.213,2,2,0,0,1-.643-.526,2.784,2.784,0,0,1-.373-.612h-.068v3.669Zm.75-5.723a3.874,3.874,0,0,0,.237,1.4,2.17,2.17,0,0,0,.684.959,1.859,1.859,0,0,0,2.182-.013,2.23,2.23,0,0,0,.686-.974,3.833,3.833,0,0,0,.234-1.376,3.769,3.769,0,0,0-.232-1.359,2.2,2.2,0,0,0-.682-.961,1.9,1.9,0,0,0-2.2-.013,2.117,2.117,0,0,0-.68.946A3.842,3.842,0,0,0,174.955,11.732Zm9.1,3.4a2.877,2.877,0,0,1-1.585-.428,2.825,2.825,0,0,1-1.033-1.189,4.014,4.014,0,0,1-.364-1.754,4.059,4.059,0,0,1,.364-1.758,2.936,2.936,0,0,1,1.01-1.206,2.6,2.6,0,0,1,1.494-.437,2.788,2.788,0,0,1,1.027.194,2.553,2.553,0,0,1,.888.592,2.841,2.841,0,0,1,.624,1,3.994,3.994,0,0,1,.23,1.425v.375h-5.114v-.669h4.338a2.5,2.5,0,0,0-.254-1.136,2.012,2.012,0,0,0-.7-.8,1.974,1.974,0,0,0-2.133.038,2.267,2.267,0,0,0-.739.878,2.725,2.725,0,0,0-.271,1.193v.4a3.2,3.2,0,0,0,.271,1.362,2.085,2.085,0,0,0,.769.9,2.352,2.352,0,0,0,2,.175,1.756,1.756,0,0,0,.592-.39,1.715,1.715,0,0,0,.364-.539l.72.234a2.134,2.134,0,0,1-.488.763,2.5,2.5,0,0,1-.844.56A2.992,2.992,0,0,1,184.053,15.136Z" transform="translate(994 2244)" fill="#fff"/>
      <path id="Path_342" data-name="Path 342" d="M767.568-15.335l33.675,70.141L982.076,87.638l18.52-134.5Z" transform="translate(220.979 2111.077)" fill="#e8055d"/>
      <path id="Path_343" data-name="Path 343" d="M788.973,68.516,819.9,131.109l158.737,42.346,54.125-120.034L973.4-12.5Z" transform="translate(194.635 2043.964)" fill="#fff"/>
      <g id="noun_Antivirus_3634562" transform="translate(1074 2088.323)">
        <g id="Group_14" data-name="Group 14" transform="translate(1 1)">
          <path id="Path_344" data-name="Path 344" d="M41.907,33.489a1.36,1.36,0,0,1-1.359,1.359H37.381a14.759,14.759,0,0,0-3.988-4.906,5.283,5.283,0,0,0-.981-5.425l2.3-2.3-1.922-1.922-2.656,2.656a5.105,5.105,0,0,0-3.642,0l-2.656-2.656-1.922,1.922,2.3,2.3a5.28,5.28,0,0,0-.983,5.425,14.759,14.759,0,0,0-3.988,4.906H16.078a1.36,1.36,0,0,1-1.359-1.359V32.129H12v1.359a4.083,4.083,0,0,0,4.078,4.078h2.043a14.579,14.579,0,0,0-.58,2.719H12V43h5.531a10.77,10.77,0,0,0,.707,2.719h-2.16A4.083,4.083,0,0,0,12,49.8v1.359h2.719V49.8a1.36,1.36,0,0,1,1.359-1.359h3.759a10.847,10.847,0,0,0,16.952,0h3.759A1.36,1.36,0,0,1,41.907,49.8v1.359h2.719V49.8a4.083,4.083,0,0,0-4.078-4.078h-2.16A10.828,10.828,0,0,0,39.094,43h5.531V40.286H39.085a14.579,14.579,0,0,0-.58-2.719h2.043a4.083,4.083,0,0,0,4.078-4.078V32.129H41.907ZM28.313,36.207a8.137,8.137,0,0,1-5.423-2.084,10.628,10.628,0,0,1,1.9-1.963,5.331,5.331,0,0,0,7.042,0,10.586,10.586,0,0,1,1.9,1.963A8.137,8.137,0,0,1,28.313,36.207Zm2.719-8.156a2.719,2.719,0,1,1-2.719-2.719A2.722,2.722,0,0,1,31.032,28.051ZM20.156,41.645a12.236,12.236,0,0,1,1.308-5.177,10.854,10.854,0,0,0,5.489,2.364V49.679A8.164,8.164,0,0,1,20.156,41.645Zm9.516,8.034V38.832a10.852,10.852,0,0,0,5.489-2.363,12.225,12.225,0,0,1,1.308,5.175A8.164,8.164,0,0,1,29.672,49.679Z" transform="translate(2.953 5.934)" fill="#e9005d"/>
          <path id="Path_345" data-name="Path 345" d="M82.564,45.77V5.078A4.083,4.083,0,0,0,78.486,1H5.078A4.083,4.083,0,0,0,1,5.078V70.329a4.083,4.083,0,0,0,4.078,4.078H50.768c2.349,4.058,9.195,7.942,13.6,10.122a7.344,7.344,0,0,0,6.479,0c5.39-2.666,14.433-7.879,14.433-12.841C85.283,66.338,82.775,47.355,82.564,45.77ZM5.078,3.719H78.486a1.36,1.36,0,0,1,1.359,1.359v6.8h-43.5V6.438H28.188v5.438H25.469V6.438H17.313v5.438H14.594V6.438H6.438v5.438H3.719v-6.8A1.36,1.36,0,0,1,5.078,3.719Zm28.547,8.156H30.907V9.156h2.719Zm-10.875,0H20.032V9.156H22.75Zm-10.875,0H9.156V9.156h2.719Zm-6.8,59.814a1.36,1.36,0,0,1-1.359-1.359V14.594H79.845V44.457a17.07,17.07,0,0,1-11.273-5l-.961-.961-.961.961a17.076,17.076,0,0,1-8.606,4.664c.012-.329.052-.657.052-.984a25.822,25.822,0,1,0-7.307,18.005c-.473,4.357-.85,8.472-.85,10.542ZM52.826,44.5l-.156,1.18c-.053.4-.677,5.09-1.315,10.478a23.1,23.1,0,1,1,4.021-13.018c0,.439-.045.878-.069,1.319-.275.014-.546.041-.824.041ZM69.644,82.092a4.635,4.635,0,0,1-4.067,0c-7.849-3.88-12.92-7.965-12.92-10.4,0-4.544,1.981-20.082,2.554-24.483a19.764,19.764,0,0,0,12.4-4.921,19.764,19.764,0,0,0,12.4,4.921c.574,4.4,2.554,19.938,2.554,24.483C82.564,74.127,77.493,78.212,69.644,82.092Z" transform="translate(-1 -1)" fill="#01293b"/>
          <path id="Path_346" data-name="Path 346" d="M63.349,38.9l-.125-.988-.98-.179a22.283,22.283,0,0,1-8.262-3.306l-.745-.488-.746.489a22.324,22.324,0,0,1-8.262,3.306l-.98.179-.125.988c-.6,4.739-2,16.22-2.115,20.447L41,59.773l.235.358c1.054,1.6,4.918,4.6,11.162,7.682a1.857,1.857,0,0,0,.843.2,1.811,1.811,0,0,0,.828-.19c6.257-3.093,10.121-6.09,11.176-7.689l.235-.358-.011-.427C65.351,55.118,63.948,43.637,63.349,38.9Zm-10.113,26.3C47.751,62.44,44.7,60,43.743,58.935c.181-4.16,1.338-13.792,1.955-18.73a24.924,24.924,0,0,0,7.538-3.036,24.924,24.924,0,0,0,7.538,3.036c.617,4.939,1.775,14.571,1.955,18.73C61.774,60,58.727,62.436,53.236,65.194Z" transform="translate(13.375 10.837)" fill="#e9005d"/>
          <rect id="Rectangle_40" data-name="Rectangle 40" width="19.135" height="2.734" transform="translate(57.404 16.401)" fill="#01293b"/>
          <rect id="Rectangle_41" data-name="Rectangle 41" width="2.734" height="2.734" transform="translate(73.805 21.868)" fill="#e9005d"/>
          <rect id="Rectangle_42" data-name="Rectangle 42" width="13.668" height="2.734" transform="translate(57.404 21.868)" fill="#e9005d"/>
          <rect id="Rectangle_43" data-name="Rectangle 43" width="19.135" height="2.734" transform="translate(57.404 27.335)" fill="#01293b"/>
          <rect id="Rectangle_44" data-name="Rectangle 44" width="19.135" height="2.734" transform="translate(57.404 32.802)" fill="#01293b"/>
        </g>
      </g>
    </g>
  </g>
</svg>
