<svg xmlns="http://www.w3.org/2000/svg" width="245.633" height="222.632" viewBox="0 0 245.633 222.632">
  <g id="Group_18" data-name="Group 18" transform="translate(-424.109 -2038.958)">
    <g id="Group_17" data-name="Group 17">
      <path id="Path_301" data-name="Path 301" d="M791.247-6.3l-23.8,62.909,212.477,25.88L940.8-74.347Z" transform="translate(-338.52 2117.884)" fill="#e8055d"/>
      <path id="Path_302" data-name="Path 302" d="M788.973,68.516l32.917,69.449,135.833,29.748,76.883-146.719L878.867-11.813Z" transform="translate(-364.864 2050.771)" fill="#fff"/>
    </g>
    <g id="Group_16" data-name="Group 16">
      <circle id="Ellipse_86" data-name="Ellipse 86" cx="13.5" cy="13.5" r="13.5" transform="translate(432 2047)" fill="#e8055d"/>
      <path id="Path_349" data-name="Path 349" d="M1.072,0V-2.528L6.378-7.173q.6-.54,1.016-.991a3.715,3.715,0,0,0,.639-.909,2.273,2.273,0,0,0,.22-1A1.943,1.943,0,0,0,7.99-11.1a1.77,1.77,0,0,0-.724-.664A2.306,2.306,0,0,0,6.207-12a2.2,2.2,0,0,0-1.058.245,1.722,1.722,0,0,0-.707.707A2.312,2.312,0,0,0,4.19-9.929H.859a4.777,4.777,0,0,1,.668-2.564,4.408,4.408,0,0,1,1.879-1.665,6.394,6.394,0,0,1,2.816-.586A6.913,6.913,0,0,1,9.1-14.19a4.43,4.43,0,0,1,1.893,1.545,4,4,0,0,1,.671,2.3A4.323,4.323,0,0,1,11.328-8.7a6.735,6.735,0,0,1-1.2,1.8A25.974,25.974,0,0,1,7.685-4.531L5.945-2.926v.092h5.895V0Z" transform="translate(439 2067)" fill="#fff"/>
    </g>
    <path id="Path_350" data-name="Path 350" d="M.826,0V-10.909H3.462v8.768H8V0ZM13.184.154a4.377,4.377,0,0,1-2.213-.53A3.6,3.6,0,0,1,9.548-1.856a4.691,4.691,0,0,1-.5-2.208,4.7,4.7,0,0,1,.5-2.213A3.6,3.6,0,0,1,10.97-7.758a4.377,4.377,0,0,1,2.213-.53,4.377,4.377,0,0,1,2.213.53,3.6,3.6,0,0,1,1.422,1.481,4.7,4.7,0,0,1,.5,2.213,4.691,4.691,0,0,1-.5,2.208A3.6,3.6,0,0,1,15.4-.376,4.377,4.377,0,0,1,13.184.154ZM13.2-1.811a1.155,1.155,0,0,0,.794-.288,1.818,1.818,0,0,0,.5-.8,3.686,3.686,0,0,0,.173-1.183,3.724,3.724,0,0,0-.173-1.193,1.818,1.818,0,0,0-.5-.8A1.155,1.155,0,0,0,13.2-6.36a1.207,1.207,0,0,0-.818.288,1.783,1.783,0,0,0-.506.8A3.724,3.724,0,0,0,11.7-4.08,3.686,3.686,0,0,0,11.876-2.9a1.783,1.783,0,0,0,.506.8A1.207,1.207,0,0,0,13.2-1.811Zm9.268,4.98a5.571,5.571,0,0,1-2-.32,3.189,3.189,0,0,1-1.305-.871A2.367,2.367,0,0,1,18.6.746L21.062.607A.878.878,0,0,0,21.32,1a1.344,1.344,0,0,0,.5.269,2.365,2.365,0,0,0,.722.1,1.808,1.808,0,0,0,1.084-.309A1.2,1.2,0,0,0,24.05.011V-1.428H23.96a1.937,1.937,0,0,1-.469.676,2.228,2.228,0,0,1-.78.469,3.1,3.1,0,0,1-1.068.17A3.282,3.282,0,0,1,20-.53a2.971,2.971,0,0,1-1.188-1.3A5.043,5.043,0,0,1,18.372-4.1a5.339,5.339,0,0,1,.458-2.362,3.2,3.2,0,0,1,1.2-1.377,3.049,3.049,0,0,1,1.6-.447,2.535,2.535,0,0,1,1.105.221A2.3,2.3,0,0,1,23.5-7.5a2.671,2.671,0,0,1,.453.719h.075v-1.4h2.594V.032A2.776,2.776,0,0,1,26.1,1.739,3.224,3.224,0,0,1,24.636,2.8,5.952,5.952,0,0,1,22.468,3.169Zm.08-5.178a1.316,1.316,0,0,0,.81-.25,1.578,1.578,0,0,0,.517-.719A3.12,3.12,0,0,0,24.055-4.1a3.31,3.31,0,0,0-.178-1.148,1.62,1.62,0,0,0-.517-.743,1.29,1.29,0,0,0-.812-.261,1.278,1.278,0,0,0-.82.266,1.63,1.63,0,0,0-.509.748A3.367,3.367,0,0,0,21.046-4.1a3.206,3.206,0,0,0,.176,1.124,1.553,1.553,0,0,0,.509.719A1.321,1.321,0,0,0,22.548-2.008ZM35.321.154A4.371,4.371,0,0,1,33.1-.378a3.6,3.6,0,0,1-1.42-1.483,4.7,4.7,0,0,1-.5-2.2,4.691,4.691,0,0,1,.5-2.208,3.612,3.612,0,0,1,1.422-1.483,4.349,4.349,0,0,1,2.208-.533,4.481,4.481,0,0,1,1.979.41A3.17,3.17,0,0,1,38.616-6.72a3.368,3.368,0,0,1,.5,1.755H36.685a1.639,1.639,0,0,0-.423-.985,1.214,1.214,0,0,0-.908-.357,1.3,1.3,0,0,0-.794.253,1.621,1.621,0,0,0-.53.746,3.416,3.416,0,0,0-.189,1.217,3.461,3.461,0,0,0,.189,1.222,1.62,1.62,0,0,0,.53.751,1.3,1.3,0,0,0,.794.253A1.305,1.305,0,0,0,36-2.019a1.231,1.231,0,0,0,.461-.455,1.789,1.789,0,0,0,.229-.732h2.434a3.56,3.56,0,0,1-.5,1.768A3.139,3.139,0,0,1,37.311-.264,4.413,4.413,0,0,1,35.321.154Zm8.954,0a4.377,4.377,0,0,1-2.213-.53A3.6,3.6,0,0,1,40.64-1.856a4.691,4.691,0,0,1-.5-2.208,4.7,4.7,0,0,1,.5-2.213,3.6,3.6,0,0,1,1.422-1.481,4.377,4.377,0,0,1,2.213-.53,4.377,4.377,0,0,1,2.213.53,3.6,3.6,0,0,1,1.422,1.481,4.7,4.7,0,0,1,.5,2.213,4.691,4.691,0,0,1-.5,2.208A3.6,3.6,0,0,1,46.489-.376,4.377,4.377,0,0,1,44.276.154Zm.016-1.966a1.155,1.155,0,0,0,.794-.288,1.818,1.818,0,0,0,.5-.8,3.686,3.686,0,0,0,.173-1.183,3.723,3.723,0,0,0-.173-1.193,1.818,1.818,0,0,0-.5-.8,1.155,1.155,0,0,0-.794-.288,1.207,1.207,0,0,0-.818.288,1.783,1.783,0,0,0-.506.8,3.723,3.723,0,0,0-.173,1.193A3.686,3.686,0,0,0,42.968-2.9a1.783,1.783,0,0,0,.506.8A1.207,1.207,0,0,0,44.292-1.811Zm8.059-9.1V0h-2.6V-10.909Zm4.256,0V0H54V-10.909ZM62.083.154a4.544,4.544,0,0,1-2.213-.509,3.459,3.459,0,0,1-1.428-1.454,4.768,4.768,0,0,1-.5-2.251,4.7,4.7,0,0,1,.5-2.219,3.637,3.637,0,0,1,1.412-1.481A4.193,4.193,0,0,1,62-8.288a4.519,4.519,0,0,1,1.6.272,3.435,3.435,0,0,1,1.252.8,3.67,3.67,0,0,1,.82,1.313,5.063,5.063,0,0,1,.293,1.787v.65H58.855V-4.975h4.688a1.467,1.467,0,0,0-.2-.74,1.363,1.363,0,0,0-.525-.509,1.556,1.556,0,0,0-.764-.184,1.571,1.571,0,0,0-.783.194,1.476,1.476,0,0,0-.549.527,1.5,1.5,0,0,0-.213.754v1.539a1.859,1.859,0,0,0,.2.876,1.417,1.417,0,0,0,.559.583,1.706,1.706,0,0,0,.863.208,1.946,1.946,0,0,0,.629-.1,1.342,1.342,0,0,0,.485-.282,1.165,1.165,0,0,0,.3-.458l2.392.069a2.955,2.955,0,0,1-.653,1.4,3.306,3.306,0,0,1-1.318.922A5.03,5.03,0,0,1,62.083.154Zm9.039,0A4.371,4.371,0,0,1,68.9-.378a3.6,3.6,0,0,1-1.42-1.483,4.7,4.7,0,0,1-.5-2.2,4.691,4.691,0,0,1,.5-2.208,3.612,3.612,0,0,1,1.422-1.483,4.349,4.349,0,0,1,2.208-.533,4.481,4.481,0,0,1,1.979.41A3.17,3.17,0,0,1,74.417-6.72a3.368,3.368,0,0,1,.5,1.755H72.486a1.639,1.639,0,0,0-.423-.985,1.214,1.214,0,0,0-.908-.357,1.3,1.3,0,0,0-.794.253,1.621,1.621,0,0,0-.53.746,3.416,3.416,0,0,0-.189,1.217,3.461,3.461,0,0,0,.189,1.222,1.62,1.62,0,0,0,.53.751,1.3,1.3,0,0,0,.794.253,1.305,1.305,0,0,0,.642-.154,1.231,1.231,0,0,0,.461-.455,1.789,1.789,0,0,0,.229-.732H74.92a3.56,3.56,0,0,1-.5,1.768A3.139,3.139,0,0,1,73.112-.264,4.413,4.413,0,0,1,71.122.154Zm9.753-8.336v1.918H75.714V-8.182Zm-4.08-1.96h2.6v7.569a.829.829,0,0,0,.077.386.438.438,0,0,0,.226.208.938.938,0,0,0,.357.061,1.846,1.846,0,0,0,.317-.029q.168-.029.253-.051l.394,1.88q-.186.053-.525.133a4.431,4.431,0,0,1-.807.1A3.777,3.777,0,0,1,78.124-.1a2.008,2.008,0,0,1-1-.807,2.494,2.494,0,0,1-.333-1.38ZM82.207,0V-8.182h2.6V0Zm1.31-9.135a1.347,1.347,0,0,1-.948-.365,1.158,1.158,0,0,1-.394-.882,1.152,1.152,0,0,1,.394-.876,1.34,1.34,0,0,1,.943-.365,1.337,1.337,0,0,1,.945.365,1.156,1.156,0,0,1,.392.876,1.161,1.161,0,0,1-.392.882A1.33,1.33,0,0,1,83.517-9.135ZM90.282.154a4.378,4.378,0,0,1-2.213-.53,3.6,3.6,0,0,1-1.422-1.481,4.691,4.691,0,0,1-.5-2.208,4.7,4.7,0,0,1,.5-2.213,3.6,3.6,0,0,1,1.422-1.481,4.378,4.378,0,0,1,2.213-.53,4.377,4.377,0,0,1,2.213.53,3.6,3.6,0,0,1,1.422,1.481,4.7,4.7,0,0,1,.5,2.213,4.691,4.691,0,0,1-.5,2.208A3.6,3.6,0,0,1,92.5-.376,4.377,4.377,0,0,1,90.282.154ZM90.3-1.811a1.155,1.155,0,0,0,.794-.288,1.818,1.818,0,0,0,.5-.8,3.686,3.686,0,0,0,.173-1.183,3.724,3.724,0,0,0-.173-1.193,1.818,1.818,0,0,0-.5-.8A1.155,1.155,0,0,0,90.3-6.36a1.207,1.207,0,0,0-.818.288,1.783,1.783,0,0,0-.506.8A3.724,3.724,0,0,0,88.8-4.08,3.686,3.686,0,0,0,88.975-2.9a1.783,1.783,0,0,0,.506.8A1.207,1.207,0,0,0,90.3-1.811Zm8.059-2.855V0h-2.6V-8.182H98.23v1.5h.091a2.311,2.311,0,0,1,.927-1.18,2.786,2.786,0,0,1,1.561-.429,2.835,2.835,0,0,1,1.5.386,2.639,2.639,0,0,1,.991,1.076,3.437,3.437,0,0,1,.349,1.611V0h-2.6V-4.7a1.507,1.507,0,0,0-.344-1.065,1.241,1.241,0,0,0-.967-.384,1.427,1.427,0,0,0-.722.178,1.2,1.2,0,0,0-.479.509A1.793,1.793,0,0,0,98.358-4.666Z" transform="translate(432 2224)" fill="#fff"/>
    <path id="Path_351" data-name="Path 351" d="M2.676,0,.286-8.727H1.1l1.977,7.5h.068l1.977-7.5h.92l1.977,7.5h.068l1.977-7.5h.814L8.484,0H7.632L5.608-7.4H5.553L3.528,0ZM14.195.136a2.877,2.877,0,0,1-1.585-.428,2.825,2.825,0,0,1-1.033-1.189,4.014,4.014,0,0,1-.364-1.754,4.059,4.059,0,0,1,.364-1.758A2.936,2.936,0,0,1,12.586-6.2a2.6,2.6,0,0,1,1.494-.437,2.788,2.788,0,0,1,1.027.194A2.553,2.553,0,0,1,16-5.849a2.841,2.841,0,0,1,.624,1,3.994,3.994,0,0,1,.23,1.425v.375H11.736v-.669h4.338a2.5,2.5,0,0,0-.254-1.136,2.012,2.012,0,0,0-.7-.8,1.853,1.853,0,0,0-1.038-.294,1.857,1.857,0,0,0-1.1.332,2.267,2.267,0,0,0-.739.878,2.724,2.724,0,0,0-.271,1.193v.4a3.2,3.2,0,0,0,.271,1.362,2.085,2.085,0,0,0,.769.9,2.14,2.14,0,0,0,1.18.32A2.13,2.13,0,0,0,15.011-.7a1.756,1.756,0,0,0,.592-.39,1.715,1.715,0,0,0,.364-.539l.72.234a2.134,2.134,0,0,1-.488.763,2.5,2.5,0,0,1-.844.56A2.992,2.992,0,0,1,14.195.136Zm10.253,0A2.664,2.664,0,0,1,22.92-.3a2.9,2.9,0,0,1-1.008-1.2,4.047,4.047,0,0,1-.358-1.739,4.035,4.035,0,0,1,.364-1.751A2.932,2.932,0,0,1,22.93-6.2a2.626,2.626,0,0,1,1.5-.437,2.731,2.731,0,0,1,1.189.254,2.358,2.358,0,0,1,.88.712A2.284,2.284,0,0,1,26.94-4.6h-.767A1.709,1.709,0,0,0,25.6-5.55a1.694,1.694,0,0,0-1.153-.394,1.877,1.877,0,0,0-1.108.339,2.242,2.242,0,0,0-.752.942,3.379,3.379,0,0,0-.271,1.4,3.523,3.523,0,0,0,.264,1.408,2.242,2.242,0,0,0,.744.957,1.871,1.871,0,0,0,1.123.345,1.894,1.894,0,0,0,.795-.164,1.645,1.645,0,0,0,.605-.467,1.648,1.648,0,0,0,.33-.72h.767a2.338,2.338,0,0,1-.42,1.055,2.331,2.331,0,0,1-.865.727A2.684,2.684,0,0,1,24.447.136Zm4.879-4.227V0h-.759V-8.727h.759v3.209h.068a1.83,1.83,0,0,1,.714-.81,2.273,2.273,0,0,1,1.225-.3,2.411,2.411,0,0,1,1.168.273,1.9,1.9,0,0,1,.784.805,2.785,2.785,0,0,1,.281,1.313V0H32.8V-4.193a1.762,1.762,0,0,0-.45-1.276,1.605,1.605,0,0,0-1.212-.467,1.928,1.928,0,0,0-.933.222,1.619,1.619,0,0,0-.646.637A1.962,1.962,0,0,0,29.327-4.091ZM38.216.136a2.877,2.877,0,0,1-1.585-.428A2.825,2.825,0,0,1,35.6-1.481a4.014,4.014,0,0,1-.364-1.754A4.059,4.059,0,0,1,35.6-4.992,2.936,2.936,0,0,1,36.607-6.2,2.6,2.6,0,0,1,38.1-6.635a2.788,2.788,0,0,1,1.027.194,2.553,2.553,0,0,1,.888.592,2.841,2.841,0,0,1,.624,1,3.994,3.994,0,0,1,.23,1.425v.375H35.757v-.669H40.1a2.5,2.5,0,0,0-.254-1.136,2.012,2.012,0,0,0-.7-.8A1.853,1.853,0,0,0,38.1-5.945a1.857,1.857,0,0,0-1.1.332,2.267,2.267,0,0,0-.739.878A2.724,2.724,0,0,0,36-3.541v.4a3.2,3.2,0,0,0,.271,1.362,2.085,2.085,0,0,0,.769.9,2.14,2.14,0,0,0,1.18.32A2.13,2.13,0,0,0,39.032-.7a1.756,1.756,0,0,0,.592-.39,1.715,1.715,0,0,0,.364-.539l.72.234a2.134,2.134,0,0,1-.488.763,2.5,2.5,0,0,1-.844.56A2.992,2.992,0,0,1,38.216.136Zm6.878,0A2.664,2.664,0,0,1,43.566-.3a2.9,2.9,0,0,1-1.008-1.2A4.047,4.047,0,0,1,42.2-3.243a4.035,4.035,0,0,1,.364-1.751,2.932,2.932,0,0,1,1.012-1.2,2.626,2.626,0,0,1,1.5-.437,2.731,2.731,0,0,1,1.189.254,2.358,2.358,0,0,1,.88.712A2.284,2.284,0,0,1,47.587-4.6H46.82a1.709,1.709,0,0,0-.573-.948,1.694,1.694,0,0,0-1.153-.394,1.877,1.877,0,0,0-1.108.339,2.242,2.242,0,0,0-.752.942,3.379,3.379,0,0,0-.271,1.4,3.523,3.523,0,0,0,.264,1.408,2.242,2.242,0,0,0,.744.957,1.871,1.871,0,0,0,1.123.345,1.894,1.894,0,0,0,.795-.164,1.645,1.645,0,0,0,.605-.467,1.648,1.648,0,0,0,.33-.72h.767a2.338,2.338,0,0,1-.42,1.055,2.331,2.331,0,0,1-.865.727A2.684,2.684,0,0,1,45.094.136ZM49.9-2.472,49.9-3.464h.17l3.068-3.081h.959l-3.03,3.034L51-3.5ZM49.214,0V-8.727h.759V0Zm4.078,0L50.634-3.362l.545-.524L54.264,0ZM59.42,2.45A1.984,1.984,0,0,1,59,2.408a1.656,1.656,0,0,1-.311-.094l.2-.673a1.337,1.337,0,0,0,.978.006,1.508,1.508,0,0,0,.667-.918l.239-.665L58.368-6.545h.822L61.134-1h.06l1.943-5.544.827.013L61.189,1.036a2.741,2.741,0,0,1-.433.784,1.706,1.706,0,0,1-.59.473A1.719,1.719,0,0,1,59.42,2.45ZM67.747.136a2.65,2.65,0,0,1-1.5-.43,2.9,2.9,0,0,1-1.016-1.191,4,4,0,0,1-.366-1.758,4.053,4.053,0,0,1,.366-1.771,2.883,2.883,0,0,1,1.016-1.193,2.66,2.66,0,0,1,1.5-.428,2.64,2.64,0,0,1,1.5.43,2.922,2.922,0,0,1,1.016,1.193,4.019,4.019,0,0,1,.369,1.768,4,4,0,0,1-.366,1.758A2.9,2.9,0,0,1,69.245-.294,2.65,2.65,0,0,1,67.747.136Zm0-.695A1.829,1.829,0,0,0,68.9-.925,2.28,2.28,0,0,0,69.62-1.9a3.567,3.567,0,0,0,.245-1.342,3.6,3.6,0,0,0-.245-1.347,2.307,2.307,0,0,0-.718-.984,1.815,1.815,0,0,0-1.155-.371,1.817,1.817,0,0,0-1.153.371,2.3,2.3,0,0,0-.72.984,3.6,3.6,0,0,0-.245,1.347A3.567,3.567,0,0,0,65.874-1.9a2.28,2.28,0,0,0,.718.976A1.829,1.829,0,0,0,67.747-.558ZM76.453-2.5V-6.545h.759V0h-.759V-1.087h-.06a2.006,2.006,0,0,1-.729.837,2.138,2.138,0,0,1-1.219.335A2.219,2.219,0,0,1,73.334-.19,1.917,1.917,0,0,1,72.571-1a2.811,2.811,0,0,1-.277-1.308v-4.24h.759v4.193A1.7,1.7,0,0,0,73.5-1.119a1.543,1.543,0,0,0,1.159.467,1.822,1.822,0,0,0,.852-.213,1.759,1.759,0,0,0,.673-.624A1.835,1.835,0,0,0,76.453-2.5ZM84.418.149a2.5,2.5,0,0,1-1.082-.232,1.873,1.873,0,0,1-.78-.673,1.909,1.909,0,0,1-.29-1.072,1.675,1.675,0,0,1,.183-.818,1.492,1.492,0,0,1,.52-.545,2.877,2.877,0,0,1,.8-.337A7.411,7.411,0,0,1,84.78-3.72q.55-.068.931-.119A1.7,1.7,0,0,0,86.293-4a.379.379,0,0,0,.2-.358v-.153a1.4,1.4,0,0,0-.4-1.055,1.579,1.579,0,0,0-1.144-.386,1.97,1.97,0,0,0-1.153.311,1.719,1.719,0,0,0-.624.733l-.72-.26a2.141,2.141,0,0,1,.614-.859,2.466,2.466,0,0,1,.878-.464,3.474,3.474,0,0,1,.984-.143,3.338,3.338,0,0,1,.782.1,2.252,2.252,0,0,1,.756.339,1.758,1.758,0,0,1,.567.669,2.389,2.389,0,0,1,.217,1.085V0h-.759V-1.036h-.047a2.06,2.06,0,0,1-.4.563,2.1,2.1,0,0,1-.673.447A2.384,2.384,0,0,1,84.418.149Zm.1-.695a1.984,1.984,0,0,0,1.048-.268,1.853,1.853,0,0,0,.684-.714,2.032,2.032,0,0,0,.241-.982v-.946a.753.753,0,0,1-.283.145,3.819,3.819,0,0,1-.456.113q-.258.049-.513.083l-.46.06a4.25,4.25,0,0,0-.946.213,1.373,1.373,0,0,0-.6.4.989.989,0,0,0-.209.65,1.094,1.094,0,0,0,.426.923A1.709,1.709,0,0,0,84.52-.545ZM89.267,0V-6.545H90V-5.54h.055a1.645,1.645,0,0,1,.684-.8,2.044,2.044,0,0,1,1.106-.3q.094,0,.209,0l.192.009v.771l-.179-.026a2.1,2.1,0,0,0-.277-.017,1.884,1.884,0,0,0-.91.215,1.623,1.623,0,0,0-.629.594,1.634,1.634,0,0,0-.23.865V0Zm6.72.136A2.877,2.877,0,0,1,94.4-.292a2.825,2.825,0,0,1-1.033-1.189A4.014,4.014,0,0,1,93-3.234a4.059,4.059,0,0,1,.364-1.758A2.936,2.936,0,0,1,94.379-6.2a2.6,2.6,0,0,1,1.494-.437,2.788,2.788,0,0,1,1.027.194,2.553,2.553,0,0,1,.888.592,2.841,2.841,0,0,1,.624,1,3.994,3.994,0,0,1,.23,1.425v.375H93.528v-.669h4.338a2.5,2.5,0,0,0-.254-1.136,2.012,2.012,0,0,0-.7-.8,1.853,1.853,0,0,0-1.038-.294,1.857,1.857,0,0,0-1.1.332,2.267,2.267,0,0,0-.739.878,2.724,2.724,0,0,0-.271,1.193v.4a3.2,3.2,0,0,0,.271,1.362,2.085,2.085,0,0,0,.769.9,2.14,2.14,0,0,0,1.18.32A2.13,2.13,0,0,0,96.8-.7a1.756,1.756,0,0,0,.592-.39,1.715,1.715,0,0,0,.364-.539l.72.234a2.134,2.134,0,0,1-.488.763,2.5,2.5,0,0,1-.844.56A2.992,2.992,0,0,1,95.987.136Zm10.253,0A2.664,2.664,0,0,1,104.712-.3,2.9,2.9,0,0,1,103.7-1.5a4.046,4.046,0,0,1-.358-1.739,4.035,4.035,0,0,1,.364-1.751,2.932,2.932,0,0,1,1.012-1.2,2.626,2.626,0,0,1,1.5-.437,2.731,2.731,0,0,1,1.189.254,2.358,2.358,0,0,1,.88.712,2.284,2.284,0,0,1,.437,1.067h-.767a1.709,1.709,0,0,0-.573-.948,1.7,1.7,0,0,0-1.153-.394,1.877,1.877,0,0,0-1.108.339,2.242,2.242,0,0,0-.752.942,3.379,3.379,0,0,0-.271,1.4,3.523,3.523,0,0,0,.264,1.408,2.242,2.242,0,0,0,.744.957,1.871,1.871,0,0,0,1.123.345,1.894,1.894,0,0,0,.795-.164,1.645,1.645,0,0,0,.605-.467,1.648,1.648,0,0,0,.33-.72h.767a2.338,2.338,0,0,1-.42,1.055,2.331,2.331,0,0,1-.865.727A2.684,2.684,0,0,1,106.24.136Zm6.665,0a2.65,2.65,0,0,1-1.5-.43,2.9,2.9,0,0,1-1.016-1.191,4,4,0,0,1-.366-1.758,4.053,4.053,0,0,1,.366-1.771,2.883,2.883,0,0,1,1.016-1.193,2.66,2.66,0,0,1,1.5-.428,2.64,2.64,0,0,1,1.5.43,2.922,2.922,0,0,1,1.016,1.193,4.019,4.019,0,0,1,.369,1.768,4,4,0,0,1-.366,1.758A2.9,2.9,0,0,1,114.4-.294,2.65,2.65,0,0,1,112.9.136Zm0-.695a1.829,1.829,0,0,0,1.155-.366,2.28,2.28,0,0,0,.718-.976,3.567,3.567,0,0,0,.245-1.342,3.6,3.6,0,0,0-.245-1.347,2.307,2.307,0,0,0-.718-.984,1.815,1.815,0,0,0-1.155-.371,1.817,1.817,0,0,0-1.153.371,2.3,2.3,0,0,0-.72.984,3.6,3.6,0,0,0-.245,1.347,3.567,3.567,0,0,0,.245,1.342,2.28,2.28,0,0,0,.718.976A1.829,1.829,0,0,0,112.9-.558Zm5.305-8.169V0h-.759V-8.727Zm2.761,0V0h-.759V-8.727ZM125.621.136a2.877,2.877,0,0,1-1.585-.428A2.825,2.825,0,0,1,123-1.481a4.014,4.014,0,0,1-.364-1.754A4.059,4.059,0,0,1,123-4.992a2.936,2.936,0,0,1,1.01-1.206,2.6,2.6,0,0,1,1.494-.437,2.788,2.788,0,0,1,1.027.194,2.553,2.553,0,0,1,.888.592,2.841,2.841,0,0,1,.624,1,3.994,3.994,0,0,1,.23,1.425v.375h-5.114v-.669H127.5a2.5,2.5,0,0,0-.254-1.136,2.012,2.012,0,0,0-.7-.8,1.853,1.853,0,0,0-1.038-.294,1.857,1.857,0,0,0-1.1.332,2.267,2.267,0,0,0-.739.878,2.724,2.724,0,0,0-.271,1.193v.4a3.2,3.2,0,0,0,.271,1.362,2.085,2.085,0,0,0,.769.9,2.14,2.14,0,0,0,1.18.32,2.13,2.13,0,0,0,.816-.145,1.756,1.756,0,0,0,.592-.39,1.715,1.715,0,0,0,.364-.539l.72.234a2.134,2.134,0,0,1-.488.763,2.5,2.5,0,0,1-.844.56A2.992,2.992,0,0,1,125.621.136Zm6.878,0A2.664,2.664,0,0,1,130.971-.3a2.9,2.9,0,0,1-1.008-1.2,4.047,4.047,0,0,1-.358-1.739,4.035,4.035,0,0,1,.364-1.751,2.932,2.932,0,0,1,1.012-1.2,2.626,2.626,0,0,1,1.5-.437,2.731,2.731,0,0,1,1.189.254,2.358,2.358,0,0,1,.88.712,2.284,2.284,0,0,1,.437,1.067h-.767a1.709,1.709,0,0,0-.573-.948,1.7,1.7,0,0,0-1.153-.394,1.877,1.877,0,0,0-1.108.339,2.242,2.242,0,0,0-.752.942,3.379,3.379,0,0,0-.271,1.4,3.523,3.523,0,0,0,.264,1.408,2.242,2.242,0,0,0,.744.957,1.871,1.871,0,0,0,1.123.345,1.894,1.894,0,0,0,.795-.164,1.645,1.645,0,0,0,.605-.467,1.648,1.648,0,0,0,.33-.72H135a2.338,2.338,0,0,1-.42,1.055,2.331,2.331,0,0,1-.865.727A2.684,2.684,0,0,1,132.5.136Zm6.7-6.682v.661h-3.124v-.661ZM137.05-8.114h.763v6.4a1.238,1.238,0,0,0,.141.641.783.783,0,0,0,.366.328,1.219,1.219,0,0,0,.482.1,1.467,1.467,0,0,0,.256-.019q.107-.019.188-.04l.162.686a1.97,1.97,0,0,1-.273.079,1.872,1.872,0,0,1-.4.036,1.85,1.85,0,0,1-.8-.183,1.573,1.573,0,0,1-.633-.545,1.559,1.559,0,0,1-.247-.9ZM140.928,0V-6.545h.763V0Zm.388-7.67a.559.559,0,0,1-.4-.16.513.513,0,0,1-.168-.386.513.513,0,0,1,.168-.386.559.559,0,0,1,.4-.16.564.564,0,0,1,.4.16.513.513,0,0,1,.168.386.513.513,0,0,1-.168.386A.564.564,0,0,1,141.315-7.67Zm3.145,3.58V0H143.7V-6.545h.737v1.027h.068a1.84,1.84,0,0,1,.718-.808,2.24,2.24,0,0,1,1.208-.3,2.375,2.375,0,0,1,1.161.275,1.9,1.9,0,0,1,.78.808,2.793,2.793,0,0,1,.279,1.308V0h-.759V-4.193a1.764,1.764,0,0,0-.45-1.274,1.59,1.59,0,0,0-1.2-.469,1.861,1.861,0,0,0-.916.222,1.606,1.606,0,0,0-.633.637A1.991,1.991,0,0,0,144.46-4.091Zm8.693,6.682a3.61,3.61,0,0,1-1.172-.173,2.543,2.543,0,0,1-.848-.471,2.25,2.25,0,0,1-.537-.669l.622-.409a2.342,2.342,0,0,0,.377.486,1.854,1.854,0,0,0,.618.4,2.465,2.465,0,0,0,.94.158,2.157,2.157,0,0,0,1.4-.435,1.639,1.639,0,0,0,.535-1.351V-1.351h-.068a2.541,2.541,0,0,1-.379.594A1.942,1.942,0,0,1,154-.264a2.224,2.224,0,0,1-.987.2,2.529,2.529,0,0,1-1.391-.388,2.631,2.631,0,0,1-.955-1.11,3.945,3.945,0,0,1-.347-1.724,4.228,4.228,0,0,1,.339-1.747,2.772,2.772,0,0,1,.948-1.176,2.431,2.431,0,0,1,1.419-.422,2.108,2.108,0,0,1,1,.211,1.946,1.946,0,0,1,.637.522,3.2,3.2,0,0,1,.377.605h.077V-6.545h.741V.17a2.44,2.44,0,0,1-.354,1.368,2.109,2.109,0,0,1-.963.795A3.525,3.525,0,0,1,153.153,2.591ZM153.1-.763a1.869,1.869,0,0,0,1.078-.3,1.922,1.922,0,0,0,.686-.876,3.514,3.514,0,0,0,.239-1.359,3.691,3.691,0,0,0-.234-1.362,2.143,2.143,0,0,0-.68-.937,1.731,1.731,0,0,0-1.089-.343,1.742,1.742,0,0,0-1.108.354,2.164,2.164,0,0,0-.682.952,3.7,3.7,0,0,0-.23,1.336,3.475,3.475,0,0,0,.234,1.323,1.993,1.993,0,0,0,.686.895A1.846,1.846,0,0,0,153.1-.763ZM163.82-6.545v.661H160.7v-.661Zm-2.148-1.568h.763v6.4a1.238,1.238,0,0,0,.141.641.783.783,0,0,0,.366.328,1.219,1.219,0,0,0,.482.1,1.467,1.467,0,0,0,.256-.019q.107-.019.188-.04l.162.686a1.97,1.97,0,0,1-.273.079,1.872,1.872,0,0,1-.4.036,1.85,1.85,0,0,1-.8-.183,1.573,1.573,0,0,1-.633-.545,1.559,1.559,0,0,1-.247-.9Zm4.764,4.023V0h-.759V-8.727h.759v3.209h.068a1.83,1.83,0,0,1,.714-.81,2.273,2.273,0,0,1,1.225-.3,2.411,2.411,0,0,1,1.168.273,1.9,1.9,0,0,1,.784.805,2.785,2.785,0,0,1,.281,1.313V0h-.763V-4.193a1.762,1.762,0,0,0-.45-1.276,1.605,1.605,0,0,0-1.212-.467,1.928,1.928,0,0,0-.933.222,1.619,1.619,0,0,0-.646.637A1.962,1.962,0,0,0,166.436-4.091ZM175.325.136a2.877,2.877,0,0,1-1.585-.428,2.825,2.825,0,0,1-1.033-1.189,4.014,4.014,0,0,1-.364-1.754,4.059,4.059,0,0,1,.364-1.758,2.936,2.936,0,0,1,1.01-1.206,2.6,2.6,0,0,1,1.494-.437,2.788,2.788,0,0,1,1.027.194,2.553,2.553,0,0,1,.888.592,2.841,2.841,0,0,1,.624,1,3.994,3.994,0,0,1,.23,1.425v.375h-5.114v-.669H177.2a2.5,2.5,0,0,0-.254-1.136,2.012,2.012,0,0,0-.7-.8,1.853,1.853,0,0,0-1.038-.294,1.857,1.857,0,0,0-1.1.332,2.267,2.267,0,0,0-.739.878,2.725,2.725,0,0,0-.271,1.193v.4a3.2,3.2,0,0,0,.271,1.362,2.085,2.085,0,0,0,.769.9,2.14,2.14,0,0,0,1.18.32,2.13,2.13,0,0,0,.816-.145,1.756,1.756,0,0,0,.592-.39,1.715,1.715,0,0,0,.364-.539l.72.234a2.134,2.134,0,0,1-.488.763,2.5,2.5,0,0,1-.844.56A2.992,2.992,0,0,1,175.325.136Zm7.7-.136V-6.545h.737V-5.54h.055a1.645,1.645,0,0,1,.684-.8,2.044,2.044,0,0,1,1.106-.3q.094,0,.209,0l.192.009v.771l-.179-.026a2.1,2.1,0,0,0-.277-.017,1.884,1.884,0,0,0-.91.215,1.623,1.623,0,0,0-.629.594,1.634,1.634,0,0,0-.23.865V0Zm4.287,0V-6.545h.763V0Zm.388-7.67a.559.559,0,0,1-.4-.16.513.513,0,0,1-.168-.386A.513.513,0,0,1,187.3-8.6a.559.559,0,0,1,.4-.16.564.564,0,0,1,.4.16.513.513,0,0,1,.168.386.513.513,0,0,1-.168.386A.564.564,0,0,1,187.7-7.67ZM192.58,2.591a3.61,3.61,0,0,1-1.172-.173,2.543,2.543,0,0,1-.848-.471,2.25,2.25,0,0,1-.537-.669l.622-.409a2.342,2.342,0,0,0,.377.486,1.854,1.854,0,0,0,.618.4,2.465,2.465,0,0,0,.94.158,2.157,2.157,0,0,0,1.4-.435,1.639,1.639,0,0,0,.535-1.351V-1.351h-.068a2.541,2.541,0,0,1-.379.594,1.942,1.942,0,0,1-.646.492,2.224,2.224,0,0,1-.987.2,2.529,2.529,0,0,1-1.391-.388,2.631,2.631,0,0,1-.955-1.11,3.945,3.945,0,0,1-.347-1.724,4.228,4.228,0,0,1,.339-1.747,2.772,2.772,0,0,1,.948-1.176,2.431,2.431,0,0,1,1.419-.422,2.108,2.108,0,0,1,1,.211,1.946,1.946,0,0,1,.637.522,3.2,3.2,0,0,1,.377.605h.077V-6.545h.741V.17a2.44,2.44,0,0,1-.354,1.368,2.109,2.109,0,0,1-.963.795A3.525,3.525,0,0,1,192.58,2.591Zm-.051-3.354a1.869,1.869,0,0,0,1.078-.3,1.922,1.922,0,0,0,.686-.876,3.514,3.514,0,0,0,.239-1.359,3.691,3.691,0,0,0-.234-1.362,2.143,2.143,0,0,0-.68-.937,1.731,1.731,0,0,0-1.089-.343,1.742,1.742,0,0,0-1.108.354,2.164,2.164,0,0,0-.682.952,3.7,3.7,0,0,0-.23,1.336,3.475,3.475,0,0,0,.234,1.323,1.993,1.993,0,0,0,.686.895A1.846,1.846,0,0,0,192.528-.763Zm5.523-3.328V0h-.759V-8.727h.759v3.209h.068a1.83,1.83,0,0,1,.714-.81,2.273,2.273,0,0,1,1.225-.3,2.411,2.411,0,0,1,1.168.273,1.9,1.9,0,0,1,.784.805,2.785,2.785,0,0,1,.281,1.313V0h-.763V-4.193a1.762,1.762,0,0,0-.45-1.276,1.605,1.605,0,0,0-1.212-.467,1.928,1.928,0,0,0-.933.222,1.619,1.619,0,0,0-.646.637A1.962,1.962,0,0,0,198.051-4.091Zm8.821-2.455v.661h-3.124v-.661Zm-2.148-1.568h.763v6.4a1.238,1.238,0,0,0,.141.641.783.783,0,0,0,.366.328,1.219,1.219,0,0,0,.482.1,1.467,1.467,0,0,0,.256-.019q.107-.019.188-.04l.162.686a1.97,1.97,0,0,1-.273.079,1.872,1.872,0,0,1-.4.036,1.85,1.85,0,0,1-.8-.183,1.573,1.573,0,0,1-.633-.545,1.559,1.559,0,0,1-.247-.9ZM2.83,15.149a2.5,2.5,0,0,1-1.082-.232,1.873,1.873,0,0,1-.78-.673,1.909,1.909,0,0,1-.29-1.072,1.675,1.675,0,0,1,.183-.818,1.492,1.492,0,0,1,.52-.545,2.877,2.877,0,0,1,.8-.337,7.411,7.411,0,0,1,1.014-.192q.55-.068.931-.119A1.7,1.7,0,0,0,4.7,11a.378.378,0,0,0,.2-.358v-.153a1.4,1.4,0,0,0-.4-1.055,1.579,1.579,0,0,0-1.144-.386,1.97,1.97,0,0,0-1.153.311,1.719,1.719,0,0,0-.624.733l-.72-.26a2.141,2.141,0,0,1,.614-.859,2.466,2.466,0,0,1,.878-.464,3.474,3.474,0,0,1,.984-.143,3.338,3.338,0,0,1,.782.1,2.252,2.252,0,0,1,.756.339,1.758,1.758,0,0,1,.567.669,2.389,2.389,0,0,1,.217,1.085V15H4.9V13.964H4.858a2.06,2.06,0,0,1-.4.563,2.1,2.1,0,0,1-.673.447A2.384,2.384,0,0,1,2.83,15.149Zm.1-.695a1.984,1.984,0,0,0,1.048-.268,1.853,1.853,0,0,0,.684-.714A2.032,2.032,0,0,0,4.9,12.49v-.946a.753.753,0,0,1-.283.145,3.819,3.819,0,0,1-.456.113q-.258.049-.513.083l-.46.06a4.25,4.25,0,0,0-.946.213,1.373,1.373,0,0,0-.6.4.989.989,0,0,0-.209.65,1.094,1.094,0,0,0,.426.923A1.709,1.709,0,0,0,2.932,14.455ZM7.679,15V8.455h.737V9.46h.068a1.615,1.615,0,0,1,.654-.8,2.007,2.007,0,0,1,1.1-.292,1.848,1.848,0,0,1,1.114.317,1.908,1.908,0,0,1,.654.871h.055a1.825,1.825,0,0,1,.722-.867A2.2,2.2,0,0,1,14,8.369a1.863,1.863,0,0,1,1.44.573,2.385,2.385,0,0,1,.528,1.673V15h-.759V10.615a1.559,1.559,0,0,0-.4-1.163,1.429,1.429,0,0,0-1.044-.388,1.456,1.456,0,0,0-1.155.46,1.7,1.7,0,0,0-.4,1.168V15h-.776V10.547a1.538,1.538,0,0,0-.371-1.074,1.337,1.337,0,0,0-1.044-.409,1.518,1.518,0,0,0-.812.222,1.553,1.553,0,0,0-.567.616,1.921,1.921,0,0,0-.207.906V15Zm12.839.136a2.65,2.65,0,0,1-1.5-.43A2.9,2.9,0,0,1,18,13.515a4,4,0,0,1-.366-1.758A4.053,4.053,0,0,1,18,9.987a2.883,2.883,0,0,1,1.016-1.193,2.824,2.824,0,0,1,2.994,0,2.922,2.922,0,0,1,1.016,1.193,4.019,4.019,0,0,1,.369,1.768,4,4,0,0,1-.366,1.758,2.9,2.9,0,0,1-1.016,1.191A2.65,2.65,0,0,1,20.518,15.136Zm0-.695a1.829,1.829,0,0,0,1.155-.366,2.28,2.28,0,0,0,.718-.976,3.811,3.811,0,0,0,0-2.689,2.307,2.307,0,0,0-.718-.984,1.981,1.981,0,0,0-2.308,0,2.3,2.3,0,0,0-.72.984,3.811,3.811,0,0,0,0,2.689,2.28,2.28,0,0,0,.718.976A1.829,1.829,0,0,0,20.518,14.442ZM29.224,12.5V8.455h.759V15h-.759V13.913h-.06a2.006,2.006,0,0,1-.729.837,2.138,2.138,0,0,1-1.219.335,2.219,2.219,0,0,1-1.112-.275A1.917,1.917,0,0,1,25.342,14a2.811,2.811,0,0,1-.277-1.308V8.455h.759v4.193a1.7,1.7,0,0,0,.452,1.234,1.543,1.543,0,0,0,1.159.467,1.822,1.822,0,0,0,.852-.213,1.759,1.759,0,0,0,.673-.624A1.835,1.835,0,0,0,29.224,12.5Zm3.52-1.589V15h-.759V8.455h.737V9.482h.068a1.84,1.84,0,0,1,.718-.808,2.24,2.24,0,0,1,1.208-.3,2.375,2.375,0,0,1,1.161.275,1.9,1.9,0,0,1,.78.808,2.793,2.793,0,0,1,.279,1.308V15h-.759V10.807a1.764,1.764,0,0,0-.45-1.274,1.59,1.59,0,0,0-1.2-.469,1.861,1.861,0,0,0-.916.222,1.606,1.606,0,0,0-.633.637A1.991,1.991,0,0,0,32.744,10.909Zm8.774-2.455v.661H38.395V8.455ZM39.371,6.886h.763v6.4a1.238,1.238,0,0,0,.141.641.783.783,0,0,0,.366.328,1.219,1.219,0,0,0,.482.1,1.467,1.467,0,0,0,.256-.019q.107-.019.188-.04l.162.686a1.97,1.97,0,0,1-.273.079,1.872,1.872,0,0,1-.4.036,1.85,1.85,0,0,1-.8-.183,1.518,1.518,0,0,1-.88-1.445Zm9.788,8.25a2.65,2.65,0,0,1-1.5-.43,2.9,2.9,0,0,1-1.016-1.191,4,4,0,0,1-.366-1.758,4.053,4.053,0,0,1,.366-1.771,2.883,2.883,0,0,1,1.016-1.193,2.824,2.824,0,0,1,2.994,0,2.922,2.922,0,0,1,1.016,1.193,4.019,4.019,0,0,1,.369,1.768,4,4,0,0,1-.366,1.758,2.9,2.9,0,0,1-1.016,1.191A2.65,2.65,0,0,1,49.159,15.136Zm0-.695a1.829,1.829,0,0,0,1.155-.366,2.28,2.28,0,0,0,.718-.976,3.811,3.811,0,0,0,0-2.689,2.307,2.307,0,0,0-.718-.984,1.981,1.981,0,0,0-2.308,0,2.3,2.3,0,0,0-.72.984,3.811,3.811,0,0,0,0,2.689,2.28,2.28,0,0,0,.718.976A1.829,1.829,0,0,0,49.159,14.442ZM56.4,8.455v.661H53.182V8.455ZM54.188,15V7.534A1.506,1.506,0,0,1,55.074,6.1a1.958,1.958,0,0,1,.839-.185,2.2,2.2,0,0,1,.5.047,1.842,1.842,0,0,1,.313.1L56.5,6.72q-.085-.03-.209-.062a1.269,1.269,0,0,0-.311-.032,1.013,1.013,0,0,0-.763.277,1.087,1.087,0,0,0-.268.788l0,7.283ZM62.05,6.273V15h-.759V6.273ZM66.6,15.136a2.65,2.65,0,0,1-1.5-.43,2.9,2.9,0,0,1-1.016-1.191,4,4,0,0,1-.366-1.758,4.053,4.053,0,0,1,.366-1.771A2.883,2.883,0,0,1,65.1,8.793a2.824,2.824,0,0,1,2.994,0,2.922,2.922,0,0,1,1.016,1.193,4.019,4.019,0,0,1,.369,1.768,4,4,0,0,1-.366,1.758,2.9,2.9,0,0,1-1.016,1.191A2.65,2.65,0,0,1,66.6,15.136Zm0-.695a1.829,1.829,0,0,0,1.155-.366,2.28,2.28,0,0,0,.718-.976,3.811,3.811,0,0,0,0-2.689,2.307,2.307,0,0,0-.718-.984,1.981,1.981,0,0,0-2.308,0,2.3,2.3,0,0,0-.72.984,3.811,3.811,0,0,0,0,2.689,2.28,2.28,0,0,0,.718.976A1.829,1.829,0,0,0,66.6,14.442Zm7.044,3.149a3.611,3.611,0,0,1-1.172-.173,2.543,2.543,0,0,1-.848-.471,2.25,2.25,0,0,1-.537-.669l.622-.409a2.342,2.342,0,0,0,.377.486,1.854,1.854,0,0,0,.618.4,2.465,2.465,0,0,0,.94.158,2.157,2.157,0,0,0,1.4-.435,1.639,1.639,0,0,0,.535-1.351V13.649h-.068a2.541,2.541,0,0,1-.379.594,1.942,1.942,0,0,1-.646.492,2.224,2.224,0,0,1-.987.2,2.529,2.529,0,0,1-1.391-.388,2.631,2.631,0,0,1-.955-1.11,3.944,3.944,0,0,1-.347-1.724,4.227,4.227,0,0,1,.339-1.747,2.772,2.772,0,0,1,.948-1.176,2.431,2.431,0,0,1,1.419-.422,2.108,2.108,0,0,1,1,.211,1.947,1.947,0,0,1,.637.522,3.2,3.2,0,0,1,.377.605H75.6V8.455h.741V15.17a2.44,2.44,0,0,1-.354,1.368,2.109,2.109,0,0,1-.963.795A3.525,3.525,0,0,1,73.641,17.591Zm-.051-3.354a1.869,1.869,0,0,0,1.078-.3,1.922,1.922,0,0,0,.686-.876,3.514,3.514,0,0,0,.239-1.359,3.691,3.691,0,0,0-.234-1.362,2.143,2.143,0,0,0-.68-.937,1.906,1.906,0,0,0-2.2.011,2.164,2.164,0,0,0-.682.952,3.7,3.7,0,0,0-.23,1.336,3.475,3.475,0,0,0,.234,1.323,1.993,1.993,0,0,0,.686.895A1.846,1.846,0,0,0,73.589,14.237Zm6.026-.43-.077.456q-.072.46-.2,1.014t-.273,1.053q-.141.5-.243.8h-.584q.055-.29.143-.737t.181-.991q.094-.543.17-1.119l.06-.477Zm8.071-5.352v.661H84.469V8.455ZM85.474,15V7.534A1.506,1.506,0,0,1,86.361,6.1a1.958,1.958,0,0,1,.839-.185,2.2,2.2,0,0,1,.5.047,1.842,1.842,0,0,1,.313.1l-.222.665q-.085-.03-.209-.062a1.269,1.269,0,0,0-.311-.032,1.013,1.013,0,0,0-.763.277,1.087,1.087,0,0,0-.268.788l0,7.283ZM89.2,15V8.455h.737V9.46H90a1.645,1.645,0,0,1,.684-.8,2.044,2.044,0,0,1,1.106-.3q.094,0,.209,0l.192.009v.771l-.179-.026A2.1,2.1,0,0,0,91.73,9.1a1.884,1.884,0,0,0-.91.215,1.611,1.611,0,0,0-.859,1.46V15Zm6.618.136a2.65,2.65,0,0,1-1.5-.43,2.9,2.9,0,0,1-1.016-1.191,4,4,0,0,1-.366-1.758,4.053,4.053,0,0,1,.366-1.771,2.883,2.883,0,0,1,1.016-1.193,2.824,2.824,0,0,1,2.994,0,2.922,2.922,0,0,1,1.016,1.193,4.019,4.019,0,0,1,.369,1.768,4,4,0,0,1-.366,1.758,2.9,2.9,0,0,1-1.016,1.191A2.65,2.65,0,0,1,95.821,15.136Zm0-.695a1.829,1.829,0,0,0,1.155-.366,2.28,2.28,0,0,0,.718-.976,3.811,3.811,0,0,0,0-2.689,2.307,2.307,0,0,0-.718-.984,1.981,1.981,0,0,0-2.308,0,2.3,2.3,0,0,0-.72.984,3.811,3.811,0,0,0,0,2.689,2.28,2.28,0,0,0,.718.976A1.829,1.829,0,0,0,95.821,14.442Zm4.547.558V8.455h.737V9.46h.068a1.615,1.615,0,0,1,.654-.8,2.007,2.007,0,0,1,1.1-.292,1.848,1.848,0,0,1,1.114.317,1.908,1.908,0,0,1,.654.871h.055a1.825,1.825,0,0,1,.722-.867,2.2,2.2,0,0,1,1.217-.322,1.863,1.863,0,0,1,1.44.573,2.385,2.385,0,0,1,.528,1.673V15H107.9V10.615a1.559,1.559,0,0,0-.4-1.163,1.429,1.429,0,0,0-1.044-.388,1.456,1.456,0,0,0-1.155.46,1.7,1.7,0,0,0-.4,1.168V15h-.776V10.547a1.538,1.538,0,0,0-.371-1.074,1.337,1.337,0,0,0-1.044-.409,1.518,1.518,0,0,0-.812.222,1.553,1.553,0,0,0-.567.616,1.921,1.921,0,0,0-.207.906V15Zm16.249-6.545v.661h-3.124V8.455Zm-2.148-1.568h.763v6.4a1.238,1.238,0,0,0,.141.641.783.783,0,0,0,.366.328,1.219,1.219,0,0,0,.482.1,1.467,1.467,0,0,0,.256-.019q.107-.019.188-.04l.162.686a1.97,1.97,0,0,1-.273.079,1.872,1.872,0,0,1-.4.036,1.85,1.85,0,0,1-.8-.183,1.518,1.518,0,0,1-.88-1.445Zm4.764,4.023V15h-.759V6.273h.759V9.482h.068a1.83,1.83,0,0,1,.714-.81,2.273,2.273,0,0,1,1.225-.3,2.411,2.411,0,0,1,1.168.273,1.9,1.9,0,0,1,.784.805,2.785,2.785,0,0,1,.281,1.312V15h-.763V10.807a1.762,1.762,0,0,0-.45-1.276,1.605,1.605,0,0,0-1.212-.467,1.928,1.928,0,0,0-.933.222,1.619,1.619,0,0,0-.646.637A1.962,1.962,0,0,0,119.233,10.909Zm8.889,4.227a2.877,2.877,0,0,1-1.585-.428,2.825,2.825,0,0,1-1.033-1.189,4.014,4.014,0,0,1-.364-1.754,4.059,4.059,0,0,1,.364-1.758,2.936,2.936,0,0,1,1.01-1.206,2.6,2.6,0,0,1,1.494-.437,2.788,2.788,0,0,1,1.027.194,2.553,2.553,0,0,1,.889.592,2.841,2.841,0,0,1,.624,1,3.994,3.994,0,0,1,.23,1.425v.375h-5.114v-.669H130a2.5,2.5,0,0,0-.254-1.136,2.012,2.012,0,0,0-.7-.8,1.974,1.974,0,0,0-2.133.038,2.267,2.267,0,0,0-.739.878,2.724,2.724,0,0,0-.271,1.193v.4a3.2,3.2,0,0,0,.271,1.362,2.085,2.085,0,0,0,.769.9,2.352,2.352,0,0,0,2,.175,1.756,1.756,0,0,0,.592-.39,1.715,1.715,0,0,0,.364-.539l.72.234a2.134,2.134,0,0,1-.488.763,2.5,2.5,0,0,1-.844.56A2.992,2.992,0,0,1,128.122,15.136Zm7.7-.136V8.455h.737V9.46h.055a1.645,1.645,0,0,1,.684-.8,2.044,2.044,0,0,1,1.106-.3q.094,0,.209,0l.192.009v.771l-.179-.026a2.1,2.1,0,0,0-.277-.017,1.884,1.884,0,0,0-.91.215,1.611,1.611,0,0,0-.859,1.46V15Zm4.287,0V8.455h.763V15Zm.388-7.67a.559.559,0,0,1-.4-.16.526.526,0,0,1,0-.771.582.582,0,0,1,.8,0,.526.526,0,0,1,0,.771A.564.564,0,0,1,140.493,7.33Zm4.884,10.261a3.61,3.61,0,0,1-1.172-.173,2.543,2.543,0,0,1-.848-.471,2.25,2.25,0,0,1-.537-.669l.622-.409a2.342,2.342,0,0,0,.377.486,1.854,1.854,0,0,0,.618.4,2.465,2.465,0,0,0,.94.158,2.157,2.157,0,0,0,1.4-.435,1.639,1.639,0,0,0,.535-1.351V13.649h-.068a2.541,2.541,0,0,1-.379.594,1.942,1.942,0,0,1-.646.492,2.224,2.224,0,0,1-.987.2,2.529,2.529,0,0,1-1.391-.388,2.631,2.631,0,0,1-.955-1.11,3.945,3.945,0,0,1-.347-1.724,4.228,4.228,0,0,1,.339-1.747,2.772,2.772,0,0,1,.948-1.176,2.431,2.431,0,0,1,1.419-.422,2.108,2.108,0,0,1,1,.211,1.946,1.946,0,0,1,.637.522,3.2,3.2,0,0,1,.377.605h.077V8.455h.741V15.17a2.44,2.44,0,0,1-.354,1.368,2.109,2.109,0,0,1-.963.795A3.525,3.525,0,0,1,145.376,17.591Zm-.051-3.354a1.869,1.869,0,0,0,1.078-.3,1.922,1.922,0,0,0,.686-.876,3.514,3.514,0,0,0,.239-1.359,3.691,3.691,0,0,0-.234-1.362,2.143,2.143,0,0,0-.68-.937,1.906,1.906,0,0,0-2.2.011,2.164,2.164,0,0,0-.682.952,3.7,3.7,0,0,0-.23,1.336,3.475,3.475,0,0,0,.234,1.323,1.993,1.993,0,0,0,.686.895A1.846,1.846,0,0,0,145.325,14.237Zm5.523-3.328V15h-.759V6.273h.759V9.482h.068a1.83,1.83,0,0,1,.714-.81,2.273,2.273,0,0,1,1.225-.3,2.411,2.411,0,0,1,1.168.273,1.9,1.9,0,0,1,.784.805,2.785,2.785,0,0,1,.281,1.312V15h-.763V10.807a1.762,1.762,0,0,0-.45-1.276,1.605,1.605,0,0,0-1.212-.467,1.928,1.928,0,0,0-.933.222,1.619,1.619,0,0,0-.646.637A1.962,1.962,0,0,0,150.848,10.909Zm8.821-2.455v.661h-3.124V8.455Zm-2.148-1.568h.763v6.4a1.238,1.238,0,0,0,.141.641.783.783,0,0,0,.366.328,1.219,1.219,0,0,0,.482.1,1.467,1.467,0,0,0,.256-.019q.107-.019.188-.04l.162.686a1.97,1.97,0,0,1-.273.079,1.872,1.872,0,0,1-.4.036,1.85,1.85,0,0,1-.8-.183,1.518,1.518,0,0,1-.88-1.445Zm11.642,3-.695.2a1.827,1.827,0,0,0-.29-.533,1.319,1.319,0,0,0-.488-.379,1.75,1.75,0,0,0-.744-.141,1.786,1.786,0,0,0-1.091.315.97.97,0,0,0-.426.814.876.876,0,0,0,.292.684,2.124,2.124,0,0,0,.9.415l.989.243a2.457,2.457,0,0,1,1.234.635,1.525,1.525,0,0,1,.411,1.091,1.653,1.653,0,0,1-.307.984,2.047,2.047,0,0,1-.854.675,3.077,3.077,0,0,1-1.268.245,2.707,2.707,0,0,1-1.581-.433,1.953,1.953,0,0,1-.8-1.251l.729-.179a1.466,1.466,0,0,0,.552.882,1.806,1.806,0,0,0,1.085.3,1.962,1.962,0,0,0,1.206-.339,1.025,1.025,0,0,0,.452-.85.918.918,0,0,0-.264-.667,1.621,1.621,0,0,0-.8-.4l-1.07-.256a2.452,2.452,0,0,1-1.261-.648,1.56,1.56,0,0,1-.409-1.1,1.6,1.6,0,0,1,.294-.952,1.972,1.972,0,0,1,.81-.646,2.813,2.813,0,0,1,1.176-.234,2.329,2.329,0,0,1,1.438.407A2.257,2.257,0,0,1,169.163,9.891Zm4.3,5.246a2.65,2.65,0,0,1-1.5-.43,2.9,2.9,0,0,1-1.016-1.191,4,4,0,0,1-.366-1.758,4.053,4.053,0,0,1,.366-1.771,2.883,2.883,0,0,1,1.016-1.193,2.824,2.824,0,0,1,2.994,0,2.922,2.922,0,0,1,1.016,1.193,4.019,4.019,0,0,1,.369,1.768,4,4,0,0,1-.366,1.758,2.9,2.9,0,0,1-1.016,1.191A2.65,2.65,0,0,1,173.463,15.136Zm0-.695a1.829,1.829,0,0,0,1.155-.366,2.28,2.28,0,0,0,.718-.976,3.811,3.811,0,0,0,0-2.689,2.307,2.307,0,0,0-.718-.984,1.981,1.981,0,0,0-2.308,0,2.3,2.3,0,0,0-.72.984,3.811,3.811,0,0,0,0,2.689,2.28,2.28,0,0,0,.718.976A1.829,1.829,0,0,0,173.463,14.442Zm8.706-1.943V8.455h.759V15h-.759V13.913h-.06a2.006,2.006,0,0,1-.729.837,2.138,2.138,0,0,1-1.219.335,2.219,2.219,0,0,1-1.112-.275,1.917,1.917,0,0,1-.763-.808,2.811,2.811,0,0,1-.277-1.308V8.455h.759v4.193a1.7,1.7,0,0,0,.452,1.234,1.543,1.543,0,0,0,1.159.467,1.822,1.822,0,0,0,.852-.213,1.759,1.759,0,0,0,.673-.624A1.835,1.835,0,0,0,182.169,12.5ZM184.93,15V8.455h.737V9.46h.055a1.645,1.645,0,0,1,.684-.8,2.044,2.044,0,0,1,1.106-.3q.094,0,.209,0l.192.009v.771l-.179-.026a2.1,2.1,0,0,0-.277-.017,1.884,1.884,0,0,0-.91.215,1.611,1.611,0,0,0-.859,1.46V15Zm6.631.136a2.664,2.664,0,0,1-1.528-.439,2.9,2.9,0,0,1-1.008-1.2,4.047,4.047,0,0,1-.358-1.739,4.035,4.035,0,0,1,.364-1.751,2.932,2.932,0,0,1,1.012-1.2,2.626,2.626,0,0,1,1.5-.437,2.731,2.731,0,0,1,1.189.254,2.358,2.358,0,0,1,.88.712,2.284,2.284,0,0,1,.437,1.067h-.767a1.7,1.7,0,0,0-1.726-1.342,1.877,1.877,0,0,0-1.108.339,2.242,2.242,0,0,0-.752.942,3.379,3.379,0,0,0-.271,1.4,3.523,3.523,0,0,0,.264,1.408,2.242,2.242,0,0,0,.744.957,1.871,1.871,0,0,0,1.123.345,1.894,1.894,0,0,0,.795-.164,1.624,1.624,0,0,0,.935-1.187h.767a2.318,2.318,0,0,1-1.285,1.781A2.684,2.684,0,0,1,191.561,15.136Zm6.767,0a2.877,2.877,0,0,1-1.585-.428,2.825,2.825,0,0,1-1.033-1.189,4.014,4.014,0,0,1-.364-1.754,4.059,4.059,0,0,1,.364-1.758,2.936,2.936,0,0,1,1.01-1.206,2.6,2.6,0,0,1,1.494-.437,2.788,2.788,0,0,1,1.027.194,2.553,2.553,0,0,1,.888.592,2.841,2.841,0,0,1,.624,1,3.994,3.994,0,0,1,.23,1.425v.375h-5.114v-.669h4.338a2.5,2.5,0,0,0-.254-1.136,2.012,2.012,0,0,0-.7-.8,1.974,1.974,0,0,0-2.133.038,2.267,2.267,0,0,0-.739.878,2.725,2.725,0,0,0-.271,1.193v.4a3.2,3.2,0,0,0,.271,1.362,2.085,2.085,0,0,0,.769.9,2.352,2.352,0,0,0,2,.175,1.756,1.756,0,0,0,.592-.39,1.715,1.715,0,0,0,.364-.539l.72.234a2.134,2.134,0,0,1-.488.763,2.5,2.5,0,0,1-.844.56A2.992,2.992,0,0,1,198.328,15.136Zm8.719-5.246-.695.2a1.827,1.827,0,0,0-.29-.533,1.319,1.319,0,0,0-.488-.379,1.75,1.75,0,0,0-.744-.141,1.786,1.786,0,0,0-1.091.315.97.97,0,0,0-.426.814.876.876,0,0,0,.292.684,2.124,2.124,0,0,0,.9.415l.989.243a2.457,2.457,0,0,1,1.234.635,1.525,1.525,0,0,1,.411,1.091,1.653,1.653,0,0,1-.307.984,2.047,2.047,0,0,1-.854.675,3.077,3.077,0,0,1-1.268.245,2.707,2.707,0,0,1-1.581-.433,1.953,1.953,0,0,1-.8-1.251l.729-.179a1.466,1.466,0,0,0,.552.882,1.806,1.806,0,0,0,1.085.3,1.962,1.962,0,0,0,1.206-.339,1.025,1.025,0,0,0,.452-.85.918.918,0,0,0-.264-.667,1.621,1.621,0,0,0-.8-.4l-1.07-.256a2.452,2.452,0,0,1-1.261-.648,1.56,1.56,0,0,1-.409-1.1,1.6,1.6,0,0,1,.294-.952,1.972,1.972,0,0,1,.81-.646,2.813,2.813,0,0,1,1.176-.234,2.329,2.329,0,0,1,1.438.407A2.257,2.257,0,0,1,207.047,9.891Z" transform="translate(432 2244)" fill="#fff"/>
    <g id="noun_Data_3692315" transform="translate(498 2085)">
      <path id="Path_327" data-name="Path 327" d="M0,0H5.622l7.152,5.763L15.25,15H0Z" transform="translate(61 8)" fill="#e9005d"/>
      <path id="Path_303" data-name="Path 303" d="M18.375,58.75h5.5a1.375,1.375,0,1,0,0-2.75h-5.5a1.375,1.375,0,1,0,0,2.75Z" transform="translate(4.125 20.249)" fill="#e9005d"/>
      <path id="Path_304" data-name="Path 304" d="M26.375,58.75h2.75a1.375,1.375,0,1,0,0-2.75h-2.75a1.375,1.375,0,1,0,0,2.75Z" transform="translate(7.125 20.249)" fill="#e9005d"/>
      <path id="Path_305" data-name="Path 305" d="M23.875,48h-5.5a1.375,1.375,0,0,0,0,2.75h5.5a1.375,1.375,0,0,0,0-2.75Z" transform="translate(4.125 17.249)" fill="#e9005d"/>
      <path id="Path_306" data-name="Path 306" d="M29.125,48h-2.75a1.375,1.375,0,0,0,0,2.75h2.75a1.375,1.375,0,0,0,0-2.75Z" transform="translate(7.125 17.249)" fill="#e9005d"/>
      <path id="Path_307" data-name="Path 307" d="M76.124,37.125h-66v-2.75a1.375,1.375,0,0,0-2.75,0v2.75A1.375,1.375,0,0,0,6,38.5v33a1.375,1.375,0,0,0,1.375,1.375H76.124A1.375,1.375,0,0,0,77.5,71.5v-33A1.375,1.375,0,0,0,76.124,37.125Zm-61.874,22v-8.25h55v8.25Zm55,2.75v8.25h-55v-8.25Zm-60.5-22H11.5v8.25H8.75Zm0,11H11.5v8.25H8.75Zm63.249,0h2.75v8.25H72Zm2.75-2.75H72v-8.25h2.75Zm-5.5-8.25v8.25h-55v-8.25Zm-60.5,22H11.5v8.25H8.75Zm66,8.25H72v-8.25h2.75Z" transform="translate(0 11.624)" fill="#01293b"/>
      <path id="Path_308" data-name="Path 308" d="M18.375,42.75h5.5a1.375,1.375,0,0,0,0-2.75h-5.5a1.375,1.375,0,0,0,0,2.75Z" transform="translate(4.125 14.249)" fill="#e9005d"/>
      <path id="Path_309" data-name="Path 309" d="M26.375,42.75h2.75a1.375,1.375,0,0,0,0-2.75h-2.75a1.375,1.375,0,0,0,0,2.75Z" transform="translate(7.125 14.249)" fill="#e9005d"/>
      <path id="Path_310" data-name="Path 310" d="M67,21.5A16.5,16.5,0,1,0,50.5,38,16.518,16.518,0,0,0,67,21.5Zm-2.82-1.375h-12.3V7.82A13.771,13.771,0,0,1,64.179,20.125ZM49.125,7.82V18.931l-9.24-6.16A13.733,13.733,0,0,1,49.125,7.82ZM36.75,21.5a13.656,13.656,0,0,1,1.61-6.44l11.377,7.584a28.164,28.164,0,0,1,.286.135,1.361,1.361,0,0,0,.477.1h13.68A13.749,13.749,0,0,1,36.75,21.5Z" transform="translate(10.499 1.125)" fill="#01293b"/>
      <path id="Path_311" data-name="Path 311" d="M8.375,28A1.375,1.375,0,0,0,7,29.375V30.75a1.375,1.375,0,0,0,2.75,0V29.375A1.375,1.375,0,0,0,8.375,28Z" transform="translate(0.375 9.749)" fill="#01293b"/>
      <path id="Path_312" data-name="Path 312" d="M11.375,31A1.375,1.375,0,0,0,10,32.375v2.75a1.375,1.375,0,1,0,2.75,0v-2.75A1.375,1.375,0,0,0,11.375,31Z" transform="translate(1.5 10.874)" fill="#e9005d"/>
      <path id="Path_313" data-name="Path 313" d="M13,31.75a1.375,1.375,0,0,0,2.75,0V30.375a1.375,1.375,0,1,0-2.75,0Z" transform="translate(2.625 10.124)" fill="#01293b"/>
      <path id="Path_314" data-name="Path 314" d="M18.75,35.75V34.375a1.375,1.375,0,0,0-2.75,0V35.75a1.375,1.375,0,0,0,2.75,0Z" transform="translate(3.75 11.624)" fill="#01293b"/>
      <path id="Path_315" data-name="Path 315" d="M20.375,29A1.375,1.375,0,0,0,19,30.375V31.75a1.375,1.375,0,1,0,2.75,0V30.375A1.375,1.375,0,0,0,20.375,29Z" transform="translate(4.875 10.124)" fill="#e9005d"/>
      <path id="Path_316" data-name="Path 316" d="M17.375,26A1.375,1.375,0,0,0,16,27.375V28.75a1.375,1.375,0,0,0,2.75,0V27.375A1.375,1.375,0,0,0,17.375,26Z" transform="translate(3.75 8.999)" fill="#01293b"/>
      <path id="Path_317" data-name="Path 317" d="M79.374,2h-66A1.375,1.375,0,0,0,12,3.375v13.75a1.375,1.375,0,1,0,2.75,0V4.75H78V40.5H28.5a1.375,1.375,0,1,0,0,2.75H79.374a1.375,1.375,0,0,0,1.375-1.375V3.375A1.375,1.375,0,0,0,79.374,2Z" transform="translate(2.25)" fill="#01293b"/>
      <path id="Path_318" data-name="Path 318" d="M24.013,14.106a1.376,1.376,0,0,0-1.622.07l-6.875,5.5a1.375,1.375,0,0,0,1.719,2.148l6.09-4.872,3.289,2.192a1.372,1.372,0,0,0,1.657-.1L37,11.561v2.314a1.375,1.375,0,0,0,2.75,0v-5.5A1.375,1.375,0,0,0,38.375,7h-5.5a1.375,1.375,0,1,0,0,2.75h2.013l-7.616,6.528Z" transform="translate(3.375 1.875)" fill="#01293b"/>
      <path id="Path_319" data-name="Path 319" d="M9.75,22.375a1.375,1.375,0,0,0-2.75,0V26.5a1.375,1.375,0,0,0,2.75,0Z" transform="translate(0.375 7.125)" fill="#e9005d"/>
      <path id="Path_320" data-name="Path 320" d="M9.75,17.375a1.375,1.375,0,0,0-2.75,0V18.75a1.375,1.375,0,1,0,2.75,0Z" transform="translate(0.375 5.25)" fill="#01293b"/>
      <path id="Path_321" data-name="Path 321" d="M12.75,20.375a1.375,1.375,0,0,0-2.75,0v2.75a1.375,1.375,0,0,0,2.75,0Z" transform="translate(1.5 6.375)" fill="#01293b"/>
      <path id="Path_322" data-name="Path 322" d="M14.375,21.125A1.375,1.375,0,0,0,15.75,19.75V18.375a1.375,1.375,0,0,0-2.75,0V19.75A1.375,1.375,0,0,0,14.375,21.125Z" transform="translate(2.625 5.625)" fill="#e9005d"/>
      <path id="Path_323" data-name="Path 323" d="M18.75,20.375a1.375,1.375,0,0,0-2.75,0V21.75a1.375,1.375,0,0,0,2.75,0Z" transform="translate(3.75 6.375)" fill="#01293b"/>
      <path id="Path_324" data-name="Path 324" d="M21.75,22.375a1.375,1.375,0,0,0-2.75,0v5.5a1.375,1.375,0,1,0,2.75,0Z" transform="translate(4.875 7.125)" fill="#e9005d"/>
      <path id="Path_325" data-name="Path 325" d="M12.75,26.375a1.375,1.375,0,0,0-2.75,0V27.75a1.375,1.375,0,1,0,2.75,0Z" transform="translate(1.5 8.624)" fill="#01293b"/>
      <path id="Path_326" data-name="Path 326" d="M13,26.125a1.375,1.375,0,0,0,2.75,0v-2.75a1.375,1.375,0,0,0-2.75,0Z" transform="translate(2.625 7.5)" fill="#e9005d"/>
    </g>
  </g>
</svg>
