<svg id="lock-24px" xmlns="http://www.w3.org/2000/svg" width="49.199" height="49.199" viewBox="0 0 49.199 49.199">
  <path id="Path_219" data-name="Path 219" d="M0,0H49.2V49.2H0Z" fill="none"/>
  <path id="Path_220" data-name="Path 220" d="M32.7,15.35h-2.05v-4.1a10.25,10.25,0,0,0-20.5,0v4.1H8.1A4.112,4.112,0,0,0,4,19.45v20.5a4.112,4.112,0,0,0,4.1,4.1H32.7a4.112,4.112,0,0,0,4.1-4.1V19.45A4.112,4.112,0,0,0,32.7,15.35ZM20.4,33.8a4.1,4.1,0,1,1,4.1-4.1A4.112,4.112,0,0,1,20.4,33.8Zm6.355-18.45H14.045v-4.1a6.355,6.355,0,0,1,12.71,0Z" transform="translate(4.2 1.05)" fill="#005dba"/>
</svg>
